%TF.GenerationSoftware,KiCad,Pcbnew,10.0.4*%
%TF.CreationDate,2026-07-23T21:57:17+03:00*%
%TF.ProjectId,Bench,42656e63-682e-46b6-9963-61645f706362,A*%
%TF.SameCoordinates,Original*%
%TF.FileFunction,Copper,L2,Bot*%
%TF.FilePolarity,Positive*%
%FSLAX46Y46*%
G04 Gerber Fmt 4.6, Leading zero omitted, Abs format (unit mm)*
G04 Created by KiCad (PCBNEW 10.0.4) date 2026-07-23 21:57:17*
%MOMM*%
%LPD*%
G01*
G04 APERTURE LIST*
G04 Aperture macros list*
%AMRoundRect*
0 Rectangle with rounded corners*
0 $1 Rounding radius*
0 $2 $3 $4 $5 $6 $7 $8 $9 X,Y pos of 4 corners*
0 Add a 4 corners polygon primitive as box body*
4,1,4,$2,$3,$4,$5,$6,$7,$8,$9,$2,$3,0*
0 Add four circle primitives for the rounded corners*
1,1,$1+$1,$2,$3*
1,1,$1+$1,$4,$5*
1,1,$1+$1,$6,$7*
1,1,$1+$1,$8,$9*
0 Add four rect primitives between the rounded corners*
20,1,$1+$1,$2,$3,$4,$5,0*
20,1,$1+$1,$4,$5,$6,$7,0*
20,1,$1+$1,$6,$7,$8,$9,0*
20,1,$1+$1,$8,$9,$2,$3,0*%
G04 Aperture macros list end*
%TA.AperFunction,HeatsinkPad*%
%ADD10C,0.600000*%
%TD*%
%TA.AperFunction,ComponentPad*%
%ADD11O,2.100000X1.000000*%
%TD*%
%TA.AperFunction,ComponentPad*%
%ADD12O,1.600000X1.000000*%
%TD*%
%TA.AperFunction,ComponentPad*%
%ADD13RoundRect,0.250000X0.550000X0.550000X-0.550000X0.550000X-0.550000X-0.550000X0.550000X-0.550000X0*%
%TD*%
%TA.AperFunction,ComponentPad*%
%ADD14C,1.600000*%
%TD*%
%TA.AperFunction,ComponentPad*%
%ADD15C,2.150000*%
%TD*%
%TA.AperFunction,ComponentPad*%
%ADD16R,1.700000X1.700000*%
%TD*%
%TA.AperFunction,ComponentPad*%
%ADD17C,1.700000*%
%TD*%
%TA.AperFunction,ViaPad*%
%ADD18C,0.600000*%
%TD*%
%TA.AperFunction,ViaPad*%
%ADD19C,0.800000*%
%TD*%
%TA.AperFunction,Conductor*%
%ADD20C,0.700000*%
%TD*%
%TA.AperFunction,Conductor*%
%ADD21C,0.250000*%
%TD*%
G04 APERTURE END LIST*
D10*
%TO.P,U2,41,GND_41*%
%TO.N,GND*%
X89600000Y-58670000D03*
X89600000Y-60070000D03*
X90300000Y-57970000D03*
X90300000Y-59370000D03*
X90300000Y-60770000D03*
X91000000Y-58670000D03*
X91000000Y-60070000D03*
X91700000Y-57970000D03*
X91700000Y-59370000D03*
X91700000Y-60770000D03*
X92400000Y-58670000D03*
X92400000Y-60070000D03*
%TD*%
D11*
%TO.P,J1,SH,SHIELD_SH*%
%TO.N,GND*%
X57130000Y-68180000D03*
D12*
X52950000Y-68180000D03*
D11*
X57130000Y-76820000D03*
D12*
X52950000Y-76820000D03*
%TD*%
D13*
%TO.P,J3,1,VBUS_1*%
%TO.N,/USB_A_VBUS*%
X122510000Y-72500000D03*
D14*
%TO.P,J3,2,D-_2*%
%TO.N,Net-(J3-D-)*%
X120510000Y-72500000D03*
%TO.P,J3,3,D+_3*%
%TO.N,Net-(J3-D+)*%
X118510000Y-72500000D03*
%TO.P,J3,4,GND_4*%
%TO.N,GND*%
X116510000Y-72500000D03*
D15*
%TO.P,J3,SH,Shield_SH*%
X123240000Y-75220000D03*
X123240000Y-69780000D03*
X116240000Y-75220000D03*
X116240000Y-69780000D03*
%TD*%
D16*
%TO.P,J2,1,Pin_1_1*%
%TO.N,GND*%
X64300000Y-91000000D03*
D17*
%TO.P,J2,2,Pin_2_2*%
%TO.N,/+3V3*%
X66840000Y-91000000D03*
%TO.P,J2,3,Pin_3_3*%
%TO.N,/ESP_TXD0*%
X69380000Y-91000000D03*
%TO.P,J2,4,Pin_4_4*%
%TO.N,/ESP_RXD0*%
X71920000Y-91000000D03*
%TO.P,J2,5,Pin_5_5*%
%TO.N,/ESP_EN*%
X74460000Y-91000000D03*
%TO.P,J2,6,Pin_6_6*%
%TO.N,/ESP_BOOT*%
X77000000Y-91000000D03*
%TD*%
D18*
%TO.N,GND*%
X57000000Y-67000000D03*
D19*
%TO.N,/+5V_PROTECTED*%
X86000000Y-83000000D03*
X83000000Y-83000000D03*
X118000000Y-82000000D03*
X118000000Y-78000000D03*
D18*
%TO.N,GND*%
X110000000Y-90100000D03*
X85212500Y-93000000D03*
X113000000Y-80000000D03*
X56000000Y-80825000D03*
X78662500Y-78000000D03*
X118000000Y-75000000D03*
X125000000Y-75000000D03*
X70000000Y-72000000D03*
X81212500Y-93000000D03*
X89212500Y-93000000D03*
X118862500Y-79000000D03*
X118000000Y-70000000D03*
X58045000Y-69250000D03*
X116775000Y-79000000D03*
X53000000Y-67000000D03*
X125000000Y-70000000D03*
X53490000Y-80825000D03*
X103700000Y-90100000D03*
X113700000Y-90100000D03*
X87000000Y-80950000D03*
X53000000Y-78000000D03*
X58045000Y-75750000D03*
X69637500Y-78000000D03*
X57000000Y-78000000D03*
X111350000Y-77490000D03*
X80475000Y-75000000D03*
X73450000Y-70000000D03*
X97212500Y-93000000D03*
X69812500Y-75000000D03*
X64000000Y-89000000D03*
X130700000Y-81000000D03*
X120000000Y-90100000D03*
X93212500Y-93000000D03*
X77050000Y-67000000D03*
X72575000Y-78000000D03*
X110862500Y-72000000D03*
X54000000Y-63000000D03*
%TO.N,/ESP_EN*%
X75000000Y-94000000D03*
X75000000Y-82000000D03*
X78000000Y-69000000D03*
X80000000Y-69000000D03*
X75000000Y-70000000D03*
%TO.N,/ESP_BOOT*%
X103000000Y-74000000D03*
X102000000Y-87000000D03*
X83775000Y-86000000D03*
X102000000Y-85000000D03*
X102000000Y-80000000D03*
X86000000Y-86000000D03*
X102000000Y-82000000D03*
X103000000Y-72000000D03*
%TO.N,/ESP_TXD0*%
X89000000Y-77000000D03*
X89000000Y-66000000D03*
X89000000Y-79000000D03*
X89000000Y-84000000D03*
X89000000Y-73575000D03*
X83775000Y-85000000D03*
%TO.N,/ESP_RXD0*%
X73000000Y-85000000D03*
X83775000Y-84000000D03*
X90000000Y-74000000D03*
X75035000Y-85000000D03*
X90000000Y-66000000D03*
X90000000Y-77000000D03*
X90000000Y-79000000D03*
X90000000Y-83000000D03*
%TO.N,Net-(J3-D-)*%
X113000000Y-73000000D03*
%TO.N,Net-(U1-FB)*%
X76475000Y-75000000D03*
X76000000Y-79000000D03*
X78825000Y-75000000D03*
%TO.N,/ILIM*%
X121000000Y-79000000D03*
X113000000Y-77490000D03*
%TO.N,/TPS_EN*%
X116075000Y-80000000D03*
X114000000Y-80000000D03*
X98215000Y-69410000D03*
X106000000Y-69000000D03*
%TO.N,/TPS_FAULT*%
X97000000Y-72000000D03*
X101000000Y-79000000D03*
X103000000Y-82000000D03*
X116075000Y-81000000D03*
X115000000Y-85000000D03*
X97000000Y-74150000D03*
%TO.N,/LED_WIFI*%
X88425000Y-79530332D03*
X91000000Y-72000000D03*
X91000000Y-74000000D03*
X91000000Y-77000000D03*
%TO.N,/LED_TARGET*%
X94000000Y-74000000D03*
X89000000Y-88000000D03*
X94000000Y-72000000D03*
X90000000Y-85000000D03*
X93030331Y-77969669D03*
X91969669Y-79030331D03*
%TO.N,/LED_UPLOAD*%
X95000000Y-66000000D03*
X94030331Y-78969669D03*
X95000000Y-74000000D03*
X93000000Y-88000000D03*
X92969669Y-80030331D03*
X93000000Y-64000000D03*
X93000000Y-85000000D03*
X91000000Y-63000000D03*
%TO.N,/LED_FAULT*%
X98000000Y-80000000D03*
X97000000Y-88000000D03*
X96000000Y-74000000D03*
X94000000Y-64000000D03*
X97000000Y-85000000D03*
X90000000Y-64000000D03*
X98000000Y-82000000D03*
X96000000Y-66000000D03*
%TO.N,Net-(U2-USB_D-)*%
X108000000Y-66000000D03*
X100000000Y-67000000D03*
%TO.N,Net-(U2-USB_D+)*%
X104000000Y-73000000D03*
X108862500Y-73050000D03*
%TD*%
%TO.N,/+5V_PROTECTED*%
D20*
X118000000Y-78000000D02*
X118000000Y-82000000D01*
X86000000Y-83000000D02*
X83000000Y-83000000D01*
%TO.N,/ESP_EN*%
D21*
X74460000Y-93460000D02*
X74460000Y-91000000D01*
X78000000Y-69000000D02*
X80000000Y-69000000D01*
X75000000Y-94000000D02*
X74460000Y-93460000D01*
X75000000Y-82000000D02*
X75000000Y-70000000D01*
%TO.N,/ESP_BOOT*%
X103000000Y-74000000D02*
X103000000Y-72000000D01*
X83775000Y-86000000D02*
X86000000Y-86000000D01*
X102000000Y-87000000D02*
X102000000Y-85000000D01*
X102000000Y-82000000D02*
X102000000Y-80000000D01*
%TO.N,/ESP_TXD0*%
X88000000Y-85000000D02*
X89000000Y-84000000D01*
X89000000Y-73575000D02*
X89000000Y-66000000D01*
X89000000Y-79000000D02*
X89000000Y-77000000D01*
X83775000Y-85000000D02*
X88000000Y-85000000D01*
%TO.N,/ESP_RXD0*%
X83775000Y-84000000D02*
X88000000Y-84000000D01*
X88000000Y-84000000D02*
X89000000Y-83000000D01*
X90000000Y-79000000D02*
X90000000Y-77000000D01*
X89000000Y-83000000D02*
X90000000Y-83000000D01*
X90000000Y-66000000D02*
X90000000Y-74000000D01*
X73000000Y-85000000D02*
X75035000Y-85000000D01*
%TO.N,Net-(J3-D-)*%
X113575000Y-73575000D02*
X119435000Y-73575000D01*
X119435000Y-73575000D02*
X120510000Y-72500000D01*
X113000000Y-73000000D02*
X113575000Y-73575000D01*
%TO.N,Net-(U1-FB)*%
X76475000Y-75000000D02*
X78825000Y-75000000D01*
X76475000Y-78525000D02*
X76475000Y-75000000D01*
X76000000Y-79000000D02*
X76475000Y-78525000D01*
%TO.N,/ILIM*%
X113215000Y-77275000D02*
X113000000Y-77490000D01*
X119275000Y-77275000D02*
X113215000Y-77275000D01*
X121000000Y-79000000D02*
X119275000Y-77275000D01*
%TO.N,/TPS_EN*%
X114000000Y-80000000D02*
X116075000Y-80000000D01*
X98625000Y-69000000D02*
X98215000Y-69410000D01*
X106000000Y-69000000D02*
X98625000Y-69000000D01*
%TO.N,/TPS_FAULT*%
X102000000Y-79000000D02*
X101000000Y-79000000D01*
X103000000Y-82000000D02*
X103000000Y-80000000D01*
X116075000Y-81000000D02*
X116075000Y-83925000D01*
X103000000Y-80000000D02*
X102000000Y-79000000D01*
X116075000Y-83925000D02*
X115000000Y-85000000D01*
X97000000Y-74150000D02*
X97000000Y-72000000D01*
%TO.N,/LED_WIFI*%
X90238173Y-79575000D02*
X91000000Y-78813173D01*
X91000000Y-74000000D02*
X91000000Y-72000000D01*
X88469668Y-79575000D02*
X90238173Y-79575000D01*
X91000000Y-78813173D02*
X91000000Y-77000000D01*
X88425000Y-79530332D02*
X88469668Y-79575000D01*
%TO.N,/LED_TARGET*%
X94000000Y-74000000D02*
X94000000Y-72000000D01*
X89000000Y-88000000D02*
X90000000Y-87000000D01*
X90000000Y-87000000D02*
X90000000Y-85000000D01*
X91969669Y-79030331D02*
X93030331Y-77969669D01*
%TO.N,/LED_UPLOAD*%
X95000000Y-74000000D02*
X95000000Y-66000000D01*
X92969669Y-80030331D02*
X94030331Y-78969669D01*
X93000000Y-64000000D02*
X92000000Y-64000000D01*
X92000000Y-64000000D02*
X91000000Y-63000000D01*
X93000000Y-88000000D02*
X93000000Y-85000000D01*
%TO.N,/LED_FAULT*%
X90575000Y-64575000D02*
X90000000Y-64000000D01*
X96000000Y-74000000D02*
X96000000Y-66000000D01*
X97000000Y-88000000D02*
X97000000Y-85000000D01*
X94000000Y-64000000D02*
X93425000Y-64575000D01*
X98000000Y-82000000D02*
X98000000Y-80000000D01*
X93425000Y-64575000D02*
X90575000Y-64575000D01*
%TO.N,Net-(U2-USB_D-)*%
X100000000Y-67000000D02*
X101000000Y-66000000D01*
X101000000Y-66000000D02*
X108000000Y-66000000D01*
%TO.N,Net-(U2-USB_D+)*%
X108812500Y-73000000D02*
X108862500Y-73050000D01*
X104000000Y-73000000D02*
X108812500Y-73000000D01*
%TD*%
%TA.AperFunction,Conductor*%
%TO.N,GND*%
G36*
X132003736Y-50500726D02*
G01*
X132293796Y-50518271D01*
X132308659Y-50520076D01*
X132590797Y-50571780D01*
X132605334Y-50575363D01*
X132879182Y-50660698D01*
X132893163Y-50666000D01*
X133154734Y-50783724D01*
X133167987Y-50790680D01*
X133413458Y-50939071D01*
X133425776Y-50947573D01*
X133651573Y-51124474D01*
X133662781Y-51134404D01*
X133865595Y-51337218D01*
X133875525Y-51348426D01*
X134052422Y-51574217D01*
X134060928Y-51586541D01*
X134209319Y-51832012D01*
X134216277Y-51845269D01*
X134333994Y-52106823D01*
X134339304Y-52120825D01*
X134424635Y-52394664D01*
X134428219Y-52409202D01*
X134479923Y-52691340D01*
X134481728Y-52706205D01*
X134499274Y-52996263D01*
X134499500Y-53003750D01*
X134499500Y-91996249D01*
X134499274Y-92003736D01*
X134481728Y-92293794D01*
X134479923Y-92308659D01*
X134428219Y-92590797D01*
X134424635Y-92605335D01*
X134339304Y-92879174D01*
X134333994Y-92893176D01*
X134216277Y-93154730D01*
X134209319Y-93167987D01*
X134060928Y-93413458D01*
X134052422Y-93425782D01*
X133875525Y-93651573D01*
X133865595Y-93662781D01*
X133662781Y-93865595D01*
X133651573Y-93875525D01*
X133425782Y-94052422D01*
X133413458Y-94060928D01*
X133167987Y-94209319D01*
X133154730Y-94216277D01*
X132893176Y-94333994D01*
X132879174Y-94339304D01*
X132605335Y-94424635D01*
X132590797Y-94428219D01*
X132308659Y-94479923D01*
X132293794Y-94481728D01*
X132003736Y-94499274D01*
X131996249Y-94499500D01*
X75845134Y-94499500D01*
X75778095Y-94479815D01*
X75732340Y-94427011D01*
X75722396Y-94357853D01*
X75730573Y-94328047D01*
X75769737Y-94233497D01*
X75800500Y-94078842D01*
X75800500Y-93921158D01*
X75800500Y-93921155D01*
X75800499Y-93921153D01*
X75769738Y-93766510D01*
X75769737Y-93766503D01*
X75726774Y-93662781D01*
X75709395Y-93620823D01*
X75709390Y-93620814D01*
X75621789Y-93489711D01*
X75621786Y-93489707D01*
X75510292Y-93378213D01*
X75510288Y-93378210D01*
X75379185Y-93290609D01*
X75379172Y-93290602D01*
X75233501Y-93230264D01*
X75233491Y-93230261D01*
X75185308Y-93220677D01*
X75123397Y-93188292D01*
X75088823Y-93127576D01*
X75085500Y-93099060D01*
X75085500Y-92272980D01*
X75105185Y-92205941D01*
X75153208Y-92162494D01*
X75167818Y-92155050D01*
X75339786Y-92030109D01*
X75339788Y-92030106D01*
X75339792Y-92030104D01*
X75490104Y-91879792D01*
X75490106Y-91879788D01*
X75490109Y-91879786D01*
X75615048Y-91707820D01*
X75615047Y-91707820D01*
X75615051Y-91707816D01*
X75619514Y-91699054D01*
X75667488Y-91648259D01*
X75735308Y-91631463D01*
X75801444Y-91653999D01*
X75840486Y-91699056D01*
X75844951Y-91707820D01*
X75969890Y-91879786D01*
X76120213Y-92030109D01*
X76292179Y-92155048D01*
X76292181Y-92155049D01*
X76292184Y-92155051D01*
X76481588Y-92251557D01*
X76683757Y-92317246D01*
X76893713Y-92350500D01*
X76893714Y-92350500D01*
X77106286Y-92350500D01*
X77106287Y-92350500D01*
X77316243Y-92317246D01*
X77518412Y-92251557D01*
X77707816Y-92155051D01*
X77794471Y-92092093D01*
X77879786Y-92030109D01*
X77879788Y-92030106D01*
X77879792Y-92030104D01*
X78030104Y-91879792D01*
X78030106Y-91879788D01*
X78030109Y-91879786D01*
X78155048Y-91707820D01*
X78155047Y-91707820D01*
X78155051Y-91707816D01*
X78251557Y-91518412D01*
X78317246Y-91316243D01*
X78350500Y-91106287D01*
X78350500Y-90893713D01*
X78317246Y-90683757D01*
X78251557Y-90481588D01*
X78155051Y-90292184D01*
X78155049Y-90292181D01*
X78155048Y-90292179D01*
X78030109Y-90120213D01*
X77879790Y-89969894D01*
X77879785Y-89969890D01*
X77754287Y-89878711D01*
X128149500Y-89878711D01*
X128149500Y-90121288D01*
X128181161Y-90361785D01*
X128243947Y-90596104D01*
X128284080Y-90692993D01*
X128336776Y-90820212D01*
X128458064Y-91030289D01*
X128458066Y-91030292D01*
X128458067Y-91030293D01*
X128605733Y-91222736D01*
X128605739Y-91222743D01*
X128777256Y-91394260D01*
X128777262Y-91394265D01*
X128969711Y-91541936D01*
X129179788Y-91663224D01*
X129403900Y-91756054D01*
X129638211Y-91818838D01*
X129818586Y-91842584D01*
X129878711Y-91850500D01*
X129878712Y-91850500D01*
X130121289Y-91850500D01*
X130169388Y-91844167D01*
X130361789Y-91818838D01*
X130596100Y-91756054D01*
X130820212Y-91663224D01*
X131030289Y-91541936D01*
X131222738Y-91394265D01*
X131394265Y-91222738D01*
X131541936Y-91030289D01*
X131663224Y-90820212D01*
X131756054Y-90596100D01*
X131818838Y-90361789D01*
X131850500Y-90121288D01*
X131850500Y-89878712D01*
X131818838Y-89638211D01*
X131756054Y-89403900D01*
X131663224Y-89179788D01*
X131541936Y-88969711D01*
X131412096Y-88800500D01*
X131394266Y-88777263D01*
X131394260Y-88777256D01*
X131222743Y-88605739D01*
X131222736Y-88605733D01*
X131030293Y-88458067D01*
X131030292Y-88458066D01*
X131030289Y-88458064D01*
X130820212Y-88336776D01*
X130820205Y-88336773D01*
X130596104Y-88243947D01*
X130361785Y-88181161D01*
X130121289Y-88149500D01*
X130121288Y-88149500D01*
X129878712Y-88149500D01*
X129878711Y-88149500D01*
X129638214Y-88181161D01*
X129403895Y-88243947D01*
X129179794Y-88336773D01*
X129179785Y-88336777D01*
X128969706Y-88458067D01*
X128777263Y-88605733D01*
X128777256Y-88605739D01*
X128605739Y-88777256D01*
X128605733Y-88777263D01*
X128458067Y-88969706D01*
X128336777Y-89179785D01*
X128336773Y-89179794D01*
X128243947Y-89403895D01*
X128181161Y-89638214D01*
X128149500Y-89878711D01*
X77754287Y-89878711D01*
X77707820Y-89844951D01*
X77518414Y-89748444D01*
X77518413Y-89748443D01*
X77518412Y-89748443D01*
X77316243Y-89682754D01*
X77316241Y-89682753D01*
X77316240Y-89682753D01*
X77154957Y-89657208D01*
X77106287Y-89649500D01*
X76893713Y-89649500D01*
X76845042Y-89657208D01*
X76683760Y-89682753D01*
X76481585Y-89748444D01*
X76292179Y-89844951D01*
X76120213Y-89969890D01*
X75969890Y-90120213D01*
X75844949Y-90292182D01*
X75840484Y-90300946D01*
X75792509Y-90351742D01*
X75724688Y-90368536D01*
X75658553Y-90345998D01*
X75619516Y-90300946D01*
X75615050Y-90292182D01*
X75490109Y-90120213D01*
X75339786Y-89969890D01*
X75167820Y-89844951D01*
X74978414Y-89748444D01*
X74978413Y-89748443D01*
X74978412Y-89748443D01*
X74776243Y-89682754D01*
X74776241Y-89682753D01*
X74776240Y-89682753D01*
X74614957Y-89657208D01*
X74566287Y-89649500D01*
X74353713Y-89649500D01*
X74305042Y-89657208D01*
X74143760Y-89682753D01*
X73941585Y-89748444D01*
X73752179Y-89844951D01*
X73580213Y-89969890D01*
X73429890Y-90120213D01*
X73304949Y-90292182D01*
X73300484Y-90300946D01*
X73252509Y-90351742D01*
X73184688Y-90368536D01*
X73118553Y-90345998D01*
X73079516Y-90300946D01*
X73075050Y-90292182D01*
X72950109Y-90120213D01*
X72799786Y-89969890D01*
X72627820Y-89844951D01*
X72438414Y-89748444D01*
X72438413Y-89748443D01*
X72438412Y-89748443D01*
X72236243Y-89682754D01*
X72236241Y-89682753D01*
X72236240Y-89682753D01*
X72074957Y-89657208D01*
X72026287Y-89649500D01*
X71813713Y-89649500D01*
X71765042Y-89657208D01*
X71603760Y-89682753D01*
X71401585Y-89748444D01*
X71212179Y-89844951D01*
X71040213Y-89969890D01*
X70889890Y-90120213D01*
X70764949Y-90292182D01*
X70760484Y-90300946D01*
X70712509Y-90351742D01*
X70644688Y-90368536D01*
X70578553Y-90345998D01*
X70539516Y-90300946D01*
X70535050Y-90292182D01*
X70410109Y-90120213D01*
X70259786Y-89969890D01*
X70087820Y-89844951D01*
X69898414Y-89748444D01*
X69898413Y-89748443D01*
X69898412Y-89748443D01*
X69696243Y-89682754D01*
X69696241Y-89682753D01*
X69696240Y-89682753D01*
X69534957Y-89657208D01*
X69486287Y-89649500D01*
X69273713Y-89649500D01*
X69225042Y-89657208D01*
X69063760Y-89682753D01*
X68861585Y-89748444D01*
X68672179Y-89844951D01*
X68500213Y-89969890D01*
X68349890Y-90120213D01*
X68224949Y-90292182D01*
X68220484Y-90300946D01*
X68172509Y-90351742D01*
X68104688Y-90368536D01*
X68038553Y-90345998D01*
X67999516Y-90300946D01*
X67995050Y-90292182D01*
X67870109Y-90120213D01*
X67719786Y-89969890D01*
X67547820Y-89844951D01*
X67358414Y-89748444D01*
X67358413Y-89748443D01*
X67358412Y-89748443D01*
X67156243Y-89682754D01*
X67156241Y-89682753D01*
X67156240Y-89682753D01*
X66994957Y-89657208D01*
X66946287Y-89649500D01*
X66733713Y-89649500D01*
X66685042Y-89657208D01*
X66523760Y-89682753D01*
X66321585Y-89748444D01*
X66132179Y-89844951D01*
X65960215Y-89969889D01*
X65846285Y-90083819D01*
X65784962Y-90117303D01*
X65715270Y-90112319D01*
X65659337Y-90070447D01*
X65642422Y-90039470D01*
X65593354Y-89907913D01*
X65593350Y-89907906D01*
X65507190Y-89792812D01*
X65507187Y-89792809D01*
X65392093Y-89706649D01*
X65392086Y-89706645D01*
X65257379Y-89656403D01*
X65257372Y-89656401D01*
X65197844Y-89650000D01*
X64550000Y-89650000D01*
X64550000Y-90566988D01*
X64492993Y-90534075D01*
X64365826Y-90500000D01*
X64234174Y-90500000D01*
X64107007Y-90534075D01*
X64050000Y-90566988D01*
X64050000Y-89650000D01*
X63402155Y-89650000D01*
X63342627Y-89656401D01*
X63342620Y-89656403D01*
X63207913Y-89706645D01*
X63207906Y-89706649D01*
X63092812Y-89792809D01*
X63092809Y-89792812D01*
X63006649Y-89907906D01*
X63006645Y-89907913D01*
X62956403Y-90042620D01*
X62956401Y-90042627D01*
X62950000Y-90102155D01*
X62950000Y-90750000D01*
X63866988Y-90750000D01*
X63834075Y-90807007D01*
X63800000Y-90934174D01*
X63800000Y-91065826D01*
X63834075Y-91192993D01*
X63866988Y-91250000D01*
X62950000Y-91250000D01*
X62950000Y-91897844D01*
X62956401Y-91957372D01*
X62956403Y-91957379D01*
X63006645Y-92092086D01*
X63006649Y-92092093D01*
X63092809Y-92207187D01*
X63092812Y-92207190D01*
X63207906Y-92293350D01*
X63207913Y-92293354D01*
X63342620Y-92343596D01*
X63342627Y-92343598D01*
X63402155Y-92349999D01*
X63402172Y-92350000D01*
X64050000Y-92350000D01*
X64050000Y-91433012D01*
X64107007Y-91465925D01*
X64234174Y-91500000D01*
X64365826Y-91500000D01*
X64492993Y-91465925D01*
X64550000Y-91433012D01*
X64550000Y-92350000D01*
X65197828Y-92350000D01*
X65197844Y-92349999D01*
X65257372Y-92343598D01*
X65257379Y-92343596D01*
X65392086Y-92293354D01*
X65392093Y-92293350D01*
X65507187Y-92207190D01*
X65507190Y-92207187D01*
X65593350Y-92092093D01*
X65593354Y-92092086D01*
X65642422Y-91960529D01*
X65684293Y-91904595D01*
X65749757Y-91880178D01*
X65818030Y-91895030D01*
X65846285Y-91916181D01*
X65960213Y-92030109D01*
X66132179Y-92155048D01*
X66132181Y-92155049D01*
X66132184Y-92155051D01*
X66321588Y-92251557D01*
X66523757Y-92317246D01*
X66733713Y-92350500D01*
X66733714Y-92350500D01*
X66946286Y-92350500D01*
X66946287Y-92350500D01*
X67156243Y-92317246D01*
X67358412Y-92251557D01*
X67547816Y-92155051D01*
X67634471Y-92092093D01*
X67719786Y-92030109D01*
X67719788Y-92030106D01*
X67719792Y-92030104D01*
X67870104Y-91879792D01*
X67870106Y-91879788D01*
X67870109Y-91879786D01*
X67995048Y-91707820D01*
X67995047Y-91707820D01*
X67995051Y-91707816D01*
X67999514Y-91699054D01*
X68047488Y-91648259D01*
X68115308Y-91631463D01*
X68181444Y-91653999D01*
X68220486Y-91699056D01*
X68224951Y-91707820D01*
X68349890Y-91879786D01*
X68500213Y-92030109D01*
X68672179Y-92155048D01*
X68672181Y-92155049D01*
X68672184Y-92155051D01*
X68861588Y-92251557D01*
X69063757Y-92317246D01*
X69273713Y-92350500D01*
X69273714Y-92350500D01*
X69486286Y-92350500D01*
X69486287Y-92350500D01*
X69696243Y-92317246D01*
X69898412Y-92251557D01*
X70087816Y-92155051D01*
X70174471Y-92092093D01*
X70259786Y-92030109D01*
X70259788Y-92030106D01*
X70259792Y-92030104D01*
X70410104Y-91879792D01*
X70410106Y-91879788D01*
X70410109Y-91879786D01*
X70535048Y-91707820D01*
X70535047Y-91707820D01*
X70535051Y-91707816D01*
X70539514Y-91699054D01*
X70587488Y-91648259D01*
X70655308Y-91631463D01*
X70721444Y-91653999D01*
X70760486Y-91699056D01*
X70764951Y-91707820D01*
X70889890Y-91879786D01*
X71040213Y-92030109D01*
X71212179Y-92155048D01*
X71212181Y-92155049D01*
X71212184Y-92155051D01*
X71401588Y-92251557D01*
X71603757Y-92317246D01*
X71813713Y-92350500D01*
X71813714Y-92350500D01*
X72026286Y-92350500D01*
X72026287Y-92350500D01*
X72236243Y-92317246D01*
X72438412Y-92251557D01*
X72627816Y-92155051D01*
X72714471Y-92092093D01*
X72799786Y-92030109D01*
X72799788Y-92030106D01*
X72799792Y-92030104D01*
X72950104Y-91879792D01*
X72950106Y-91879788D01*
X72950109Y-91879786D01*
X73075048Y-91707820D01*
X73075047Y-91707820D01*
X73075051Y-91707816D01*
X73079514Y-91699054D01*
X73127488Y-91648259D01*
X73195308Y-91631463D01*
X73261444Y-91653999D01*
X73300486Y-91699056D01*
X73304951Y-91707820D01*
X73429890Y-91879786D01*
X73580213Y-92030109D01*
X73752181Y-92155050D01*
X73766792Y-92162494D01*
X73817589Y-92210467D01*
X73834500Y-92272980D01*
X73834500Y-93521606D01*
X73854234Y-93620821D01*
X73858537Y-93642451D01*
X73905688Y-93756286D01*
X73905689Y-93756288D01*
X73905690Y-93756289D01*
X73905690Y-93756290D01*
X73931733Y-93795264D01*
X73936092Y-93801787D01*
X73974142Y-93858733D01*
X74061267Y-93945858D01*
X74061269Y-93945859D01*
X74071409Y-93955999D01*
X74174205Y-94058795D01*
X74207690Y-94120118D01*
X74208141Y-94122285D01*
X74230261Y-94233489D01*
X74230263Y-94233497D01*
X74269427Y-94328047D01*
X74276896Y-94397517D01*
X74245621Y-94459996D01*
X74185532Y-94495648D01*
X74154866Y-94499500D01*
X53003751Y-94499500D01*
X52996264Y-94499274D01*
X52706205Y-94481728D01*
X52691340Y-94479923D01*
X52409202Y-94428219D01*
X52394664Y-94424635D01*
X52120825Y-94339304D01*
X52106827Y-94333995D01*
X51883512Y-94233489D01*
X51845269Y-94216277D01*
X51832012Y-94209319D01*
X51586541Y-94060928D01*
X51574217Y-94052422D01*
X51348426Y-93875525D01*
X51337218Y-93865595D01*
X51134404Y-93662781D01*
X51124474Y-93651573D01*
X51022651Y-93521606D01*
X50947573Y-93425776D01*
X50939071Y-93413458D01*
X50790680Y-93167987D01*
X50783722Y-93154730D01*
X50758667Y-93099060D01*
X50666000Y-92893163D01*
X50660698Y-92879182D01*
X50575363Y-92605334D01*
X50571780Y-92590797D01*
X50526479Y-92343598D01*
X50520075Y-92308657D01*
X50518271Y-92293794D01*
X50518244Y-92293354D01*
X50500726Y-92003736D01*
X50500500Y-91996249D01*
X50500500Y-89878711D01*
X53149500Y-89878711D01*
X53149500Y-90121288D01*
X53181161Y-90361785D01*
X53243947Y-90596104D01*
X53284080Y-90692993D01*
X53336776Y-90820212D01*
X53458064Y-91030289D01*
X53458066Y-91030292D01*
X53458067Y-91030293D01*
X53605733Y-91222736D01*
X53605739Y-91222743D01*
X53777256Y-91394260D01*
X53777262Y-91394265D01*
X53969711Y-91541936D01*
X54179788Y-91663224D01*
X54403900Y-91756054D01*
X54638211Y-91818838D01*
X54818586Y-91842584D01*
X54878711Y-91850500D01*
X54878712Y-91850500D01*
X55121289Y-91850500D01*
X55169388Y-91844167D01*
X55361789Y-91818838D01*
X55596100Y-91756054D01*
X55820212Y-91663224D01*
X56030289Y-91541936D01*
X56222738Y-91394265D01*
X56394265Y-91222738D01*
X56541936Y-91030289D01*
X56663224Y-90820212D01*
X56756054Y-90596100D01*
X56818838Y-90361789D01*
X56850500Y-90121288D01*
X56850500Y-89878712D01*
X56818838Y-89638211D01*
X56756054Y-89403900D01*
X56663224Y-89179788D01*
X56541936Y-88969711D01*
X56412096Y-88800500D01*
X56394266Y-88777263D01*
X56394260Y-88777256D01*
X56222743Y-88605739D01*
X56222736Y-88605733D01*
X56030293Y-88458067D01*
X56030292Y-88458066D01*
X56030289Y-88458064D01*
X55820212Y-88336776D01*
X55820205Y-88336773D01*
X55596104Y-88243947D01*
X55361785Y-88181161D01*
X55121289Y-88149500D01*
X55121288Y-88149500D01*
X54878712Y-88149500D01*
X54878711Y-88149500D01*
X54638214Y-88181161D01*
X54403895Y-88243947D01*
X54179794Y-88336773D01*
X54179785Y-88336777D01*
X53969706Y-88458067D01*
X53777263Y-88605733D01*
X53777256Y-88605739D01*
X53605739Y-88777256D01*
X53605733Y-88777263D01*
X53458067Y-88969706D01*
X53336777Y-89179785D01*
X53336773Y-89179794D01*
X53243947Y-89403895D01*
X53181161Y-89638214D01*
X53149500Y-89878711D01*
X50500500Y-89878711D01*
X50500500Y-84921153D01*
X72199500Y-84921153D01*
X72199500Y-85078846D01*
X72230261Y-85233489D01*
X72230264Y-85233501D01*
X72290602Y-85379172D01*
X72290609Y-85379185D01*
X72378210Y-85510288D01*
X72378212Y-85510291D01*
X72489707Y-85621786D01*
X72489711Y-85621789D01*
X72620814Y-85709390D01*
X72620827Y-85709397D01*
X72758683Y-85766498D01*
X72766503Y-85769737D01*
X72921153Y-85800499D01*
X72921156Y-85800500D01*
X72921158Y-85800500D01*
X73078844Y-85800500D01*
X73078845Y-85800499D01*
X73233497Y-85769737D01*
X73379179Y-85709394D01*
X73473459Y-85646398D01*
X73540136Y-85625520D01*
X73542350Y-85625500D01*
X74492650Y-85625500D01*
X74559689Y-85645185D01*
X74561541Y-85646398D01*
X74655821Y-85709394D01*
X74655823Y-85709395D01*
X74655827Y-85709397D01*
X74793683Y-85766498D01*
X74801503Y-85769737D01*
X74956153Y-85800499D01*
X74956156Y-85800500D01*
X74956158Y-85800500D01*
X75113844Y-85800500D01*
X75113845Y-85800499D01*
X75268497Y-85769737D01*
X75414179Y-85709394D01*
X75545289Y-85621789D01*
X75598187Y-85568891D01*
X75656788Y-85510291D01*
X75656789Y-85510289D01*
X75744394Y-85379179D01*
X75804737Y-85233497D01*
X75835500Y-85078842D01*
X75835500Y-84921158D01*
X75835500Y-84921155D01*
X75835499Y-84921153D01*
X75804738Y-84766510D01*
X75804737Y-84766503D01*
X75804735Y-84766498D01*
X75744397Y-84620827D01*
X75744390Y-84620814D01*
X75656789Y-84489711D01*
X75656786Y-84489707D01*
X75545292Y-84378213D01*
X75545288Y-84378210D01*
X75414185Y-84290609D01*
X75414172Y-84290602D01*
X75268501Y-84230264D01*
X75268489Y-84230261D01*
X75113845Y-84199500D01*
X75113842Y-84199500D01*
X74956158Y-84199500D01*
X74956155Y-84199500D01*
X74801510Y-84230261D01*
X74801498Y-84230264D01*
X74655827Y-84290602D01*
X74655815Y-84290609D01*
X74561541Y-84353602D01*
X74494864Y-84374480D01*
X74492650Y-84374500D01*
X73542350Y-84374500D01*
X73475311Y-84354815D01*
X73473459Y-84353602D01*
X73379184Y-84290609D01*
X73379172Y-84290602D01*
X73233501Y-84230264D01*
X73233489Y-84230261D01*
X73078845Y-84199500D01*
X73078842Y-84199500D01*
X72921158Y-84199500D01*
X72921155Y-84199500D01*
X72766510Y-84230261D01*
X72766498Y-84230264D01*
X72620827Y-84290602D01*
X72620814Y-84290609D01*
X72489711Y-84378210D01*
X72489707Y-84378213D01*
X72378213Y-84489707D01*
X72378210Y-84489711D01*
X72290609Y-84620814D01*
X72290602Y-84620827D01*
X72230264Y-84766498D01*
X72230261Y-84766510D01*
X72199500Y-84921153D01*
X50500500Y-84921153D01*
X50500500Y-82911304D01*
X82099500Y-82911304D01*
X82099500Y-83088695D01*
X82134103Y-83262658D01*
X82134106Y-83262667D01*
X82201983Y-83426540D01*
X82201990Y-83426553D01*
X82300535Y-83574034D01*
X82300538Y-83574038D01*
X82425961Y-83699461D01*
X82425965Y-83699464D01*
X82573446Y-83798009D01*
X82573459Y-83798016D01*
X82696363Y-83848923D01*
X82737334Y-83865894D01*
X82737336Y-83865894D01*
X82737341Y-83865896D01*
X82843241Y-83886960D01*
X82874691Y-83893216D01*
X82936602Y-83925600D01*
X82971176Y-83986316D01*
X82974500Y-84014833D01*
X82974500Y-84078846D01*
X83005261Y-84233489D01*
X83005264Y-84233501D01*
X83065602Y-84379172D01*
X83065609Y-84379185D01*
X83100304Y-84431109D01*
X83121182Y-84497786D01*
X83102698Y-84565167D01*
X83100304Y-84568891D01*
X83065609Y-84620814D01*
X83065602Y-84620827D01*
X83005264Y-84766498D01*
X83005261Y-84766510D01*
X82974500Y-84921153D01*
X82974500Y-85078846D01*
X83005261Y-85233489D01*
X83005264Y-85233501D01*
X83065602Y-85379172D01*
X83065609Y-85379185D01*
X83100304Y-85431109D01*
X83121182Y-85497786D01*
X83102698Y-85565167D01*
X83100304Y-85568891D01*
X83065609Y-85620814D01*
X83065602Y-85620827D01*
X83005264Y-85766498D01*
X83005261Y-85766510D01*
X82974500Y-85921153D01*
X82974500Y-86078846D01*
X83005261Y-86233489D01*
X83005264Y-86233501D01*
X83065602Y-86379172D01*
X83065609Y-86379185D01*
X83153210Y-86510288D01*
X83153213Y-86510292D01*
X83264707Y-86621786D01*
X83264711Y-86621789D01*
X83395814Y-86709390D01*
X83395827Y-86709397D01*
X83509753Y-86756586D01*
X83541503Y-86769737D01*
X83696153Y-86800499D01*
X83696156Y-86800500D01*
X83696158Y-86800500D01*
X83853844Y-86800500D01*
X83853845Y-86800499D01*
X84008497Y-86769737D01*
X84154179Y-86709394D01*
X84248459Y-86646398D01*
X84315136Y-86625520D01*
X84317350Y-86625500D01*
X85457650Y-86625500D01*
X85524689Y-86645185D01*
X85526541Y-86646398D01*
X85620821Y-86709394D01*
X85620823Y-86709395D01*
X85620827Y-86709397D01*
X85734753Y-86756586D01*
X85766503Y-86769737D01*
X85921153Y-86800499D01*
X85921156Y-86800500D01*
X85921158Y-86800500D01*
X86078844Y-86800500D01*
X86078845Y-86800499D01*
X86233497Y-86769737D01*
X86379179Y-86709394D01*
X86510289Y-86621789D01*
X86621789Y-86510289D01*
X86709394Y-86379179D01*
X86769737Y-86233497D01*
X86800500Y-86078842D01*
X86800500Y-85921158D01*
X86800500Y-85921155D01*
X86771167Y-85773692D01*
X86777394Y-85704100D01*
X86820257Y-85648923D01*
X86886146Y-85625678D01*
X86892784Y-85625500D01*
X88061607Y-85625500D01*
X88122029Y-85613481D01*
X88182452Y-85601463D01*
X88221398Y-85585331D01*
X88296286Y-85554312D01*
X88362169Y-85510289D01*
X88398733Y-85485858D01*
X88485858Y-85398733D01*
X88485858Y-85398731D01*
X88496066Y-85388524D01*
X88496068Y-85388521D01*
X88987819Y-84896770D01*
X89049142Y-84863285D01*
X89118834Y-84868269D01*
X89174767Y-84910141D01*
X89199184Y-84975605D01*
X89199500Y-84984451D01*
X89199500Y-85078846D01*
X89230261Y-85233489D01*
X89230264Y-85233501D01*
X89290602Y-85379172D01*
X89290609Y-85379184D01*
X89353602Y-85473459D01*
X89374480Y-85540136D01*
X89374500Y-85542350D01*
X89374500Y-86689547D01*
X89354815Y-86756586D01*
X89338181Y-86777228D01*
X88941203Y-87174205D01*
X88879880Y-87207690D01*
X88877714Y-87208141D01*
X88766508Y-87230261D01*
X88766498Y-87230264D01*
X88620827Y-87290602D01*
X88620814Y-87290609D01*
X88489711Y-87378210D01*
X88489707Y-87378213D01*
X88378213Y-87489707D01*
X88378210Y-87489711D01*
X88290609Y-87620814D01*
X88290602Y-87620827D01*
X88230264Y-87766498D01*
X88230261Y-87766510D01*
X88199500Y-87921153D01*
X88199500Y-88078846D01*
X88230261Y-88233489D01*
X88230264Y-88233501D01*
X88290602Y-88379172D01*
X88290609Y-88379185D01*
X88378210Y-88510288D01*
X88378213Y-88510292D01*
X88489707Y-88621786D01*
X88489711Y-88621789D01*
X88620814Y-88709390D01*
X88620827Y-88709397D01*
X88766498Y-88769735D01*
X88766503Y-88769737D01*
X88921153Y-88800499D01*
X88921156Y-88800500D01*
X88921158Y-88800500D01*
X89078844Y-88800500D01*
X89078845Y-88800499D01*
X89233497Y-88769737D01*
X89379179Y-88709394D01*
X89510289Y-88621789D01*
X89621789Y-88510289D01*
X89709394Y-88379179D01*
X89769737Y-88233497D01*
X89791858Y-88122282D01*
X89824240Y-88060375D01*
X89825677Y-88058911D01*
X90485858Y-87398733D01*
X90554312Y-87296285D01*
X90594401Y-87199500D01*
X90601463Y-87182452D01*
X90622072Y-87078842D01*
X90625501Y-87061606D01*
X90625501Y-86938393D01*
X90625501Y-86933283D01*
X90625500Y-86933257D01*
X90625500Y-85542350D01*
X90645185Y-85475311D01*
X90646398Y-85473459D01*
X90696330Y-85398730D01*
X90709394Y-85379179D01*
X90769737Y-85233497D01*
X90800500Y-85078842D01*
X90800500Y-84921158D01*
X90800500Y-84921155D01*
X90800499Y-84921153D01*
X92199500Y-84921153D01*
X92199500Y-85078846D01*
X92230261Y-85233489D01*
X92230264Y-85233501D01*
X92290602Y-85379172D01*
X92290609Y-85379184D01*
X92353602Y-85473459D01*
X92374480Y-85540136D01*
X92374500Y-85542350D01*
X92374500Y-87457650D01*
X92354815Y-87524689D01*
X92353602Y-87526541D01*
X92290609Y-87620815D01*
X92290602Y-87620828D01*
X92230264Y-87766498D01*
X92230261Y-87766510D01*
X92199500Y-87921153D01*
X92199500Y-88078846D01*
X92230261Y-88233489D01*
X92230264Y-88233501D01*
X92290602Y-88379172D01*
X92290609Y-88379185D01*
X92378210Y-88510288D01*
X92378213Y-88510292D01*
X92489707Y-88621786D01*
X92489711Y-88621789D01*
X92620814Y-88709390D01*
X92620827Y-88709397D01*
X92766498Y-88769735D01*
X92766503Y-88769737D01*
X92921153Y-88800499D01*
X92921156Y-88800500D01*
X92921158Y-88800500D01*
X93078844Y-88800500D01*
X93078845Y-88800499D01*
X93233497Y-88769737D01*
X93379179Y-88709394D01*
X93510289Y-88621789D01*
X93621789Y-88510289D01*
X93709394Y-88379179D01*
X93769737Y-88233497D01*
X93800500Y-88078842D01*
X93800500Y-87921158D01*
X93800500Y-87921155D01*
X93800499Y-87921153D01*
X93769738Y-87766510D01*
X93769737Y-87766503D01*
X93709394Y-87620821D01*
X93646397Y-87526539D01*
X93625520Y-87459863D01*
X93625500Y-87457650D01*
X93625500Y-85542350D01*
X93645185Y-85475311D01*
X93646398Y-85473459D01*
X93696330Y-85398730D01*
X93709394Y-85379179D01*
X93769737Y-85233497D01*
X93800500Y-85078842D01*
X93800500Y-84921158D01*
X93800500Y-84921155D01*
X93800499Y-84921153D01*
X96199500Y-84921153D01*
X96199500Y-85078846D01*
X96230261Y-85233489D01*
X96230264Y-85233501D01*
X96290602Y-85379172D01*
X96290609Y-85379184D01*
X96353602Y-85473459D01*
X96374480Y-85540136D01*
X96374500Y-85542350D01*
X96374500Y-87457650D01*
X96354815Y-87524689D01*
X96353602Y-87526541D01*
X96290609Y-87620815D01*
X96290602Y-87620828D01*
X96230264Y-87766498D01*
X96230261Y-87766510D01*
X96199500Y-87921153D01*
X96199500Y-88078846D01*
X96230261Y-88233489D01*
X96230264Y-88233501D01*
X96290602Y-88379172D01*
X96290609Y-88379185D01*
X96378210Y-88510288D01*
X96378213Y-88510292D01*
X96489707Y-88621786D01*
X96489711Y-88621789D01*
X96620814Y-88709390D01*
X96620827Y-88709397D01*
X96766498Y-88769735D01*
X96766503Y-88769737D01*
X96921153Y-88800499D01*
X96921156Y-88800500D01*
X96921158Y-88800500D01*
X97078844Y-88800500D01*
X97078845Y-88800499D01*
X97233497Y-88769737D01*
X97379179Y-88709394D01*
X97510289Y-88621789D01*
X97621789Y-88510289D01*
X97709394Y-88379179D01*
X97769737Y-88233497D01*
X97800500Y-88078842D01*
X97800500Y-87921158D01*
X97800500Y-87921155D01*
X97800499Y-87921153D01*
X97769738Y-87766510D01*
X97769737Y-87766503D01*
X97709394Y-87620821D01*
X97646397Y-87526539D01*
X97625520Y-87459863D01*
X97625500Y-87457650D01*
X97625500Y-85542350D01*
X97645185Y-85475311D01*
X97646398Y-85473459D01*
X97696330Y-85398730D01*
X97709394Y-85379179D01*
X97769737Y-85233497D01*
X97800500Y-85078842D01*
X97800500Y-84921158D01*
X97800500Y-84921155D01*
X97800499Y-84921153D01*
X101199500Y-84921153D01*
X101199500Y-85078846D01*
X101230261Y-85233489D01*
X101230264Y-85233501D01*
X101290602Y-85379172D01*
X101290609Y-85379184D01*
X101353602Y-85473459D01*
X101374480Y-85540136D01*
X101374500Y-85542350D01*
X101374500Y-86457650D01*
X101354815Y-86524689D01*
X101353602Y-86526541D01*
X101290609Y-86620815D01*
X101290602Y-86620828D01*
X101230264Y-86766498D01*
X101230261Y-86766510D01*
X101199500Y-86921153D01*
X101199500Y-87078846D01*
X101230261Y-87233489D01*
X101230264Y-87233501D01*
X101290602Y-87379172D01*
X101290609Y-87379185D01*
X101378210Y-87510288D01*
X101378213Y-87510292D01*
X101489707Y-87621786D01*
X101489711Y-87621789D01*
X101620814Y-87709390D01*
X101620827Y-87709397D01*
X101758683Y-87766498D01*
X101766503Y-87769737D01*
X101921153Y-87800499D01*
X101921156Y-87800500D01*
X101921158Y-87800500D01*
X102078844Y-87800500D01*
X102078845Y-87800499D01*
X102233497Y-87769737D01*
X102379179Y-87709394D01*
X102510289Y-87621789D01*
X102621789Y-87510289D01*
X102709394Y-87379179D01*
X102769737Y-87233497D01*
X102800500Y-87078842D01*
X102800500Y-86921158D01*
X102800500Y-86921155D01*
X102800499Y-86921153D01*
X102769738Y-86766510D01*
X102769737Y-86766503D01*
X102709394Y-86620821D01*
X102646397Y-86526539D01*
X102625520Y-86459863D01*
X102625500Y-86457650D01*
X102625500Y-85542350D01*
X102645185Y-85475311D01*
X102646398Y-85473459D01*
X102696330Y-85398730D01*
X102709394Y-85379179D01*
X102769737Y-85233497D01*
X102800500Y-85078842D01*
X102800500Y-84921158D01*
X102800500Y-84921155D01*
X102800499Y-84921153D01*
X102769738Y-84766510D01*
X102769737Y-84766503D01*
X102769735Y-84766498D01*
X102709397Y-84620827D01*
X102709390Y-84620814D01*
X102621789Y-84489711D01*
X102621786Y-84489707D01*
X102510292Y-84378213D01*
X102510288Y-84378210D01*
X102379185Y-84290609D01*
X102379172Y-84290602D01*
X102233501Y-84230264D01*
X102233489Y-84230261D01*
X102078845Y-84199500D01*
X102078842Y-84199500D01*
X101921158Y-84199500D01*
X101921155Y-84199500D01*
X101766510Y-84230261D01*
X101766498Y-84230264D01*
X101620827Y-84290602D01*
X101620814Y-84290609D01*
X101489711Y-84378210D01*
X101489707Y-84378213D01*
X101378213Y-84489707D01*
X101378210Y-84489711D01*
X101290609Y-84620814D01*
X101290602Y-84620827D01*
X101230264Y-84766498D01*
X101230261Y-84766510D01*
X101199500Y-84921153D01*
X97800499Y-84921153D01*
X97769738Y-84766510D01*
X97769737Y-84766503D01*
X97769735Y-84766498D01*
X97709397Y-84620827D01*
X97709390Y-84620814D01*
X97621789Y-84489711D01*
X97621786Y-84489707D01*
X97510292Y-84378213D01*
X97510288Y-84378210D01*
X97379185Y-84290609D01*
X97379172Y-84290602D01*
X97233501Y-84230264D01*
X97233489Y-84230261D01*
X97078845Y-84199500D01*
X97078842Y-84199500D01*
X96921158Y-84199500D01*
X96921155Y-84199500D01*
X96766510Y-84230261D01*
X96766498Y-84230264D01*
X96620827Y-84290602D01*
X96620814Y-84290609D01*
X96489711Y-84378210D01*
X96489707Y-84378213D01*
X96378213Y-84489707D01*
X96378210Y-84489711D01*
X96290609Y-84620814D01*
X96290602Y-84620827D01*
X96230264Y-84766498D01*
X96230261Y-84766510D01*
X96199500Y-84921153D01*
X93800499Y-84921153D01*
X93769738Y-84766510D01*
X93769737Y-84766503D01*
X93769735Y-84766498D01*
X93709397Y-84620827D01*
X93709390Y-84620814D01*
X93621789Y-84489711D01*
X93621786Y-84489707D01*
X93510292Y-84378213D01*
X93510288Y-84378210D01*
X93379185Y-84290609D01*
X93379172Y-84290602D01*
X93233501Y-84230264D01*
X93233489Y-84230261D01*
X93078845Y-84199500D01*
X93078842Y-84199500D01*
X92921158Y-84199500D01*
X92921155Y-84199500D01*
X92766510Y-84230261D01*
X92766498Y-84230264D01*
X92620827Y-84290602D01*
X92620814Y-84290609D01*
X92489711Y-84378210D01*
X92489707Y-84378213D01*
X92378213Y-84489707D01*
X92378210Y-84489711D01*
X92290609Y-84620814D01*
X92290602Y-84620827D01*
X92230264Y-84766498D01*
X92230261Y-84766510D01*
X92199500Y-84921153D01*
X90800499Y-84921153D01*
X90769738Y-84766510D01*
X90769737Y-84766503D01*
X90769735Y-84766498D01*
X90709397Y-84620827D01*
X90709390Y-84620814D01*
X90621789Y-84489711D01*
X90621786Y-84489707D01*
X90510292Y-84378213D01*
X90510288Y-84378210D01*
X90379185Y-84290609D01*
X90379172Y-84290602D01*
X90233501Y-84230264D01*
X90233489Y-84230261D01*
X90078845Y-84199500D01*
X90078842Y-84199500D01*
X89924500Y-84199500D01*
X89915814Y-84196949D01*
X89906853Y-84198238D01*
X89882812Y-84187259D01*
X89857461Y-84179815D01*
X89851533Y-84172974D01*
X89843297Y-84169213D01*
X89829007Y-84146978D01*
X89811706Y-84127011D01*
X89809418Y-84116496D01*
X89805523Y-84110435D01*
X89800500Y-84075500D01*
X89800500Y-83924500D01*
X89820185Y-83857461D01*
X89872989Y-83811706D01*
X89924500Y-83800500D01*
X90078844Y-83800500D01*
X90078845Y-83800499D01*
X90233497Y-83769737D01*
X90379179Y-83709394D01*
X90510289Y-83621789D01*
X90621789Y-83510289D01*
X90709394Y-83379179D01*
X90769737Y-83233497D01*
X90800500Y-83078842D01*
X90800500Y-82921158D01*
X90800500Y-82921155D01*
X90800499Y-82921153D01*
X90796391Y-82900499D01*
X90769737Y-82766503D01*
X90741968Y-82699461D01*
X90709397Y-82620827D01*
X90709390Y-82620814D01*
X90621789Y-82489711D01*
X90621786Y-82489707D01*
X90510292Y-82378213D01*
X90510288Y-82378210D01*
X90379185Y-82290609D01*
X90379172Y-82290602D01*
X90233501Y-82230264D01*
X90233489Y-82230261D01*
X90078845Y-82199500D01*
X90078842Y-82199500D01*
X89921158Y-82199500D01*
X89921155Y-82199500D01*
X89766510Y-82230261D01*
X89766498Y-82230264D01*
X89620827Y-82290602D01*
X89620815Y-82290609D01*
X89526541Y-82353602D01*
X89459864Y-82374480D01*
X89457650Y-82374500D01*
X89067741Y-82374500D01*
X89067721Y-82374499D01*
X89061607Y-82374499D01*
X88938394Y-82374499D01*
X88837597Y-82394548D01*
X88837592Y-82394548D01*
X88817549Y-82398536D01*
X88778602Y-82414669D01*
X88778601Y-82414669D01*
X88703721Y-82445684D01*
X88703708Y-82445691D01*
X88601267Y-82514141D01*
X88601263Y-82514144D01*
X87777229Y-83338181D01*
X87715906Y-83371666D01*
X87689548Y-83374500D01*
X86994743Y-83374500D01*
X86927704Y-83354815D01*
X86881949Y-83302011D01*
X86872005Y-83232853D01*
X86873126Y-83226308D01*
X86900500Y-83088693D01*
X86900500Y-82911306D01*
X86900499Y-82911304D01*
X86865896Y-82737341D01*
X86865893Y-82737332D01*
X86798016Y-82573459D01*
X86798009Y-82573446D01*
X86699464Y-82425965D01*
X86699461Y-82425961D01*
X86574038Y-82300538D01*
X86574034Y-82300535D01*
X86426553Y-82201990D01*
X86426540Y-82201983D01*
X86262667Y-82134106D01*
X86262658Y-82134103D01*
X86088694Y-82099500D01*
X86088691Y-82099500D01*
X85911309Y-82099500D01*
X85911306Y-82099500D01*
X85737341Y-82134103D01*
X85737337Y-82134105D01*
X85737335Y-82134105D01*
X85737334Y-82134106D01*
X85722953Y-82140062D01*
X85675505Y-82149500D01*
X83324495Y-82149500D01*
X83277046Y-82140062D01*
X83262666Y-82134106D01*
X83262662Y-82134105D01*
X83262658Y-82134103D01*
X83088694Y-82099500D01*
X83088691Y-82099500D01*
X82911309Y-82099500D01*
X82911306Y-82099500D01*
X82737341Y-82134103D01*
X82737332Y-82134106D01*
X82573459Y-82201983D01*
X82573446Y-82201990D01*
X82425965Y-82300535D01*
X82425961Y-82300538D01*
X82300538Y-82425961D01*
X82300535Y-82425965D01*
X82201990Y-82573446D01*
X82201983Y-82573459D01*
X82134106Y-82737332D01*
X82134103Y-82737341D01*
X82099500Y-82911304D01*
X50500500Y-82911304D01*
X50500500Y-76570000D01*
X51680138Y-76570000D01*
X52483012Y-76570000D01*
X52465795Y-76579940D01*
X52409940Y-76635795D01*
X52370444Y-76704204D01*
X52350000Y-76780504D01*
X52350000Y-76859496D01*
X52370444Y-76935796D01*
X52409940Y-77004205D01*
X52465795Y-77060060D01*
X52483012Y-77070000D01*
X51680138Y-77070000D01*
X51688430Y-77111690D01*
X51688430Y-77111692D01*
X51763807Y-77293671D01*
X51763814Y-77293684D01*
X51873248Y-77457462D01*
X51873251Y-77457466D01*
X52012533Y-77596748D01*
X52012537Y-77596751D01*
X52176315Y-77706185D01*
X52176328Y-77706192D01*
X52358306Y-77781569D01*
X52358318Y-77781572D01*
X52551504Y-77819999D01*
X52551508Y-77820000D01*
X52700000Y-77820000D01*
X52700000Y-77120000D01*
X53200000Y-77120000D01*
X53200000Y-77820000D01*
X53348492Y-77820000D01*
X53348495Y-77819999D01*
X53541681Y-77781572D01*
X53541693Y-77781569D01*
X53723671Y-77706192D01*
X53723684Y-77706185D01*
X53887462Y-77596751D01*
X53887466Y-77596748D01*
X54026748Y-77457466D01*
X54026751Y-77457462D01*
X54136185Y-77293684D01*
X54136192Y-77293671D01*
X54211569Y-77111692D01*
X54211569Y-77111690D01*
X54219862Y-77070000D01*
X53416988Y-77070000D01*
X53434205Y-77060060D01*
X53490060Y-77004205D01*
X53529556Y-76935796D01*
X53550000Y-76859496D01*
X53550000Y-76780504D01*
X53529556Y-76704204D01*
X53490060Y-76635795D01*
X53434205Y-76579940D01*
X53416988Y-76570000D01*
X54219862Y-76570000D01*
X55610138Y-76570000D01*
X56413012Y-76570000D01*
X56395795Y-76579940D01*
X56339940Y-76635795D01*
X56300444Y-76704204D01*
X56280000Y-76780504D01*
X56280000Y-76859496D01*
X56300444Y-76935796D01*
X56339940Y-77004205D01*
X56395795Y-77060060D01*
X56413012Y-77070000D01*
X55610138Y-77070000D01*
X55618430Y-77111690D01*
X55618430Y-77111692D01*
X55693807Y-77293671D01*
X55693814Y-77293684D01*
X55803248Y-77457462D01*
X55803251Y-77457466D01*
X55942533Y-77596748D01*
X55942537Y-77596751D01*
X56106315Y-77706185D01*
X56106328Y-77706192D01*
X56288306Y-77781569D01*
X56288318Y-77781572D01*
X56481504Y-77819999D01*
X56481508Y-77820000D01*
X56880000Y-77820000D01*
X56880000Y-77120000D01*
X57380000Y-77120000D01*
X57380000Y-77820000D01*
X57778492Y-77820000D01*
X57778495Y-77819999D01*
X57971681Y-77781572D01*
X57971693Y-77781569D01*
X58153671Y-77706192D01*
X58153684Y-77706185D01*
X58317462Y-77596751D01*
X58317466Y-77596748D01*
X58456748Y-77457466D01*
X58456751Y-77457462D01*
X58566185Y-77293684D01*
X58566192Y-77293671D01*
X58641569Y-77111692D01*
X58641569Y-77111690D01*
X58649862Y-77070000D01*
X57846988Y-77070000D01*
X57864205Y-77060060D01*
X57920060Y-77004205D01*
X57959556Y-76935796D01*
X57980000Y-76859496D01*
X57980000Y-76780504D01*
X57959556Y-76704204D01*
X57920060Y-76635795D01*
X57864205Y-76579940D01*
X57846988Y-76570000D01*
X58649862Y-76570000D01*
X58641569Y-76528309D01*
X58641569Y-76528307D01*
X58566192Y-76346328D01*
X58566185Y-76346315D01*
X58456751Y-76182537D01*
X58456748Y-76182533D01*
X58317466Y-76043251D01*
X58317462Y-76043248D01*
X58153684Y-75933814D01*
X58153671Y-75933807D01*
X57971693Y-75858430D01*
X57971681Y-75858427D01*
X57778495Y-75820000D01*
X57380000Y-75820000D01*
X57380000Y-76520000D01*
X56880000Y-76520000D01*
X56880000Y-75964463D01*
X56899685Y-75897424D01*
X56942000Y-75857076D01*
X56953365Y-75850515D01*
X57060515Y-75743365D01*
X57080127Y-75709397D01*
X57081721Y-75706637D01*
X57136279Y-75612138D01*
X57136281Y-75612135D01*
X57175500Y-75465766D01*
X57175500Y-75314234D01*
X57136281Y-75167865D01*
X57060515Y-75036635D01*
X56953365Y-74929485D01*
X56844179Y-74866446D01*
X56822136Y-74853719D01*
X56748950Y-74834109D01*
X56675766Y-74814500D01*
X56524234Y-74814500D01*
X56377863Y-74853719D01*
X56246635Y-74929485D01*
X56246632Y-74929487D01*
X56139487Y-75036632D01*
X56139485Y-75036635D01*
X56063719Y-75167863D01*
X56049749Y-75220001D01*
X56024500Y-75314234D01*
X56024500Y-75465766D01*
X56036430Y-75510289D01*
X56063719Y-75612136D01*
X56083501Y-75646398D01*
X56139485Y-75743365D01*
X56139487Y-75743367D01*
X56144432Y-75749811D01*
X56141612Y-75751974D01*
X56167302Y-75799020D01*
X56162318Y-75868712D01*
X56120446Y-75924645D01*
X56111379Y-75930416D01*
X56111387Y-75930427D01*
X55942536Y-76043248D01*
X55803251Y-76182533D01*
X55803248Y-76182537D01*
X55693814Y-76346315D01*
X55693807Y-76346328D01*
X55618430Y-76528307D01*
X55618430Y-76528309D01*
X55610138Y-76570000D01*
X54219862Y-76570000D01*
X54211569Y-76528309D01*
X54211569Y-76528307D01*
X54136192Y-76346328D01*
X54136185Y-76346315D01*
X54026751Y-76182537D01*
X54026748Y-76182533D01*
X53887466Y-76043251D01*
X53887462Y-76043248D01*
X53723684Y-75933814D01*
X53723671Y-75933807D01*
X53541693Y-75858430D01*
X53541681Y-75858427D01*
X53348495Y-75820000D01*
X53200000Y-75820000D01*
X53200000Y-76520000D01*
X52700000Y-76520000D01*
X52700000Y-75820000D01*
X52551504Y-75820000D01*
X52358318Y-75858427D01*
X52358306Y-75858430D01*
X52176328Y-75933807D01*
X52176315Y-75933814D01*
X52012537Y-76043248D01*
X52012533Y-76043251D01*
X51873251Y-76182533D01*
X51873248Y-76182537D01*
X51763814Y-76346315D01*
X51763807Y-76346328D01*
X51688430Y-76528307D01*
X51688430Y-76528309D01*
X51680138Y-76570000D01*
X50500500Y-76570000D01*
X50500500Y-67930000D01*
X51680138Y-67930000D01*
X52483012Y-67930000D01*
X52465795Y-67939940D01*
X52409940Y-67995795D01*
X52370444Y-68064204D01*
X52350000Y-68140504D01*
X52350000Y-68219496D01*
X52370444Y-68295796D01*
X52409940Y-68364205D01*
X52465795Y-68420060D01*
X52483012Y-68430000D01*
X51680138Y-68430000D01*
X51688430Y-68471690D01*
X51688430Y-68471692D01*
X51763807Y-68653671D01*
X51763814Y-68653684D01*
X51873248Y-68817462D01*
X51873251Y-68817466D01*
X52012533Y-68956748D01*
X52012537Y-68956751D01*
X52176315Y-69066185D01*
X52176328Y-69066192D01*
X52358306Y-69141569D01*
X52358318Y-69141572D01*
X52551504Y-69179999D01*
X52551508Y-69180000D01*
X52700000Y-69180000D01*
X52700000Y-68480000D01*
X53200000Y-68480000D01*
X53200000Y-69180000D01*
X53348492Y-69180000D01*
X53348495Y-69179999D01*
X53541681Y-69141572D01*
X53541693Y-69141569D01*
X53723671Y-69066192D01*
X53723684Y-69066185D01*
X53887462Y-68956751D01*
X53887466Y-68956748D01*
X54026748Y-68817466D01*
X54026751Y-68817462D01*
X54136185Y-68653684D01*
X54136192Y-68653671D01*
X54211569Y-68471692D01*
X54211569Y-68471690D01*
X54219862Y-68430000D01*
X53416988Y-68430000D01*
X53434205Y-68420060D01*
X53490060Y-68364205D01*
X53529556Y-68295796D01*
X53550000Y-68219496D01*
X53550000Y-68140504D01*
X53529556Y-68064204D01*
X53490060Y-67995795D01*
X53434205Y-67939940D01*
X53416988Y-67930000D01*
X54219862Y-67930000D01*
X55610138Y-67930000D01*
X56413012Y-67930000D01*
X56395795Y-67939940D01*
X56339940Y-67995795D01*
X56300444Y-68064204D01*
X56280000Y-68140504D01*
X56280000Y-68219496D01*
X56300444Y-68295796D01*
X56339940Y-68364205D01*
X56395795Y-68420060D01*
X56413012Y-68430000D01*
X55610138Y-68430000D01*
X55618430Y-68471690D01*
X55618430Y-68471692D01*
X55693807Y-68653671D01*
X55693814Y-68653684D01*
X55803248Y-68817462D01*
X55803251Y-68817466D01*
X55942533Y-68956748D01*
X55942537Y-68956751D01*
X56111387Y-69069574D01*
X56110430Y-69071005D01*
X56154425Y-69114211D01*
X56169895Y-69182346D01*
X56146072Y-69248029D01*
X56144309Y-69250094D01*
X56144432Y-69250189D01*
X56139485Y-69256635D01*
X56063719Y-69387863D01*
X56024500Y-69534234D01*
X56024500Y-69685765D01*
X56063719Y-69832136D01*
X56075803Y-69853065D01*
X56139485Y-69963365D01*
X56246635Y-70070515D01*
X56377865Y-70146281D01*
X56524234Y-70185500D01*
X56524236Y-70185500D01*
X56675764Y-70185500D01*
X56675766Y-70185500D01*
X56822135Y-70146281D01*
X56953365Y-70070515D01*
X57060515Y-69963365D01*
X57084886Y-69921153D01*
X74199500Y-69921153D01*
X74199500Y-70078846D01*
X74230261Y-70233489D01*
X74230264Y-70233501D01*
X74290602Y-70379172D01*
X74290609Y-70379184D01*
X74353602Y-70473459D01*
X74374480Y-70540136D01*
X74374500Y-70542350D01*
X74374500Y-81457650D01*
X74354815Y-81524689D01*
X74353626Y-81526503D01*
X74332802Y-81557668D01*
X74290609Y-81620815D01*
X74290602Y-81620828D01*
X74230264Y-81766498D01*
X74230261Y-81766510D01*
X74199500Y-81921153D01*
X74199500Y-82078846D01*
X74230261Y-82233489D01*
X74230264Y-82233501D01*
X74290602Y-82379172D01*
X74290609Y-82379185D01*
X74378210Y-82510288D01*
X74378213Y-82510292D01*
X74489707Y-82621786D01*
X74489711Y-82621789D01*
X74620814Y-82709390D01*
X74620827Y-82709397D01*
X74758683Y-82766498D01*
X74766503Y-82769737D01*
X74908635Y-82798009D01*
X74921153Y-82800499D01*
X74921156Y-82800500D01*
X74921158Y-82800500D01*
X75078844Y-82800500D01*
X75163805Y-82783600D01*
X75163805Y-82783599D01*
X75233497Y-82769737D01*
X75379179Y-82709394D01*
X75510289Y-82621789D01*
X75621789Y-82510289D01*
X75709394Y-82379179D01*
X75769737Y-82233497D01*
X75800500Y-82078842D01*
X75800500Y-81921158D01*
X75800500Y-81921155D01*
X75800499Y-81921153D01*
X75769738Y-81766510D01*
X75769737Y-81766503D01*
X75709394Y-81620821D01*
X75646397Y-81526539D01*
X75625520Y-81459863D01*
X75625500Y-81457650D01*
X75625500Y-79892784D01*
X75645185Y-79825745D01*
X75697989Y-79779990D01*
X75767147Y-79770046D01*
X75773692Y-79771167D01*
X75921155Y-79800500D01*
X75921158Y-79800500D01*
X76078844Y-79800500D01*
X76078845Y-79800499D01*
X76233497Y-79769737D01*
X76379179Y-79709394D01*
X76510289Y-79621789D01*
X76621789Y-79510289D01*
X76661081Y-79451485D01*
X87624500Y-79451485D01*
X87624500Y-79609178D01*
X87655261Y-79763821D01*
X87655264Y-79763833D01*
X87715602Y-79909504D01*
X87715609Y-79909517D01*
X87803210Y-80040620D01*
X87803213Y-80040624D01*
X87914707Y-80152118D01*
X87914711Y-80152121D01*
X88045814Y-80239722D01*
X88045827Y-80239729D01*
X88104018Y-80263832D01*
X88191503Y-80300069D01*
X88346153Y-80330831D01*
X88346156Y-80330832D01*
X88346158Y-80330832D01*
X88503844Y-80330832D01*
X88503845Y-80330831D01*
X88658497Y-80300069D01*
X88804179Y-80239726D01*
X88813513Y-80233489D01*
X88831610Y-80221398D01*
X88898287Y-80200520D01*
X88900500Y-80200500D01*
X90299781Y-80200500D01*
X90299781Y-80200499D01*
X90390515Y-80182452D01*
X90420625Y-80176463D01*
X90470430Y-80155833D01*
X90534459Y-80129312D01*
X90586707Y-80094400D01*
X90586708Y-80094400D01*
X90625264Y-80068637D01*
X90636906Y-80060858D01*
X90724031Y-79973733D01*
X90724032Y-79973730D01*
X90731098Y-79966665D01*
X90731101Y-79966661D01*
X91165164Y-79532597D01*
X91226485Y-79499114D01*
X91296177Y-79504098D01*
X91342614Y-79537270D01*
X91343572Y-79536313D01*
X91459376Y-79652117D01*
X91459380Y-79652120D01*
X91590483Y-79739721D01*
X91590496Y-79739728D01*
X91666398Y-79771167D01*
X91736172Y-79800068D01*
X91865258Y-79825745D01*
X91890822Y-79830830D01*
X91890825Y-79830831D01*
X92045169Y-79830831D01*
X92112208Y-79850516D01*
X92157963Y-79903320D01*
X92169169Y-79954831D01*
X92169169Y-80109177D01*
X92199930Y-80263820D01*
X92199933Y-80263832D01*
X92260271Y-80409503D01*
X92260278Y-80409516D01*
X92347879Y-80540619D01*
X92347882Y-80540623D01*
X92459376Y-80652117D01*
X92459380Y-80652120D01*
X92590483Y-80739721D01*
X92590496Y-80739728D01*
X92662948Y-80769738D01*
X92736172Y-80800068D01*
X92890822Y-80830830D01*
X92890825Y-80830831D01*
X92890827Y-80830831D01*
X93048513Y-80830831D01*
X93048514Y-80830830D01*
X93203166Y-80800068D01*
X93348848Y-80739725D01*
X93479958Y-80652120D01*
X93591458Y-80540620D01*
X93679063Y-80409510D01*
X93739406Y-80263828D01*
X93761527Y-80152613D01*
X93793909Y-80090706D01*
X93795404Y-80089184D01*
X93963435Y-79921153D01*
X97199500Y-79921153D01*
X97199500Y-80078846D01*
X97230261Y-80233489D01*
X97230264Y-80233501D01*
X97290602Y-80379172D01*
X97290609Y-80379184D01*
X97353602Y-80473459D01*
X97374480Y-80540136D01*
X97374500Y-80542350D01*
X97374500Y-81457650D01*
X97354815Y-81524689D01*
X97353626Y-81526503D01*
X97332802Y-81557668D01*
X97290609Y-81620815D01*
X97290602Y-81620828D01*
X97230264Y-81766498D01*
X97230261Y-81766510D01*
X97199500Y-81921153D01*
X97199500Y-82078846D01*
X97230261Y-82233489D01*
X97230264Y-82233501D01*
X97290602Y-82379172D01*
X97290609Y-82379185D01*
X97378210Y-82510288D01*
X97378213Y-82510292D01*
X97489707Y-82621786D01*
X97489711Y-82621789D01*
X97620814Y-82709390D01*
X97620827Y-82709397D01*
X97758683Y-82766498D01*
X97766503Y-82769737D01*
X97908635Y-82798009D01*
X97921153Y-82800499D01*
X97921156Y-82800500D01*
X97921158Y-82800500D01*
X98078844Y-82800500D01*
X98078845Y-82800499D01*
X98233497Y-82769737D01*
X98379179Y-82709394D01*
X98510289Y-82621789D01*
X98621789Y-82510289D01*
X98709394Y-82379179D01*
X98769737Y-82233497D01*
X98800500Y-82078842D01*
X98800500Y-81921158D01*
X98800500Y-81921155D01*
X98800499Y-81921153D01*
X98769738Y-81766510D01*
X98769737Y-81766503D01*
X98709394Y-81620821D01*
X98646397Y-81526539D01*
X98625520Y-81459863D01*
X98625500Y-81457650D01*
X98625500Y-80542350D01*
X98645185Y-80475311D01*
X98646398Y-80473459D01*
X98689132Y-80409503D01*
X98709394Y-80379179D01*
X98769737Y-80233497D01*
X98800500Y-80078842D01*
X98800500Y-79921158D01*
X98800500Y-79921155D01*
X98800499Y-79921153D01*
X98794856Y-79892784D01*
X98769737Y-79766503D01*
X98733520Y-79679066D01*
X98709397Y-79620827D01*
X98709390Y-79620814D01*
X98621789Y-79489711D01*
X98621786Y-79489707D01*
X98510292Y-79378213D01*
X98510288Y-79378210D01*
X98379185Y-79290609D01*
X98379172Y-79290602D01*
X98233501Y-79230264D01*
X98233489Y-79230261D01*
X98078845Y-79199500D01*
X98078842Y-79199500D01*
X97921158Y-79199500D01*
X97921155Y-79199500D01*
X97766510Y-79230261D01*
X97766498Y-79230264D01*
X97620827Y-79290602D01*
X97620814Y-79290609D01*
X97489711Y-79378210D01*
X97489707Y-79378213D01*
X97378213Y-79489707D01*
X97378210Y-79489711D01*
X97290609Y-79620814D01*
X97290602Y-79620827D01*
X97230264Y-79766498D01*
X97230261Y-79766510D01*
X97199500Y-79921153D01*
X93963435Y-79921153D01*
X94089128Y-79795460D01*
X94150449Y-79761977D01*
X94152459Y-79761558D01*
X94263828Y-79739406D01*
X94409510Y-79679063D01*
X94540620Y-79591458D01*
X94652120Y-79479958D01*
X94739725Y-79348848D01*
X94800068Y-79203166D01*
X94830831Y-79048511D01*
X94830831Y-78921155D01*
X100199500Y-78921155D01*
X100199500Y-79078846D01*
X100230261Y-79233489D01*
X100230264Y-79233501D01*
X100290602Y-79379172D01*
X100290609Y-79379185D01*
X100378210Y-79510288D01*
X100378213Y-79510292D01*
X100489707Y-79621786D01*
X100489711Y-79621789D01*
X100620814Y-79709390D01*
X100620827Y-79709397D01*
X100752249Y-79763833D01*
X100766503Y-79769737D01*
X100918976Y-79800066D01*
X100921153Y-79800499D01*
X100921156Y-79800500D01*
X101075500Y-79800500D01*
X101142539Y-79820185D01*
X101188294Y-79872989D01*
X101199500Y-79924500D01*
X101199500Y-80078846D01*
X101230261Y-80233489D01*
X101230264Y-80233501D01*
X101290602Y-80379172D01*
X101290609Y-80379184D01*
X101353602Y-80473459D01*
X101374480Y-80540136D01*
X101374500Y-80542350D01*
X101374500Y-81457650D01*
X101354815Y-81524689D01*
X101353626Y-81526503D01*
X101332802Y-81557668D01*
X101290609Y-81620815D01*
X101290602Y-81620828D01*
X101230264Y-81766498D01*
X101230261Y-81766510D01*
X101199500Y-81921153D01*
X101199500Y-82078846D01*
X101230261Y-82233489D01*
X101230264Y-82233501D01*
X101290602Y-82379172D01*
X101290609Y-82379185D01*
X101378210Y-82510288D01*
X101378213Y-82510292D01*
X101489707Y-82621786D01*
X101489711Y-82621789D01*
X101620814Y-82709390D01*
X101620827Y-82709397D01*
X101758683Y-82766498D01*
X101766503Y-82769737D01*
X101908635Y-82798009D01*
X101921153Y-82800499D01*
X101921156Y-82800500D01*
X101921158Y-82800500D01*
X102078844Y-82800500D01*
X102078845Y-82800499D01*
X102233497Y-82769737D01*
X102379179Y-82709394D01*
X102431110Y-82674694D01*
X102497785Y-82653816D01*
X102565165Y-82672300D01*
X102568863Y-82674676D01*
X102620821Y-82709394D01*
X102620823Y-82709395D01*
X102620825Y-82709396D01*
X102758683Y-82766498D01*
X102766503Y-82769737D01*
X102908635Y-82798009D01*
X102921153Y-82800499D01*
X102921156Y-82800500D01*
X102921158Y-82800500D01*
X103078844Y-82800500D01*
X103078845Y-82800499D01*
X103233497Y-82769737D01*
X103379179Y-82709394D01*
X103510289Y-82621789D01*
X103621789Y-82510289D01*
X103709394Y-82379179D01*
X103769737Y-82233497D01*
X103800500Y-82078842D01*
X103800500Y-81921158D01*
X103800500Y-81921155D01*
X103800499Y-81921153D01*
X103769738Y-81766510D01*
X103769737Y-81766503D01*
X103709394Y-81620821D01*
X103646397Y-81526539D01*
X103625520Y-81459863D01*
X103625500Y-81457650D01*
X103625500Y-80068637D01*
X103625500Y-80061612D01*
X103625501Y-80061607D01*
X103625501Y-79938394D01*
X103622071Y-79921153D01*
X113199500Y-79921153D01*
X113199500Y-80078846D01*
X113230261Y-80233489D01*
X113230264Y-80233501D01*
X113290602Y-80379172D01*
X113290609Y-80379185D01*
X113378210Y-80510288D01*
X113378213Y-80510292D01*
X113489707Y-80621786D01*
X113489711Y-80621789D01*
X113620814Y-80709390D01*
X113620827Y-80709397D01*
X113694054Y-80739728D01*
X113766503Y-80769737D01*
X113918976Y-80800066D01*
X113921153Y-80800499D01*
X113921156Y-80800500D01*
X113921158Y-80800500D01*
X114078844Y-80800500D01*
X114078845Y-80800499D01*
X114233497Y-80769737D01*
X114379179Y-80709394D01*
X114473459Y-80646398D01*
X114540136Y-80625520D01*
X114542350Y-80625500D01*
X115182216Y-80625500D01*
X115249255Y-80645185D01*
X115295010Y-80697989D01*
X115304954Y-80767147D01*
X115303833Y-80773692D01*
X115274500Y-80921155D01*
X115274500Y-81078846D01*
X115305261Y-81233489D01*
X115305264Y-81233501D01*
X115365602Y-81379172D01*
X115365609Y-81379184D01*
X115428602Y-81473459D01*
X115449480Y-81540136D01*
X115449500Y-81542350D01*
X115449500Y-83614547D01*
X115429815Y-83681586D01*
X115413181Y-83702228D01*
X114941203Y-84174205D01*
X114879880Y-84207690D01*
X114877714Y-84208141D01*
X114766508Y-84230261D01*
X114766498Y-84230264D01*
X114620827Y-84290602D01*
X114620814Y-84290609D01*
X114489711Y-84378210D01*
X114489707Y-84378213D01*
X114378213Y-84489707D01*
X114378210Y-84489711D01*
X114290609Y-84620814D01*
X114290602Y-84620827D01*
X114230264Y-84766498D01*
X114230261Y-84766510D01*
X114199500Y-84921153D01*
X114199500Y-85078846D01*
X114230261Y-85233489D01*
X114230264Y-85233501D01*
X114290602Y-85379172D01*
X114290609Y-85379185D01*
X114378210Y-85510288D01*
X114378212Y-85510291D01*
X114489707Y-85621786D01*
X114489711Y-85621789D01*
X114620814Y-85709390D01*
X114620827Y-85709397D01*
X114758683Y-85766498D01*
X114766503Y-85769737D01*
X114921153Y-85800499D01*
X114921156Y-85800500D01*
X114921158Y-85800500D01*
X115078844Y-85800500D01*
X115078845Y-85800499D01*
X115233497Y-85769737D01*
X115379179Y-85709394D01*
X115510289Y-85621789D01*
X115563187Y-85568891D01*
X115621788Y-85510291D01*
X115621789Y-85510289D01*
X115709394Y-85379179D01*
X115769737Y-85233497D01*
X115791858Y-85122282D01*
X115824240Y-85060375D01*
X115825731Y-85058857D01*
X116560858Y-84323733D01*
X116629312Y-84221285D01*
X116676463Y-84107451D01*
X116700501Y-83986606D01*
X116700501Y-83863393D01*
X116700501Y-83858283D01*
X116700500Y-83858257D01*
X116700500Y-81542350D01*
X116703293Y-81532835D01*
X116702019Y-81523000D01*
X116718714Y-81480319D01*
X116720185Y-81475311D01*
X116720924Y-81474670D01*
X116721398Y-81473459D01*
X116721809Y-81472843D01*
X116784394Y-81379179D01*
X116844737Y-81233497D01*
X116875500Y-81078842D01*
X116875500Y-80921158D01*
X116875500Y-80921155D01*
X116875499Y-80921153D01*
X116844737Y-80766503D01*
X116816358Y-80697989D01*
X116784396Y-80620825D01*
X116784394Y-80620822D01*
X116784394Y-80620821D01*
X116749694Y-80568889D01*
X116728816Y-80502215D01*
X116747300Y-80434835D01*
X116749676Y-80431136D01*
X116784394Y-80379179D01*
X116844737Y-80233497D01*
X116875500Y-80078842D01*
X116875500Y-79921158D01*
X116875500Y-79921155D01*
X116875499Y-79921153D01*
X116869856Y-79892784D01*
X116844737Y-79766503D01*
X116808520Y-79679066D01*
X116784397Y-79620827D01*
X116784390Y-79620814D01*
X116696789Y-79489711D01*
X116696786Y-79489707D01*
X116585292Y-79378213D01*
X116585288Y-79378210D01*
X116454185Y-79290609D01*
X116454172Y-79290602D01*
X116308501Y-79230264D01*
X116308489Y-79230261D01*
X116153845Y-79199500D01*
X116153842Y-79199500D01*
X115996158Y-79199500D01*
X115996155Y-79199500D01*
X115841510Y-79230261D01*
X115841498Y-79230264D01*
X115695827Y-79290602D01*
X115695815Y-79290609D01*
X115601541Y-79353602D01*
X115534864Y-79374480D01*
X115532650Y-79374500D01*
X114542350Y-79374500D01*
X114475311Y-79354815D01*
X114473459Y-79353602D01*
X114379184Y-79290609D01*
X114379172Y-79290602D01*
X114233501Y-79230264D01*
X114233489Y-79230261D01*
X114078845Y-79199500D01*
X114078842Y-79199500D01*
X113921158Y-79199500D01*
X113921155Y-79199500D01*
X113766510Y-79230261D01*
X113766498Y-79230264D01*
X113620827Y-79290602D01*
X113620814Y-79290609D01*
X113489711Y-79378210D01*
X113489707Y-79378213D01*
X113378213Y-79489707D01*
X113378210Y-79489711D01*
X113290609Y-79620814D01*
X113290602Y-79620827D01*
X113230264Y-79766498D01*
X113230261Y-79766510D01*
X113199500Y-79921153D01*
X103622071Y-79921153D01*
X103601463Y-79817549D01*
X103598442Y-79810256D01*
X103579208Y-79763821D01*
X103576570Y-79757451D01*
X103554312Y-79703715D01*
X103554308Y-79703708D01*
X103485858Y-79601267D01*
X103485855Y-79601263D01*
X102496050Y-78611460D01*
X102485859Y-78601269D01*
X102485858Y-78601267D01*
X102398733Y-78514142D01*
X102340071Y-78474945D01*
X102296286Y-78445688D01*
X102206606Y-78408542D01*
X102182452Y-78398537D01*
X102088408Y-78379831D01*
X102085299Y-78379212D01*
X102085285Y-78379209D01*
X102066309Y-78375435D01*
X102061607Y-78374500D01*
X102061606Y-78374500D01*
X101542350Y-78374500D01*
X101475311Y-78354815D01*
X101473459Y-78353602D01*
X101379184Y-78290609D01*
X101379172Y-78290602D01*
X101233501Y-78230264D01*
X101233489Y-78230261D01*
X101078845Y-78199500D01*
X101078842Y-78199500D01*
X100921158Y-78199500D01*
X100921155Y-78199500D01*
X100766510Y-78230261D01*
X100766498Y-78230264D01*
X100620827Y-78290602D01*
X100620814Y-78290609D01*
X100489711Y-78378210D01*
X100489707Y-78378213D01*
X100378213Y-78489707D01*
X100378210Y-78489711D01*
X100290609Y-78620814D01*
X100290602Y-78620827D01*
X100230264Y-78766498D01*
X100230261Y-78766510D01*
X100199501Y-78921149D01*
X100199500Y-78921155D01*
X94830831Y-78921155D01*
X94830831Y-78890827D01*
X94830831Y-78890824D01*
X94830830Y-78890822D01*
X94829528Y-78884275D01*
X94800068Y-78736172D01*
X94788172Y-78707452D01*
X94739728Y-78590496D01*
X94739721Y-78590483D01*
X94652120Y-78459380D01*
X94652117Y-78459376D01*
X94540623Y-78347882D01*
X94540619Y-78347879D01*
X94409516Y-78260278D01*
X94409503Y-78260271D01*
X94263832Y-78199933D01*
X94263820Y-78199930D01*
X94109176Y-78169169D01*
X94109173Y-78169169D01*
X93954831Y-78169169D01*
X93887792Y-78149484D01*
X93842037Y-78096680D01*
X93830831Y-78045169D01*
X93830831Y-77890824D01*
X93830830Y-77890822D01*
X93826525Y-77869179D01*
X93800068Y-77736172D01*
X93787647Y-77706185D01*
X93739728Y-77590496D01*
X93739721Y-77590483D01*
X93661860Y-77473957D01*
X93661859Y-77473955D01*
X93652121Y-77459381D01*
X93652117Y-77459376D01*
X93540623Y-77347882D01*
X93540619Y-77347879D01*
X93409516Y-77260278D01*
X93409503Y-77260271D01*
X93263832Y-77199933D01*
X93263820Y-77199930D01*
X93109176Y-77169169D01*
X93109173Y-77169169D01*
X92951489Y-77169169D01*
X92951486Y-77169169D01*
X92796841Y-77199930D01*
X92796829Y-77199933D01*
X92651158Y-77260271D01*
X92651145Y-77260278D01*
X92520042Y-77347879D01*
X92520038Y-77347882D01*
X92408544Y-77459376D01*
X92408541Y-77459380D01*
X92320940Y-77590483D01*
X92320933Y-77590496D01*
X92260595Y-77736167D01*
X92260592Y-77736177D01*
X92238472Y-77847383D01*
X92206087Y-77909294D01*
X92204536Y-77910872D01*
X91910872Y-78204536D01*
X91894276Y-78213598D01*
X91880666Y-78226731D01*
X91851170Y-78237135D01*
X91849549Y-78238021D01*
X91847382Y-78238472D01*
X91773691Y-78253130D01*
X91704100Y-78246903D01*
X91648922Y-78204040D01*
X91625678Y-78138150D01*
X91625500Y-78131513D01*
X91625500Y-77542350D01*
X91645185Y-77475311D01*
X91646398Y-77473459D01*
X91688026Y-77411158D01*
X91709394Y-77379179D01*
X91769737Y-77233497D01*
X91800500Y-77078842D01*
X91800500Y-76921158D01*
X91800500Y-76921155D01*
X91800499Y-76921153D01*
X91791571Y-76876269D01*
X91769737Y-76766503D01*
X91769735Y-76766498D01*
X91709397Y-76620827D01*
X91709390Y-76620814D01*
X91621789Y-76489711D01*
X91621786Y-76489707D01*
X91510292Y-76378213D01*
X91510288Y-76378210D01*
X91379185Y-76290609D01*
X91379172Y-76290602D01*
X91233501Y-76230264D01*
X91233489Y-76230261D01*
X91078845Y-76199500D01*
X91078842Y-76199500D01*
X90921158Y-76199500D01*
X90921155Y-76199500D01*
X90766510Y-76230261D01*
X90766498Y-76230264D01*
X90620827Y-76290602D01*
X90620814Y-76290609D01*
X90568891Y-76325304D01*
X90502214Y-76346182D01*
X90434833Y-76327698D01*
X90431109Y-76325304D01*
X90379185Y-76290609D01*
X90379172Y-76290602D01*
X90233501Y-76230264D01*
X90233489Y-76230261D01*
X90078845Y-76199500D01*
X90078842Y-76199500D01*
X89921158Y-76199500D01*
X89921155Y-76199500D01*
X89766510Y-76230261D01*
X89766498Y-76230264D01*
X89620827Y-76290602D01*
X89620814Y-76290609D01*
X89568891Y-76325304D01*
X89502214Y-76346182D01*
X89434833Y-76327698D01*
X89431109Y-76325304D01*
X89379185Y-76290609D01*
X89379172Y-76290602D01*
X89233501Y-76230264D01*
X89233489Y-76230261D01*
X89078845Y-76199500D01*
X89078842Y-76199500D01*
X88921158Y-76199500D01*
X88921155Y-76199500D01*
X88766510Y-76230261D01*
X88766498Y-76230264D01*
X88620827Y-76290602D01*
X88620814Y-76290609D01*
X88489711Y-76378210D01*
X88489707Y-76378213D01*
X88378213Y-76489707D01*
X88378210Y-76489711D01*
X88290609Y-76620814D01*
X88290602Y-76620827D01*
X88230264Y-76766498D01*
X88230261Y-76766510D01*
X88199500Y-76921153D01*
X88199500Y-77078846D01*
X88230261Y-77233489D01*
X88230264Y-77233501D01*
X88290602Y-77379172D01*
X88290609Y-77379184D01*
X88353602Y-77473459D01*
X88374480Y-77540136D01*
X88374500Y-77542350D01*
X88374500Y-78457650D01*
X88370667Y-78472434D01*
X88371467Y-78484907D01*
X88361284Y-78508637D01*
X88358888Y-78517883D01*
X88356424Y-78522316D01*
X88290606Y-78620821D01*
X88258181Y-78699101D01*
X88254726Y-78705319D01*
X88234700Y-78725049D01*
X88217058Y-78746942D01*
X88206788Y-78752549D01*
X88204955Y-78754356D01*
X88202560Y-78754858D01*
X88193791Y-78759647D01*
X88045823Y-78820936D01*
X88045814Y-78820941D01*
X87914711Y-78908542D01*
X87914707Y-78908545D01*
X87803213Y-79020039D01*
X87803210Y-79020043D01*
X87715609Y-79151146D01*
X87715602Y-79151159D01*
X87655264Y-79296830D01*
X87655261Y-79296842D01*
X87624500Y-79451485D01*
X76661081Y-79451485D01*
X76709394Y-79379179D01*
X76769737Y-79233497D01*
X76791858Y-79122282D01*
X76824241Y-79060376D01*
X76825794Y-79058795D01*
X76960854Y-78923737D01*
X76960856Y-78923735D01*
X76962585Y-78921149D01*
X77029307Y-78821292D01*
X77029307Y-78821291D01*
X77029311Y-78821286D01*
X77076463Y-78707452D01*
X77085595Y-78661542D01*
X77100500Y-78586607D01*
X77100500Y-78463394D01*
X77100500Y-75749500D01*
X77120185Y-75682461D01*
X77172989Y-75636706D01*
X77224500Y-75625500D01*
X78282650Y-75625500D01*
X78349689Y-75645185D01*
X78351541Y-75646398D01*
X78445821Y-75709394D01*
X78445823Y-75709395D01*
X78445827Y-75709397D01*
X78548619Y-75751974D01*
X78591503Y-75769737D01*
X78738718Y-75799020D01*
X78746153Y-75800499D01*
X78746156Y-75800500D01*
X78746158Y-75800500D01*
X78903844Y-75800500D01*
X78903845Y-75800499D01*
X79058497Y-75769737D01*
X79204179Y-75709394D01*
X79335289Y-75621789D01*
X79446789Y-75510289D01*
X79534394Y-75379179D01*
X79594737Y-75233497D01*
X79625500Y-75078842D01*
X79625500Y-74921158D01*
X79625500Y-74921155D01*
X79625499Y-74921153D01*
X79595788Y-74771789D01*
X79594737Y-74766503D01*
X79588236Y-74750808D01*
X79534397Y-74620827D01*
X79534390Y-74620814D01*
X79446789Y-74489711D01*
X79446786Y-74489707D01*
X79335292Y-74378213D01*
X79335288Y-74378210D01*
X79204185Y-74290609D01*
X79204172Y-74290602D01*
X79058501Y-74230264D01*
X79058489Y-74230261D01*
X78903845Y-74199500D01*
X78903842Y-74199500D01*
X78746158Y-74199500D01*
X78746155Y-74199500D01*
X78591510Y-74230261D01*
X78591498Y-74230264D01*
X78445827Y-74290602D01*
X78445815Y-74290609D01*
X78351541Y-74353602D01*
X78284864Y-74374480D01*
X78282650Y-74374500D01*
X77017350Y-74374500D01*
X76950311Y-74354815D01*
X76948459Y-74353602D01*
X76854184Y-74290609D01*
X76854172Y-74290602D01*
X76708501Y-74230264D01*
X76708489Y-74230261D01*
X76553845Y-74199500D01*
X76553842Y-74199500D01*
X76396158Y-74199500D01*
X76396155Y-74199500D01*
X76241510Y-74230261D01*
X76241498Y-74230264D01*
X76095827Y-74290602D01*
X76095814Y-74290609D01*
X75964711Y-74378210D01*
X75964707Y-74378213D01*
X75853213Y-74489707D01*
X75853206Y-74489716D01*
X75852597Y-74490628D01*
X75852155Y-74490997D01*
X75849347Y-74494419D01*
X75848697Y-74493886D01*
X75798982Y-74535429D01*
X75729656Y-74544132D01*
X75666631Y-74513973D01*
X75629916Y-74454527D01*
X75625500Y-74421730D01*
X75625500Y-70542350D01*
X75645185Y-70475311D01*
X75646398Y-70473459D01*
X75646809Y-70472843D01*
X75709394Y-70379179D01*
X75769737Y-70233497D01*
X75800500Y-70078842D01*
X75800500Y-69921158D01*
X75800500Y-69921155D01*
X75800499Y-69921153D01*
X75786955Y-69853063D01*
X75769737Y-69766503D01*
X75746080Y-69709390D01*
X75709397Y-69620827D01*
X75709390Y-69620814D01*
X75621789Y-69489711D01*
X75621786Y-69489707D01*
X75510292Y-69378213D01*
X75510288Y-69378210D01*
X75379185Y-69290609D01*
X75379172Y-69290602D01*
X75233501Y-69230264D01*
X75233489Y-69230261D01*
X75078845Y-69199500D01*
X75078842Y-69199500D01*
X74921158Y-69199500D01*
X74921155Y-69199500D01*
X74766510Y-69230261D01*
X74766498Y-69230264D01*
X74620827Y-69290602D01*
X74620814Y-69290609D01*
X74489711Y-69378210D01*
X74489707Y-69378213D01*
X74378213Y-69489707D01*
X74378210Y-69489711D01*
X74290609Y-69620814D01*
X74290602Y-69620827D01*
X74230264Y-69766498D01*
X74230261Y-69766510D01*
X74199500Y-69921153D01*
X57084886Y-69921153D01*
X57136281Y-69832135D01*
X57175500Y-69685766D01*
X57175500Y-69534234D01*
X57136281Y-69387865D01*
X57060515Y-69256635D01*
X56953365Y-69149485D01*
X56941998Y-69142922D01*
X56893783Y-69092354D01*
X56880000Y-69035536D01*
X56880000Y-68480000D01*
X57380000Y-68480000D01*
X57380000Y-69180000D01*
X57778492Y-69180000D01*
X57778495Y-69179999D01*
X57971681Y-69141572D01*
X57971693Y-69141569D01*
X58153671Y-69066192D01*
X58153684Y-69066185D01*
X58317462Y-68956751D01*
X58317466Y-68956748D01*
X58353061Y-68921153D01*
X77199500Y-68921153D01*
X77199500Y-69078846D01*
X77230261Y-69233489D01*
X77230264Y-69233501D01*
X77290602Y-69379172D01*
X77290609Y-69379185D01*
X77378210Y-69510288D01*
X77378213Y-69510292D01*
X77489707Y-69621786D01*
X77489711Y-69621789D01*
X77620814Y-69709390D01*
X77620827Y-69709397D01*
X77758683Y-69766498D01*
X77766503Y-69769737D01*
X77921153Y-69800499D01*
X77921156Y-69800500D01*
X77921158Y-69800500D01*
X78078844Y-69800500D01*
X78078845Y-69800499D01*
X78233497Y-69769737D01*
X78379179Y-69709394D01*
X78473459Y-69646398D01*
X78540136Y-69625520D01*
X78542350Y-69625500D01*
X79457650Y-69625500D01*
X79524689Y-69645185D01*
X79526541Y-69646398D01*
X79620821Y-69709394D01*
X79620823Y-69709395D01*
X79620827Y-69709397D01*
X79758683Y-69766498D01*
X79766503Y-69769737D01*
X79921153Y-69800499D01*
X79921156Y-69800500D01*
X79921158Y-69800500D01*
X80078844Y-69800500D01*
X80078845Y-69800499D01*
X80233497Y-69769737D01*
X80379179Y-69709394D01*
X80510289Y-69621789D01*
X80621789Y-69510289D01*
X80709394Y-69379179D01*
X80769737Y-69233497D01*
X80800500Y-69078842D01*
X80800500Y-68921158D01*
X80800500Y-68921155D01*
X80800499Y-68921153D01*
X80774055Y-68788211D01*
X80769737Y-68766503D01*
X80742440Y-68700602D01*
X80709397Y-68620827D01*
X80709390Y-68620814D01*
X80621789Y-68489711D01*
X80621786Y-68489707D01*
X80510292Y-68378213D01*
X80510288Y-68378210D01*
X80379185Y-68290609D01*
X80379172Y-68290602D01*
X80233501Y-68230264D01*
X80233489Y-68230261D01*
X80078845Y-68199500D01*
X80078842Y-68199500D01*
X79921158Y-68199500D01*
X79921155Y-68199500D01*
X79766510Y-68230261D01*
X79766498Y-68230264D01*
X79620827Y-68290602D01*
X79620815Y-68290609D01*
X79526541Y-68353602D01*
X79459864Y-68374480D01*
X79457650Y-68374500D01*
X78542350Y-68374500D01*
X78475311Y-68354815D01*
X78473459Y-68353602D01*
X78379184Y-68290609D01*
X78379172Y-68290602D01*
X78233501Y-68230264D01*
X78233489Y-68230261D01*
X78078845Y-68199500D01*
X78078842Y-68199500D01*
X77921158Y-68199500D01*
X77921155Y-68199500D01*
X77766510Y-68230261D01*
X77766498Y-68230264D01*
X77620827Y-68290602D01*
X77620814Y-68290609D01*
X77489711Y-68378210D01*
X77489707Y-68378213D01*
X77378213Y-68489707D01*
X77378210Y-68489711D01*
X77290609Y-68620814D01*
X77290602Y-68620827D01*
X77230264Y-68766498D01*
X77230261Y-68766510D01*
X77199500Y-68921153D01*
X58353061Y-68921153D01*
X58446830Y-68827385D01*
X58456748Y-68817466D01*
X58456751Y-68817462D01*
X58566185Y-68653684D01*
X58566192Y-68653671D01*
X58641569Y-68471692D01*
X58641569Y-68471690D01*
X58649862Y-68430000D01*
X57846988Y-68430000D01*
X57864205Y-68420060D01*
X57920060Y-68364205D01*
X57959556Y-68295796D01*
X57980000Y-68219496D01*
X57980000Y-68140504D01*
X57959556Y-68064204D01*
X57920060Y-67995795D01*
X57864205Y-67939940D01*
X57846988Y-67930000D01*
X58649862Y-67930000D01*
X58641569Y-67888309D01*
X58641569Y-67888307D01*
X58566192Y-67706328D01*
X58566185Y-67706315D01*
X58456751Y-67542537D01*
X58456748Y-67542533D01*
X58317466Y-67403251D01*
X58317462Y-67403248D01*
X58153684Y-67293814D01*
X58153671Y-67293807D01*
X57971693Y-67218430D01*
X57971681Y-67218427D01*
X57778495Y-67180000D01*
X57380000Y-67180000D01*
X57380000Y-67880000D01*
X56880000Y-67880000D01*
X56880000Y-67180000D01*
X56481504Y-67180000D01*
X56288318Y-67218427D01*
X56288306Y-67218430D01*
X56106328Y-67293807D01*
X56106315Y-67293814D01*
X55942537Y-67403248D01*
X55942533Y-67403251D01*
X55803251Y-67542533D01*
X55803248Y-67542537D01*
X55693814Y-67706315D01*
X55693807Y-67706328D01*
X55618430Y-67888307D01*
X55618430Y-67888309D01*
X55610138Y-67930000D01*
X54219862Y-67930000D01*
X54211569Y-67888309D01*
X54211569Y-67888307D01*
X54136192Y-67706328D01*
X54136185Y-67706315D01*
X54026751Y-67542537D01*
X54026748Y-67542533D01*
X53887466Y-67403251D01*
X53887462Y-67403248D01*
X53723684Y-67293814D01*
X53723671Y-67293807D01*
X53541693Y-67218430D01*
X53541681Y-67218427D01*
X53348495Y-67180000D01*
X53200000Y-67180000D01*
X53200000Y-67880000D01*
X52700000Y-67880000D01*
X52700000Y-67180000D01*
X52551504Y-67180000D01*
X52358318Y-67218427D01*
X52358306Y-67218430D01*
X52176328Y-67293807D01*
X52176315Y-67293814D01*
X52012537Y-67403248D01*
X52012533Y-67403251D01*
X51873251Y-67542533D01*
X51873248Y-67542537D01*
X51763814Y-67706315D01*
X51763807Y-67706328D01*
X51688430Y-67888307D01*
X51688430Y-67888309D01*
X51680138Y-67930000D01*
X50500500Y-67930000D01*
X50500500Y-65921153D01*
X88199500Y-65921153D01*
X88199500Y-66078846D01*
X88230261Y-66233489D01*
X88230264Y-66233501D01*
X88290602Y-66379172D01*
X88290609Y-66379184D01*
X88353602Y-66473459D01*
X88374480Y-66540136D01*
X88374500Y-66542350D01*
X88374500Y-73032650D01*
X88354815Y-73099689D01*
X88353602Y-73101541D01*
X88290609Y-73195815D01*
X88290602Y-73195828D01*
X88230264Y-73341498D01*
X88230261Y-73341510D01*
X88199500Y-73496153D01*
X88199500Y-73653846D01*
X88230261Y-73808489D01*
X88230264Y-73808501D01*
X88290602Y-73954172D01*
X88290609Y-73954185D01*
X88378210Y-74085288D01*
X88378213Y-74085292D01*
X88489707Y-74196786D01*
X88489711Y-74196789D01*
X88620814Y-74284390D01*
X88620827Y-74284397D01*
X88729932Y-74329589D01*
X88766503Y-74344737D01*
X88916030Y-74374480D01*
X88921153Y-74375499D01*
X88921156Y-74375500D01*
X88921158Y-74375500D01*
X89078844Y-74375500D01*
X89182329Y-74354915D01*
X89251921Y-74361142D01*
X89307098Y-74404005D01*
X89309623Y-74407641D01*
X89378210Y-74510288D01*
X89378213Y-74510292D01*
X89489707Y-74621786D01*
X89489711Y-74621789D01*
X89620814Y-74709390D01*
X89620827Y-74709397D01*
X89728225Y-74753882D01*
X89766503Y-74769737D01*
X89921153Y-74800499D01*
X89921156Y-74800500D01*
X89921158Y-74800500D01*
X90078844Y-74800500D01*
X90078845Y-74800499D01*
X90233497Y-74769737D01*
X90379179Y-74709394D01*
X90431110Y-74674694D01*
X90497785Y-74653816D01*
X90565165Y-74672300D01*
X90568863Y-74674676D01*
X90620821Y-74709394D01*
X90620823Y-74709395D01*
X90620825Y-74709396D01*
X90699305Y-74741903D01*
X90766503Y-74769737D01*
X90921153Y-74800499D01*
X90921156Y-74800500D01*
X90921158Y-74800500D01*
X91078844Y-74800500D01*
X91078845Y-74800499D01*
X91233497Y-74769737D01*
X91379179Y-74709394D01*
X91510289Y-74621789D01*
X91621789Y-74510289D01*
X91709394Y-74379179D01*
X91769737Y-74233497D01*
X91800500Y-74078842D01*
X91800500Y-73921158D01*
X91800500Y-73921155D01*
X91800499Y-73921153D01*
X91790918Y-73872987D01*
X91769737Y-73766503D01*
X91732474Y-73676541D01*
X91709397Y-73620828D01*
X91709396Y-73620827D01*
X91709394Y-73620821D01*
X91646397Y-73526539D01*
X91625520Y-73459863D01*
X91625500Y-73457650D01*
X91625500Y-72542350D01*
X91645185Y-72475311D01*
X91646398Y-72473459D01*
X91676630Y-72428213D01*
X91709394Y-72379179D01*
X91769737Y-72233497D01*
X91800500Y-72078842D01*
X91800500Y-71921158D01*
X91800500Y-71921155D01*
X91800499Y-71921153D01*
X93199500Y-71921153D01*
X93199500Y-72078846D01*
X93230261Y-72233489D01*
X93230264Y-72233501D01*
X93290602Y-72379172D01*
X93290609Y-72379184D01*
X93353602Y-72473459D01*
X93374480Y-72540136D01*
X93374500Y-72542350D01*
X93374500Y-73457650D01*
X93354815Y-73524689D01*
X93353602Y-73526541D01*
X93290609Y-73620815D01*
X93290602Y-73620828D01*
X93230264Y-73766498D01*
X93230261Y-73766510D01*
X93199500Y-73921153D01*
X93199500Y-74078846D01*
X93230261Y-74233489D01*
X93230264Y-74233501D01*
X93290602Y-74379172D01*
X93290609Y-74379185D01*
X93378210Y-74510288D01*
X93378213Y-74510292D01*
X93489707Y-74621786D01*
X93489711Y-74621789D01*
X93620814Y-74709390D01*
X93620827Y-74709397D01*
X93728225Y-74753882D01*
X93766503Y-74769737D01*
X93921153Y-74800499D01*
X93921156Y-74800500D01*
X93921158Y-74800500D01*
X94078844Y-74800500D01*
X94078845Y-74800499D01*
X94233497Y-74769737D01*
X94379179Y-74709394D01*
X94431110Y-74674694D01*
X94497785Y-74653816D01*
X94565165Y-74672300D01*
X94568863Y-74674676D01*
X94620821Y-74709394D01*
X94620823Y-74709395D01*
X94620825Y-74709396D01*
X94699305Y-74741903D01*
X94766503Y-74769737D01*
X94921153Y-74800499D01*
X94921156Y-74800500D01*
X94921158Y-74800500D01*
X95078844Y-74800500D01*
X95078845Y-74800499D01*
X95233497Y-74769737D01*
X95379179Y-74709394D01*
X95431110Y-74674694D01*
X95497785Y-74653816D01*
X95565165Y-74672300D01*
X95568863Y-74674676D01*
X95620821Y-74709394D01*
X95620823Y-74709395D01*
X95620825Y-74709396D01*
X95699305Y-74741903D01*
X95766503Y-74769737D01*
X95921153Y-74800499D01*
X95921156Y-74800500D01*
X95921158Y-74800500D01*
X96078844Y-74800500D01*
X96078845Y-74800499D01*
X96233497Y-74769737D01*
X96300695Y-74741903D01*
X96336670Y-74727002D01*
X96406139Y-74719533D01*
X96468618Y-74750808D01*
X96471803Y-74753882D01*
X96489707Y-74771786D01*
X96489711Y-74771789D01*
X96620814Y-74859390D01*
X96620827Y-74859397D01*
X96766498Y-74919735D01*
X96766503Y-74919737D01*
X96921153Y-74950499D01*
X96921156Y-74950500D01*
X96921158Y-74950500D01*
X97078844Y-74950500D01*
X97078845Y-74950499D01*
X97233497Y-74919737D01*
X97379179Y-74859394D01*
X97510289Y-74771789D01*
X97621789Y-74660289D01*
X97709394Y-74529179D01*
X97715693Y-74513973D01*
X97725744Y-74489707D01*
X97769737Y-74383497D01*
X97800500Y-74228842D01*
X97800500Y-74071158D01*
X97800500Y-74071155D01*
X97800499Y-74071153D01*
X97775136Y-73943646D01*
X97769737Y-73916503D01*
X97742398Y-73850500D01*
X97709397Y-73770828D01*
X97709396Y-73770827D01*
X97709394Y-73770821D01*
X97646397Y-73676539D01*
X97625520Y-73609863D01*
X97625500Y-73607650D01*
X97625500Y-72542350D01*
X97645185Y-72475311D01*
X97646398Y-72473459D01*
X97676630Y-72428213D01*
X97709394Y-72379179D01*
X97769737Y-72233497D01*
X97800500Y-72078842D01*
X97800500Y-71921158D01*
X97800500Y-71921155D01*
X97800499Y-71921153D01*
X102199500Y-71921153D01*
X102199500Y-72078846D01*
X102230261Y-72233489D01*
X102230264Y-72233501D01*
X102290602Y-72379172D01*
X102290609Y-72379184D01*
X102353602Y-72473459D01*
X102374480Y-72540136D01*
X102374500Y-72542350D01*
X102374500Y-73457650D01*
X102354815Y-73524689D01*
X102353602Y-73526541D01*
X102290609Y-73620815D01*
X102290602Y-73620828D01*
X102230264Y-73766498D01*
X102230261Y-73766510D01*
X102199500Y-73921153D01*
X102199500Y-74078846D01*
X102230261Y-74233489D01*
X102230264Y-74233501D01*
X102290602Y-74379172D01*
X102290609Y-74379185D01*
X102378210Y-74510288D01*
X102378213Y-74510292D01*
X102489707Y-74621786D01*
X102489711Y-74621789D01*
X102620814Y-74709390D01*
X102620827Y-74709397D01*
X102728225Y-74753882D01*
X102766503Y-74769737D01*
X102921153Y-74800499D01*
X102921156Y-74800500D01*
X102921158Y-74800500D01*
X103078844Y-74800500D01*
X103078845Y-74800499D01*
X103233497Y-74769737D01*
X103379179Y-74709394D01*
X103510289Y-74621789D01*
X103621789Y-74510289D01*
X103709394Y-74379179D01*
X103769737Y-74233497D01*
X103800500Y-74078842D01*
X103800500Y-73924500D01*
X103820185Y-73857461D01*
X103872989Y-73811706D01*
X103924500Y-73800500D01*
X104078844Y-73800500D01*
X104078845Y-73800499D01*
X104233497Y-73769737D01*
X104379179Y-73709394D01*
X104473459Y-73646398D01*
X104540136Y-73625520D01*
X104542350Y-73625500D01*
X108254559Y-73625500D01*
X108321598Y-73645185D01*
X108342240Y-73661819D01*
X108352207Y-73671786D01*
X108352211Y-73671789D01*
X108483314Y-73759390D01*
X108483327Y-73759397D01*
X108609614Y-73811706D01*
X108629003Y-73819737D01*
X108783653Y-73850499D01*
X108783656Y-73850500D01*
X108783658Y-73850500D01*
X108941344Y-73850500D01*
X108941345Y-73850499D01*
X109095997Y-73819737D01*
X109224528Y-73766498D01*
X109241672Y-73759397D01*
X109241672Y-73759396D01*
X109241679Y-73759394D01*
X109372789Y-73671789D01*
X109484289Y-73560289D01*
X109571894Y-73429179D01*
X109632237Y-73283497D01*
X109663000Y-73128842D01*
X109663000Y-72971158D01*
X109663000Y-72971155D01*
X109656655Y-72939258D01*
X109656655Y-72939257D01*
X109653054Y-72921153D01*
X112199500Y-72921153D01*
X112199500Y-73078846D01*
X112230261Y-73233489D01*
X112230264Y-73233501D01*
X112290602Y-73379172D01*
X112290609Y-73379185D01*
X112378210Y-73510288D01*
X112378213Y-73510292D01*
X112489707Y-73621786D01*
X112489711Y-73621789D01*
X112620814Y-73709390D01*
X112620827Y-73709397D01*
X112708230Y-73745599D01*
X112766503Y-73769737D01*
X112877716Y-73791858D01*
X112894470Y-73800622D01*
X112912949Y-73804642D01*
X112937985Y-73823384D01*
X112939623Y-73824241D01*
X112941203Y-73825793D01*
X113086016Y-73970606D01*
X113086045Y-73970637D01*
X113176264Y-74060856D01*
X113176267Y-74060858D01*
X113253190Y-74112256D01*
X113278715Y-74129312D01*
X113332198Y-74151465D01*
X113392548Y-74176463D01*
X113422658Y-74182452D01*
X113513391Y-74200499D01*
X113513392Y-74200500D01*
X114790539Y-74200500D01*
X114857578Y-74220185D01*
X114903333Y-74272989D01*
X114913277Y-74342147D01*
X114894057Y-74389489D01*
X114895485Y-74390364D01*
X114892943Y-74394511D01*
X114780389Y-74615409D01*
X114780388Y-74615412D01*
X114703782Y-74851185D01*
X114665000Y-75096045D01*
X114665000Y-75343954D01*
X114703782Y-75588814D01*
X114780388Y-75824587D01*
X114780389Y-75824590D01*
X114892939Y-76045480D01*
X114963646Y-76142798D01*
X114963646Y-76142799D01*
X115562421Y-75544024D01*
X115575359Y-75575258D01*
X115657437Y-75698097D01*
X115761903Y-75802563D01*
X115884742Y-75884641D01*
X115915974Y-75897578D01*
X115317199Y-76496352D01*
X115318728Y-76515772D01*
X115304363Y-76584149D01*
X115255312Y-76633905D01*
X115195110Y-76649500D01*
X113153389Y-76649500D01*
X113096354Y-76660844D01*
X113096334Y-76660848D01*
X113092971Y-76661518D01*
X113032548Y-76673537D01*
X113008726Y-76683404D01*
X113000260Y-76685584D01*
X112990655Y-76685260D01*
X112969345Y-76689500D01*
X112921155Y-76689500D01*
X112766510Y-76720261D01*
X112766498Y-76720264D01*
X112620827Y-76780602D01*
X112620814Y-76780609D01*
X112489711Y-76868210D01*
X112489707Y-76868213D01*
X112378213Y-76979707D01*
X112378210Y-76979711D01*
X112290609Y-77110814D01*
X112290602Y-77110827D01*
X112230264Y-77256498D01*
X112230261Y-77256510D01*
X112199500Y-77411153D01*
X112199500Y-77568846D01*
X112230261Y-77723489D01*
X112230264Y-77723501D01*
X112290602Y-77869172D01*
X112290609Y-77869185D01*
X112378210Y-78000288D01*
X112378213Y-78000292D01*
X112489707Y-78111786D01*
X112489711Y-78111789D01*
X112620814Y-78199390D01*
X112620827Y-78199397D01*
X112750552Y-78253130D01*
X112766503Y-78259737D01*
X112853501Y-78277042D01*
X112921153Y-78290499D01*
X112921156Y-78290500D01*
X112921158Y-78290500D01*
X113078844Y-78290500D01*
X113078845Y-78290499D01*
X113233497Y-78259737D01*
X113366765Y-78204536D01*
X113379172Y-78199397D01*
X113379172Y-78199396D01*
X113379179Y-78199394D01*
X113510289Y-78111789D01*
X113621789Y-78000289D01*
X113651643Y-77955608D01*
X113705254Y-77910805D01*
X113754745Y-77900500D01*
X116975500Y-77900500D01*
X117042539Y-77920185D01*
X117088294Y-77972989D01*
X117099500Y-78024500D01*
X117099500Y-78088695D01*
X117134104Y-78262658D01*
X117134106Y-78262666D01*
X117140061Y-78277042D01*
X117149500Y-78324495D01*
X117149500Y-81675505D01*
X117147061Y-81687763D01*
X117147981Y-81694855D01*
X117143964Y-81703336D01*
X117140062Y-81722953D01*
X117134106Y-81737334D01*
X117134105Y-81737337D01*
X117134103Y-81737341D01*
X117099500Y-81911304D01*
X117099500Y-82088695D01*
X117134103Y-82262658D01*
X117134106Y-82262667D01*
X117201983Y-82426540D01*
X117201990Y-82426553D01*
X117300535Y-82574034D01*
X117300538Y-82574038D01*
X117425961Y-82699461D01*
X117425965Y-82699464D01*
X117573446Y-82798009D01*
X117573459Y-82798016D01*
X117696363Y-82848923D01*
X117737334Y-82865894D01*
X117737336Y-82865894D01*
X117737341Y-82865896D01*
X117911304Y-82900499D01*
X117911307Y-82900500D01*
X117911309Y-82900500D01*
X118088693Y-82900500D01*
X118088694Y-82900499D01*
X118146682Y-82888964D01*
X118262658Y-82865896D01*
X118262661Y-82865894D01*
X118262666Y-82865894D01*
X118426547Y-82798013D01*
X118574035Y-82699464D01*
X118699464Y-82574035D01*
X118798013Y-82426547D01*
X118865894Y-82262666D01*
X118871696Y-82233501D01*
X118891466Y-82134106D01*
X118900500Y-82088691D01*
X118900500Y-81911309D01*
X118900500Y-81911306D01*
X118900499Y-81911304D01*
X118865896Y-81737341D01*
X118865894Y-81737338D01*
X118865894Y-81737334D01*
X118859937Y-81722953D01*
X118850500Y-81675505D01*
X118850500Y-78324495D01*
X118853106Y-78299209D01*
X118855481Y-78287802D01*
X118865894Y-78262666D01*
X118900500Y-78088691D01*
X118900500Y-78071677D01*
X118903106Y-78059166D01*
X118913796Y-78039168D01*
X118920185Y-78017413D01*
X118929952Y-78008949D01*
X118936047Y-77997549D01*
X118955854Y-77986505D01*
X118972989Y-77971658D01*
X118985782Y-77969818D01*
X118997072Y-77963524D01*
X119019700Y-77964941D01*
X119042147Y-77961714D01*
X119053905Y-77967084D01*
X119066805Y-77967892D01*
X119085075Y-77981318D01*
X119105703Y-77990739D01*
X119112179Y-77996769D01*
X119702016Y-78586607D01*
X120174205Y-79058796D01*
X120207690Y-79120119D01*
X120208141Y-79122286D01*
X120230261Y-79233489D01*
X120230264Y-79233501D01*
X120290602Y-79379172D01*
X120290609Y-79379185D01*
X120378210Y-79510288D01*
X120378213Y-79510292D01*
X120489707Y-79621786D01*
X120489711Y-79621789D01*
X120620814Y-79709390D01*
X120620827Y-79709397D01*
X120752249Y-79763833D01*
X120766503Y-79769737D01*
X120918976Y-79800066D01*
X120921153Y-79800499D01*
X120921156Y-79800500D01*
X120921158Y-79800500D01*
X121078844Y-79800500D01*
X121078845Y-79800499D01*
X121233497Y-79769737D01*
X121379179Y-79709394D01*
X121510289Y-79621789D01*
X121621789Y-79510289D01*
X121709394Y-79379179D01*
X121769737Y-79233497D01*
X121800500Y-79078842D01*
X121800500Y-78921158D01*
X121800500Y-78921155D01*
X121800499Y-78921149D01*
X121779944Y-78817819D01*
X121769737Y-78766503D01*
X121758846Y-78740209D01*
X121709397Y-78620827D01*
X121709390Y-78620814D01*
X121621789Y-78489711D01*
X121621786Y-78489707D01*
X121510292Y-78378213D01*
X121510288Y-78378210D01*
X121379185Y-78290609D01*
X121379172Y-78290602D01*
X121233501Y-78230264D01*
X121233489Y-78230261D01*
X121122286Y-78208141D01*
X121060375Y-78175756D01*
X121058796Y-78174205D01*
X119770822Y-76886232D01*
X119760859Y-76876269D01*
X119760858Y-76876267D01*
X119673733Y-76789142D01*
X119622509Y-76754915D01*
X119571286Y-76720688D01*
X119571283Y-76720686D01*
X119571280Y-76720685D01*
X119497603Y-76690168D01*
X119497601Y-76690167D01*
X119490792Y-76687347D01*
X119457452Y-76673537D01*
X119397029Y-76661518D01*
X119392306Y-76660578D01*
X119392304Y-76660578D01*
X119336610Y-76649500D01*
X119336607Y-76649500D01*
X119336606Y-76649500D01*
X117284889Y-76649500D01*
X117271545Y-76645581D01*
X117257667Y-76646475D01*
X117238682Y-76635932D01*
X117217850Y-76629815D01*
X117208743Y-76619305D01*
X117196584Y-76612553D01*
X117186312Y-76593419D01*
X117172095Y-76577011D01*
X117169439Y-76561986D01*
X117163538Y-76550993D01*
X117161271Y-76515772D01*
X117162799Y-76496352D01*
X116564024Y-75897578D01*
X116595258Y-75884641D01*
X116718097Y-75802563D01*
X116822563Y-75698097D01*
X116904641Y-75575258D01*
X116917578Y-75544025D01*
X117516352Y-76142799D01*
X117516352Y-76142798D01*
X117587060Y-76045480D01*
X117699610Y-75824590D01*
X117699611Y-75824587D01*
X117776217Y-75588814D01*
X117815000Y-75343954D01*
X117815000Y-75096045D01*
X117776217Y-74851185D01*
X117699611Y-74615412D01*
X117699610Y-74615409D01*
X117587056Y-74394511D01*
X117584515Y-74390364D01*
X117586260Y-74389294D01*
X117565664Y-74331597D01*
X117581480Y-74263541D01*
X117631578Y-74214839D01*
X117689461Y-74200500D01*
X119496608Y-74200500D01*
X119496608Y-74200499D01*
X119587342Y-74182452D01*
X119617452Y-74176463D01*
X119650792Y-74162652D01*
X119731286Y-74129312D01*
X119782509Y-74095084D01*
X119833733Y-74060858D01*
X119920858Y-73973733D01*
X119920858Y-73973731D01*
X119931066Y-73963524D01*
X119931068Y-73963521D01*
X120092373Y-73802215D01*
X120153694Y-73768732D01*
X120200410Y-73769249D01*
X120200654Y-73767715D01*
X120220309Y-73770828D01*
X120407648Y-73800500D01*
X120407649Y-73800500D01*
X120612351Y-73800500D01*
X120612352Y-73800500D01*
X120814534Y-73768477D01*
X121009219Y-73705220D01*
X121191610Y-73612287D01*
X121261913Y-73561208D01*
X121327717Y-73537729D01*
X121395771Y-73553554D01*
X121422478Y-73573846D01*
X121491344Y-73642712D01*
X121640666Y-73734814D01*
X121807203Y-73789999D01*
X121909991Y-73800500D01*
X122194325Y-73800499D01*
X122261362Y-73820183D01*
X122307117Y-73872987D01*
X122317941Y-73934227D01*
X122317199Y-73943646D01*
X122915975Y-74542421D01*
X122884742Y-74555359D01*
X122761903Y-74637437D01*
X122657437Y-74741903D01*
X122575359Y-74864742D01*
X122562421Y-74895974D01*
X121963646Y-74297199D01*
X121963644Y-74297200D01*
X121892941Y-74394516D01*
X121780389Y-74615409D01*
X121780388Y-74615412D01*
X121703782Y-74851185D01*
X121665000Y-75096045D01*
X121665000Y-75343954D01*
X121703782Y-75588814D01*
X121780388Y-75824587D01*
X121780389Y-75824590D01*
X121892939Y-76045480D01*
X121963646Y-76142798D01*
X121963647Y-76142799D01*
X122562421Y-75544024D01*
X122575359Y-75575258D01*
X122657437Y-75698097D01*
X122761903Y-75802563D01*
X122884742Y-75884641D01*
X122915974Y-75897578D01*
X122317199Y-76496352D01*
X122414521Y-76567060D01*
X122414527Y-76567064D01*
X122635409Y-76679610D01*
X122635412Y-76679611D01*
X122871185Y-76756217D01*
X123116046Y-76795000D01*
X123363954Y-76795000D01*
X123608814Y-76756217D01*
X123844587Y-76679611D01*
X123844590Y-76679610D01*
X124065480Y-76567060D01*
X124162798Y-76496352D01*
X123564024Y-75897578D01*
X123595258Y-75884641D01*
X123718097Y-75802563D01*
X123822563Y-75698097D01*
X123904641Y-75575258D01*
X123917578Y-75544025D01*
X124516352Y-76142799D01*
X124516352Y-76142798D01*
X124587060Y-76045480D01*
X124699610Y-75824590D01*
X124699611Y-75824587D01*
X124776217Y-75588814D01*
X124815000Y-75343954D01*
X124815000Y-75096045D01*
X124776217Y-74851185D01*
X124699611Y-74615412D01*
X124699610Y-74615409D01*
X124587064Y-74394527D01*
X124587060Y-74394521D01*
X124516352Y-74297200D01*
X124516352Y-74297199D01*
X123917577Y-74895974D01*
X123904641Y-74864742D01*
X123822563Y-74741903D01*
X123718097Y-74637437D01*
X123595258Y-74555359D01*
X123564024Y-74542421D01*
X124162799Y-73943647D01*
X124162798Y-73943646D01*
X124065480Y-73872939D01*
X123844590Y-73760390D01*
X123709331Y-73716441D01*
X123651656Y-73677003D01*
X123624458Y-73612644D01*
X123636373Y-73543798D01*
X123650388Y-73521593D01*
X123652702Y-73518665D01*
X123652712Y-73518656D01*
X123744814Y-73369334D01*
X123799999Y-73202797D01*
X123810500Y-73100009D01*
X123810499Y-71899992D01*
X123799999Y-71797203D01*
X123744814Y-71630666D01*
X123652712Y-71481344D01*
X123652708Y-71481340D01*
X123650384Y-71478401D01*
X123649415Y-71476000D01*
X123648920Y-71475197D01*
X123649057Y-71475112D01*
X123624243Y-71413606D01*
X123637281Y-71344964D01*
X123685361Y-71294267D01*
X123709332Y-71283557D01*
X123844584Y-71239612D01*
X123844590Y-71239610D01*
X124065480Y-71127060D01*
X124162798Y-71056352D01*
X123564024Y-70457578D01*
X123595258Y-70444641D01*
X123718097Y-70362563D01*
X123822563Y-70258097D01*
X123904641Y-70135258D01*
X123917578Y-70104025D01*
X124516352Y-70702799D01*
X124516352Y-70702798D01*
X124587060Y-70605480D01*
X124699610Y-70384590D01*
X124699611Y-70384587D01*
X124776217Y-70148814D01*
X124815000Y-69903954D01*
X124815000Y-69656045D01*
X124776217Y-69411185D01*
X124699611Y-69175412D01*
X124699610Y-69175409D01*
X124587064Y-68954527D01*
X124587060Y-68954521D01*
X124516352Y-68857200D01*
X124516352Y-68857199D01*
X123917577Y-69455974D01*
X123904641Y-69424742D01*
X123822563Y-69301903D01*
X123718097Y-69197437D01*
X123595258Y-69115359D01*
X123564024Y-69102421D01*
X124162799Y-68503647D01*
X124162798Y-68503646D01*
X124065480Y-68432939D01*
X123844590Y-68320389D01*
X123844587Y-68320388D01*
X123608814Y-68243782D01*
X123363954Y-68205000D01*
X123116046Y-68205000D01*
X122871185Y-68243782D01*
X122635412Y-68320388D01*
X122635409Y-68320389D01*
X122414516Y-68432941D01*
X122317200Y-68503644D01*
X122317199Y-68503646D01*
X122915975Y-69102421D01*
X122884742Y-69115359D01*
X122761903Y-69197437D01*
X122657437Y-69301903D01*
X122575359Y-69424742D01*
X122562421Y-69455974D01*
X121963646Y-68857199D01*
X121963644Y-68857200D01*
X121892941Y-68954516D01*
X121780389Y-69175409D01*
X121780388Y-69175412D01*
X121703782Y-69411185D01*
X121665000Y-69656045D01*
X121665000Y-69903954D01*
X121703782Y-70148814D01*
X121780388Y-70384587D01*
X121780389Y-70384590D01*
X121892939Y-70605480D01*
X121963646Y-70702798D01*
X121963647Y-70702799D01*
X122562421Y-70104024D01*
X122575359Y-70135258D01*
X122657437Y-70258097D01*
X122761903Y-70362563D01*
X122884742Y-70444641D01*
X122915974Y-70457578D01*
X122317199Y-71056352D01*
X122317941Y-71065772D01*
X122303576Y-71134149D01*
X122254525Y-71183905D01*
X122194323Y-71199500D01*
X121909999Y-71199500D01*
X121909980Y-71199501D01*
X121807203Y-71210000D01*
X121807200Y-71210001D01*
X121640668Y-71265185D01*
X121640663Y-71265187D01*
X121491345Y-71357287D01*
X121422478Y-71426154D01*
X121361154Y-71459638D01*
X121291463Y-71454653D01*
X121261912Y-71438790D01*
X121191612Y-71387714D01*
X121191608Y-71387712D01*
X121009223Y-71294781D01*
X120814534Y-71231522D01*
X120639995Y-71203878D01*
X120612352Y-71199500D01*
X120407648Y-71199500D01*
X120383329Y-71203351D01*
X120205465Y-71231522D01*
X120010776Y-71294781D01*
X119828386Y-71387715D01*
X119662786Y-71508028D01*
X119662782Y-71508032D01*
X119597681Y-71573134D01*
X119536358Y-71606619D01*
X119466666Y-71601635D01*
X119422319Y-71573134D01*
X119357213Y-71508028D01*
X119191613Y-71387715D01*
X119191612Y-71387714D01*
X119191610Y-71387713D01*
X119131896Y-71357287D01*
X119009223Y-71294781D01*
X118814534Y-71231522D01*
X118639995Y-71203878D01*
X118612352Y-71199500D01*
X118407648Y-71199500D01*
X118383329Y-71203351D01*
X118205465Y-71231522D01*
X118010776Y-71294781D01*
X117828386Y-71387715D01*
X117662786Y-71508028D01*
X117518028Y-71652786D01*
X117397715Y-71818385D01*
X117356140Y-71899981D01*
X117304780Y-72000781D01*
X117304779Y-72000783D01*
X117304778Y-72000786D01*
X117286065Y-72058375D01*
X117255816Y-72107735D01*
X116960302Y-72403249D01*
X116938651Y-72322447D01*
X116878091Y-72217554D01*
X116792446Y-72131909D01*
X116687553Y-72071349D01*
X116606748Y-72049697D01*
X117235922Y-71420524D01*
X117235921Y-71420523D01*
X117191359Y-71388147D01*
X117191345Y-71388138D01*
X117086441Y-71334686D01*
X117035646Y-71286712D01*
X117018851Y-71218891D01*
X117041389Y-71152756D01*
X117069851Y-71123885D01*
X117162798Y-71056353D01*
X117162798Y-71056352D01*
X116564024Y-70457578D01*
X116595258Y-70444641D01*
X116718097Y-70362563D01*
X116822563Y-70258097D01*
X116904641Y-70135258D01*
X116917578Y-70104025D01*
X117516352Y-70702799D01*
X117516352Y-70702798D01*
X117587060Y-70605480D01*
X117699610Y-70384590D01*
X117699611Y-70384587D01*
X117776217Y-70148814D01*
X117815000Y-69903954D01*
X117815000Y-69656045D01*
X117776217Y-69411185D01*
X117699611Y-69175412D01*
X117699610Y-69175409D01*
X117587064Y-68954527D01*
X117587060Y-68954521D01*
X117516352Y-68857200D01*
X117516352Y-68857199D01*
X116917577Y-69455974D01*
X116904641Y-69424742D01*
X116822563Y-69301903D01*
X116718097Y-69197437D01*
X116595258Y-69115359D01*
X116564024Y-69102421D01*
X117162799Y-68503647D01*
X117162798Y-68503646D01*
X117065480Y-68432939D01*
X116844590Y-68320389D01*
X116844587Y-68320388D01*
X116608814Y-68243782D01*
X116363954Y-68205000D01*
X116116046Y-68205000D01*
X115871185Y-68243782D01*
X115635412Y-68320388D01*
X115635409Y-68320389D01*
X115414516Y-68432941D01*
X115317200Y-68503644D01*
X115317199Y-68503646D01*
X115915975Y-69102421D01*
X115884742Y-69115359D01*
X115761903Y-69197437D01*
X115657437Y-69301903D01*
X115575359Y-69424742D01*
X115562421Y-69455974D01*
X114963646Y-68857199D01*
X114963644Y-68857200D01*
X114892941Y-68954516D01*
X114780389Y-69175409D01*
X114780388Y-69175412D01*
X114703782Y-69411185D01*
X114665000Y-69656045D01*
X114665000Y-69903954D01*
X114703782Y-70148814D01*
X114780388Y-70384587D01*
X114780389Y-70384590D01*
X114892939Y-70605480D01*
X114963646Y-70702798D01*
X114963647Y-70702799D01*
X115562421Y-70104024D01*
X115575359Y-70135258D01*
X115657437Y-70258097D01*
X115761903Y-70362563D01*
X115884742Y-70444641D01*
X115915974Y-70457578D01*
X115317199Y-71056352D01*
X115414521Y-71127060D01*
X115414527Y-71127064D01*
X115635409Y-71239610D01*
X115635412Y-71239611D01*
X115701284Y-71261014D01*
X115758959Y-71300451D01*
X115786158Y-71364810D01*
X115786584Y-71388674D01*
X115784077Y-71420524D01*
X116413250Y-72049697D01*
X116332447Y-72071349D01*
X116227554Y-72131909D01*
X116141909Y-72217554D01*
X116081349Y-72322447D01*
X116059697Y-72403250D01*
X115430524Y-71774077D01*
X115430523Y-71774077D01*
X115398143Y-71818644D01*
X115305244Y-72000968D01*
X115242009Y-72195582D01*
X115210000Y-72397682D01*
X115210000Y-72602317D01*
X115242277Y-72806102D01*
X115233323Y-72875395D01*
X115188327Y-72928847D01*
X115121575Y-72949487D01*
X115119804Y-72949500D01*
X113907901Y-72949500D01*
X113840862Y-72929815D01*
X113795107Y-72877011D01*
X113786284Y-72849691D01*
X113779681Y-72816498D01*
X113769737Y-72766503D01*
X113710123Y-72622580D01*
X113709397Y-72620827D01*
X113709390Y-72620814D01*
X113621789Y-72489711D01*
X113621786Y-72489707D01*
X113510292Y-72378213D01*
X113510288Y-72378210D01*
X113379185Y-72290609D01*
X113379172Y-72290602D01*
X113233501Y-72230264D01*
X113233489Y-72230261D01*
X113078845Y-72199500D01*
X113078842Y-72199500D01*
X112921158Y-72199500D01*
X112921155Y-72199500D01*
X112766510Y-72230261D01*
X112766498Y-72230264D01*
X112620827Y-72290602D01*
X112620814Y-72290609D01*
X112489711Y-72378210D01*
X112489707Y-72378213D01*
X112378213Y-72489707D01*
X112378210Y-72489711D01*
X112290609Y-72620814D01*
X112290602Y-72620827D01*
X112230264Y-72766498D01*
X112230261Y-72766510D01*
X112199500Y-72921153D01*
X109653054Y-72921153D01*
X109642444Y-72867821D01*
X109632237Y-72816503D01*
X109611530Y-72766511D01*
X109571897Y-72670827D01*
X109571890Y-72670814D01*
X109484289Y-72539711D01*
X109484286Y-72539707D01*
X109372792Y-72428213D01*
X109372788Y-72428210D01*
X109241685Y-72340609D01*
X109241672Y-72340602D01*
X109096001Y-72280264D01*
X109095989Y-72280261D01*
X108941345Y-72249500D01*
X108941342Y-72249500D01*
X108783658Y-72249500D01*
X108783655Y-72249500D01*
X108629010Y-72280261D01*
X108628998Y-72280264D01*
X108483327Y-72340602D01*
X108483313Y-72340610D01*
X108463872Y-72353601D01*
X108397195Y-72374480D01*
X108394980Y-72374500D01*
X104542350Y-72374500D01*
X104475311Y-72354815D01*
X104473459Y-72353602D01*
X104379184Y-72290609D01*
X104379172Y-72290602D01*
X104233501Y-72230264D01*
X104233489Y-72230261D01*
X104078845Y-72199500D01*
X104078842Y-72199500D01*
X103924500Y-72199500D01*
X103857461Y-72179815D01*
X103811706Y-72127011D01*
X103800500Y-72075500D01*
X103800500Y-71921155D01*
X103800499Y-71921153D01*
X103796288Y-71899981D01*
X103769737Y-71766503D01*
X103727212Y-71663838D01*
X103709397Y-71620827D01*
X103709390Y-71620814D01*
X103621789Y-71489711D01*
X103621786Y-71489707D01*
X103510292Y-71378213D01*
X103510288Y-71378210D01*
X103379185Y-71290609D01*
X103379172Y-71290602D01*
X103233501Y-71230264D01*
X103233489Y-71230261D01*
X103078845Y-71199500D01*
X103078842Y-71199500D01*
X102921158Y-71199500D01*
X102921155Y-71199500D01*
X102766510Y-71230261D01*
X102766498Y-71230264D01*
X102620827Y-71290602D01*
X102620814Y-71290609D01*
X102489711Y-71378210D01*
X102489707Y-71378213D01*
X102378213Y-71489707D01*
X102378210Y-71489711D01*
X102290609Y-71620814D01*
X102290602Y-71620827D01*
X102230264Y-71766498D01*
X102230261Y-71766510D01*
X102199500Y-71921153D01*
X97800499Y-71921153D01*
X97796288Y-71899981D01*
X97769737Y-71766503D01*
X97727212Y-71663838D01*
X97709397Y-71620827D01*
X97709390Y-71620814D01*
X97621789Y-71489711D01*
X97621786Y-71489707D01*
X97510292Y-71378213D01*
X97510288Y-71378210D01*
X97379185Y-71290609D01*
X97379172Y-71290602D01*
X97233501Y-71230264D01*
X97233489Y-71230261D01*
X97078845Y-71199500D01*
X97078842Y-71199500D01*
X96921158Y-71199500D01*
X96921153Y-71199500D01*
X96773691Y-71228832D01*
X96704099Y-71222605D01*
X96648922Y-71179742D01*
X96625678Y-71113852D01*
X96625500Y-71107215D01*
X96625500Y-69331153D01*
X97414500Y-69331153D01*
X97414500Y-69488846D01*
X97445261Y-69643489D01*
X97445264Y-69643501D01*
X97505602Y-69789172D01*
X97505609Y-69789185D01*
X97593210Y-69920288D01*
X97593213Y-69920292D01*
X97704707Y-70031786D01*
X97704711Y-70031789D01*
X97835814Y-70119390D01*
X97835827Y-70119397D01*
X97981498Y-70179735D01*
X97981503Y-70179737D01*
X98136153Y-70210499D01*
X98136156Y-70210500D01*
X98136158Y-70210500D01*
X98293844Y-70210500D01*
X98293845Y-70210499D01*
X98448497Y-70179737D01*
X98594179Y-70119394D01*
X98725289Y-70031789D01*
X98836789Y-69920289D01*
X98924394Y-69789179D01*
X98928196Y-69780000D01*
X98960485Y-69702048D01*
X99004326Y-69647644D01*
X99070620Y-69625579D01*
X99075046Y-69625500D01*
X105457650Y-69625500D01*
X105524689Y-69645185D01*
X105526541Y-69646398D01*
X105620821Y-69709394D01*
X105620823Y-69709395D01*
X105620827Y-69709397D01*
X105758683Y-69766498D01*
X105766503Y-69769737D01*
X105921153Y-69800499D01*
X105921156Y-69800500D01*
X105921158Y-69800500D01*
X106078844Y-69800500D01*
X106078845Y-69800499D01*
X106233497Y-69769737D01*
X106379179Y-69709394D01*
X106510289Y-69621789D01*
X106511264Y-69620814D01*
X106568587Y-69563492D01*
X106621786Y-69510292D01*
X106621789Y-69510289D01*
X106709394Y-69379179D01*
X106769737Y-69233497D01*
X106800500Y-69078842D01*
X106800500Y-68921158D01*
X106800500Y-68921155D01*
X106800499Y-68921153D01*
X106774055Y-68788211D01*
X106769737Y-68766503D01*
X106742440Y-68700602D01*
X106709397Y-68620827D01*
X106709393Y-68620820D01*
X106708713Y-68619802D01*
X106708712Y-68619799D01*
X106708710Y-68619797D01*
X106621789Y-68489711D01*
X106621786Y-68489707D01*
X106510292Y-68378213D01*
X106510288Y-68378210D01*
X106379185Y-68290609D01*
X106379172Y-68290602D01*
X106233501Y-68230264D01*
X106233489Y-68230261D01*
X106078845Y-68199500D01*
X106078842Y-68199500D01*
X105921158Y-68199500D01*
X105921155Y-68199500D01*
X105766510Y-68230261D01*
X105766498Y-68230264D01*
X105620827Y-68290602D01*
X105620815Y-68290609D01*
X105526541Y-68353602D01*
X105459864Y-68374480D01*
X105457650Y-68374500D01*
X98692741Y-68374500D01*
X98692721Y-68374499D01*
X98686607Y-68374499D01*
X98563394Y-68374499D01*
X98462597Y-68394548D01*
X98462592Y-68394548D01*
X98442549Y-68398536D01*
X98442547Y-68398536D01*
X98395397Y-68418067D01*
X98328719Y-68445685D01*
X98328717Y-68445686D01*
X98226270Y-68514139D01*
X98226265Y-68514143D01*
X98156201Y-68584206D01*
X98094877Y-68617691D01*
X98092713Y-68618141D01*
X97981508Y-68640261D01*
X97981498Y-68640264D01*
X97835827Y-68700602D01*
X97835814Y-68700609D01*
X97704711Y-68788210D01*
X97704707Y-68788213D01*
X97593213Y-68899707D01*
X97593210Y-68899711D01*
X97505609Y-69030814D01*
X97505602Y-69030827D01*
X97445264Y-69176498D01*
X97445261Y-69176510D01*
X97414500Y-69331153D01*
X96625500Y-69331153D01*
X96625500Y-66921153D01*
X99199500Y-66921153D01*
X99199500Y-67078846D01*
X99230261Y-67233489D01*
X99230264Y-67233501D01*
X99290602Y-67379172D01*
X99290609Y-67379185D01*
X99378210Y-67510288D01*
X99378213Y-67510292D01*
X99489707Y-67621786D01*
X99489711Y-67621789D01*
X99620814Y-67709390D01*
X99620827Y-67709397D01*
X99766498Y-67769735D01*
X99766503Y-67769737D01*
X99921153Y-67800499D01*
X99921156Y-67800500D01*
X99921158Y-67800500D01*
X100078844Y-67800500D01*
X100078845Y-67800499D01*
X100233497Y-67769737D01*
X100379179Y-67709394D01*
X100510289Y-67621789D01*
X100621789Y-67510289D01*
X100709394Y-67379179D01*
X100769737Y-67233497D01*
X100791858Y-67122282D01*
X100824240Y-67060375D01*
X100825675Y-67058913D01*
X101222773Y-66661816D01*
X101284095Y-66628334D01*
X101310453Y-66625500D01*
X107457650Y-66625500D01*
X107524689Y-66645185D01*
X107526541Y-66646398D01*
X107620821Y-66709394D01*
X107620823Y-66709395D01*
X107620827Y-66709397D01*
X107758683Y-66766498D01*
X107766503Y-66769737D01*
X107921153Y-66800499D01*
X107921156Y-66800500D01*
X107921158Y-66800500D01*
X108078844Y-66800500D01*
X108078845Y-66800499D01*
X108233497Y-66769737D01*
X108379179Y-66709394D01*
X108510289Y-66621789D01*
X108621789Y-66510289D01*
X108709394Y-66379179D01*
X108769737Y-66233497D01*
X108800500Y-66078842D01*
X108800500Y-65921158D01*
X108800500Y-65921155D01*
X108800499Y-65921153D01*
X108769738Y-65766510D01*
X108769737Y-65766503D01*
X108769735Y-65766498D01*
X108709397Y-65620827D01*
X108709390Y-65620814D01*
X108621789Y-65489711D01*
X108621786Y-65489707D01*
X108510292Y-65378213D01*
X108510288Y-65378210D01*
X108379185Y-65290609D01*
X108379172Y-65290602D01*
X108233501Y-65230264D01*
X108233489Y-65230261D01*
X108078845Y-65199500D01*
X108078842Y-65199500D01*
X107921158Y-65199500D01*
X107921155Y-65199500D01*
X107766510Y-65230261D01*
X107766498Y-65230264D01*
X107620827Y-65290602D01*
X107620815Y-65290609D01*
X107526541Y-65353602D01*
X107459864Y-65374480D01*
X107457650Y-65374500D01*
X101067741Y-65374500D01*
X101067721Y-65374499D01*
X101061607Y-65374499D01*
X100938394Y-65374499D01*
X100837597Y-65394548D01*
X100837592Y-65394548D01*
X100817549Y-65398536D01*
X100817547Y-65398536D01*
X100770397Y-65418067D01*
X100703719Y-65445685D01*
X100703717Y-65445686D01*
X100601266Y-65514141D01*
X100601263Y-65514144D01*
X99941203Y-66174205D01*
X99879880Y-66207690D01*
X99877714Y-66208141D01*
X99766508Y-66230261D01*
X99766498Y-66230264D01*
X99620827Y-66290602D01*
X99620814Y-66290609D01*
X99489711Y-66378210D01*
X99489707Y-66378213D01*
X99378213Y-66489707D01*
X99378210Y-66489711D01*
X99290609Y-66620814D01*
X99290602Y-66620827D01*
X99230264Y-66766498D01*
X99230261Y-66766510D01*
X99199500Y-66921153D01*
X96625500Y-66921153D01*
X96625500Y-66542350D01*
X96645185Y-66475311D01*
X96646398Y-66473459D01*
X96646809Y-66472843D01*
X96709394Y-66379179D01*
X96769737Y-66233497D01*
X96800500Y-66078842D01*
X96800500Y-65921158D01*
X96800500Y-65921155D01*
X96800499Y-65921153D01*
X96769738Y-65766510D01*
X96769737Y-65766503D01*
X96769735Y-65766498D01*
X96709397Y-65620827D01*
X96709390Y-65620814D01*
X96621789Y-65489711D01*
X96621786Y-65489707D01*
X96510292Y-65378213D01*
X96510288Y-65378210D01*
X96379185Y-65290609D01*
X96379172Y-65290602D01*
X96233501Y-65230264D01*
X96233489Y-65230261D01*
X96078845Y-65199500D01*
X96078842Y-65199500D01*
X95921158Y-65199500D01*
X95921155Y-65199500D01*
X95766510Y-65230261D01*
X95766498Y-65230264D01*
X95620827Y-65290602D01*
X95620814Y-65290609D01*
X95568891Y-65325304D01*
X95502214Y-65346182D01*
X95434833Y-65327698D01*
X95431109Y-65325304D01*
X95379185Y-65290609D01*
X95379172Y-65290602D01*
X95233501Y-65230264D01*
X95233489Y-65230261D01*
X95078845Y-65199500D01*
X95078842Y-65199500D01*
X94921158Y-65199500D01*
X94921155Y-65199500D01*
X94766510Y-65230261D01*
X94766498Y-65230264D01*
X94620827Y-65290602D01*
X94620814Y-65290609D01*
X94489711Y-65378210D01*
X94489707Y-65378213D01*
X94378213Y-65489707D01*
X94378210Y-65489711D01*
X94290609Y-65620814D01*
X94290602Y-65620827D01*
X94230264Y-65766498D01*
X94230261Y-65766510D01*
X94199500Y-65921153D01*
X94199500Y-66078846D01*
X94230261Y-66233489D01*
X94230264Y-66233501D01*
X94290602Y-66379172D01*
X94290609Y-66379184D01*
X94353602Y-66473459D01*
X94374480Y-66540136D01*
X94374500Y-66542350D01*
X94374500Y-71107215D01*
X94354815Y-71174254D01*
X94302011Y-71220009D01*
X94232853Y-71229953D01*
X94226309Y-71228832D01*
X94078846Y-71199500D01*
X94078842Y-71199500D01*
X93921158Y-71199500D01*
X93921155Y-71199500D01*
X93766510Y-71230261D01*
X93766498Y-71230264D01*
X93620827Y-71290602D01*
X93620814Y-71290609D01*
X93489711Y-71378210D01*
X93489707Y-71378213D01*
X93378213Y-71489707D01*
X93378210Y-71489711D01*
X93290609Y-71620814D01*
X93290602Y-71620827D01*
X93230264Y-71766498D01*
X93230261Y-71766510D01*
X93199500Y-71921153D01*
X91800499Y-71921153D01*
X91796288Y-71899981D01*
X91769737Y-71766503D01*
X91727212Y-71663838D01*
X91709397Y-71620827D01*
X91709390Y-71620814D01*
X91621789Y-71489711D01*
X91621786Y-71489707D01*
X91510292Y-71378213D01*
X91510288Y-71378210D01*
X91379185Y-71290609D01*
X91379172Y-71290602D01*
X91233501Y-71230264D01*
X91233489Y-71230261D01*
X91078845Y-71199500D01*
X91078842Y-71199500D01*
X90921158Y-71199500D01*
X90921153Y-71199500D01*
X90773691Y-71228832D01*
X90704099Y-71222605D01*
X90648922Y-71179742D01*
X90625678Y-71113852D01*
X90625500Y-71107215D01*
X90625500Y-66542350D01*
X90645185Y-66475311D01*
X90646398Y-66473459D01*
X90646809Y-66472843D01*
X90709394Y-66379179D01*
X90769737Y-66233497D01*
X90800500Y-66078842D01*
X90800500Y-65921158D01*
X90800500Y-65921155D01*
X90800499Y-65921153D01*
X90769738Y-65766510D01*
X90769737Y-65766503D01*
X90769735Y-65766498D01*
X90709397Y-65620827D01*
X90709390Y-65620814D01*
X90621789Y-65489711D01*
X90621786Y-65489707D01*
X90544260Y-65412181D01*
X90510775Y-65350858D01*
X90515759Y-65281166D01*
X90557631Y-65225233D01*
X90623095Y-65200816D01*
X90631941Y-65200500D01*
X93486607Y-65200500D01*
X93547029Y-65188481D01*
X93607452Y-65176463D01*
X93640792Y-65162652D01*
X93721286Y-65129312D01*
X93772509Y-65095084D01*
X93823733Y-65060858D01*
X93910858Y-64973733D01*
X93910859Y-64973731D01*
X93917925Y-64966665D01*
X93917928Y-64966661D01*
X94058797Y-64825791D01*
X94120118Y-64792308D01*
X94122128Y-64791889D01*
X94233497Y-64769737D01*
X94379179Y-64709394D01*
X94510289Y-64621789D01*
X94621789Y-64510289D01*
X94709394Y-64379179D01*
X94769737Y-64233497D01*
X94800500Y-64078842D01*
X94800500Y-63921158D01*
X94800500Y-63921155D01*
X94800499Y-63921153D01*
X94769738Y-63766510D01*
X94769737Y-63766503D01*
X94769735Y-63766498D01*
X94709397Y-63620827D01*
X94709390Y-63620814D01*
X94621789Y-63489711D01*
X94621786Y-63489707D01*
X94510292Y-63378213D01*
X94510288Y-63378210D01*
X94379185Y-63290609D01*
X94379172Y-63290602D01*
X94233501Y-63230264D01*
X94233489Y-63230261D01*
X94078845Y-63199500D01*
X94078842Y-63199500D01*
X93921158Y-63199500D01*
X93921155Y-63199500D01*
X93766510Y-63230261D01*
X93766498Y-63230264D01*
X93620827Y-63290602D01*
X93620814Y-63290609D01*
X93568891Y-63325304D01*
X93502214Y-63346182D01*
X93434833Y-63327698D01*
X93431109Y-63325304D01*
X93379185Y-63290609D01*
X93379172Y-63290602D01*
X93233501Y-63230264D01*
X93233489Y-63230261D01*
X93078845Y-63199500D01*
X93078842Y-63199500D01*
X92921158Y-63199500D01*
X92921155Y-63199500D01*
X92766510Y-63230261D01*
X92766498Y-63230264D01*
X92620827Y-63290602D01*
X92620815Y-63290609D01*
X92526541Y-63353602D01*
X92508494Y-63359252D01*
X92492585Y-63369477D01*
X92461625Y-63373928D01*
X92459864Y-63374480D01*
X92457650Y-63374500D01*
X92310453Y-63374500D01*
X92243414Y-63354815D01*
X92222772Y-63338181D01*
X91825793Y-62941203D01*
X91792308Y-62879880D01*
X91791887Y-62877864D01*
X91769737Y-62766503D01*
X91745599Y-62708230D01*
X91709397Y-62620827D01*
X91709390Y-62620814D01*
X91621789Y-62489711D01*
X91621786Y-62489707D01*
X91510292Y-62378213D01*
X91510288Y-62378210D01*
X91379185Y-62290609D01*
X91379172Y-62290602D01*
X91233501Y-62230264D01*
X91233489Y-62230261D01*
X91078845Y-62199500D01*
X91078842Y-62199500D01*
X90921158Y-62199500D01*
X90921155Y-62199500D01*
X90766510Y-62230261D01*
X90766498Y-62230264D01*
X90620827Y-62290602D01*
X90620814Y-62290609D01*
X90489711Y-62378210D01*
X90489707Y-62378213D01*
X90378213Y-62489707D01*
X90378210Y-62489711D01*
X90290609Y-62620814D01*
X90290602Y-62620827D01*
X90230264Y-62766498D01*
X90230261Y-62766510D01*
X90199500Y-62921153D01*
X90199500Y-63075500D01*
X90179815Y-63142539D01*
X90127011Y-63188294D01*
X90075500Y-63199500D01*
X89921155Y-63199500D01*
X89766510Y-63230261D01*
X89766498Y-63230264D01*
X89620827Y-63290602D01*
X89620814Y-63290609D01*
X89489711Y-63378210D01*
X89489707Y-63378213D01*
X89378213Y-63489707D01*
X89378210Y-63489711D01*
X89290609Y-63620814D01*
X89290602Y-63620827D01*
X89230264Y-63766498D01*
X89230261Y-63766510D01*
X89199500Y-63921153D01*
X89199500Y-64078846D01*
X89230261Y-64233489D01*
X89230264Y-64233501D01*
X89290602Y-64379172D01*
X89290609Y-64379185D01*
X89378210Y-64510288D01*
X89378213Y-64510292D01*
X89489707Y-64621786D01*
X89489711Y-64621789D01*
X89620814Y-64709390D01*
X89620827Y-64709397D01*
X89708230Y-64745599D01*
X89766503Y-64769737D01*
X89877716Y-64791858D01*
X89894470Y-64800622D01*
X89912949Y-64804642D01*
X89937985Y-64823384D01*
X89939623Y-64824241D01*
X89941203Y-64825793D01*
X90086016Y-64970606D01*
X90086045Y-64970637D01*
X90103227Y-64987819D01*
X90136712Y-65049142D01*
X90131728Y-65118834D01*
X90089856Y-65174767D01*
X90024392Y-65199184D01*
X90015546Y-65199500D01*
X89921155Y-65199500D01*
X89766510Y-65230261D01*
X89766498Y-65230264D01*
X89620827Y-65290602D01*
X89620814Y-65290609D01*
X89568891Y-65325304D01*
X89502214Y-65346182D01*
X89434833Y-65327698D01*
X89431109Y-65325304D01*
X89379185Y-65290609D01*
X89379172Y-65290602D01*
X89233501Y-65230264D01*
X89233489Y-65230261D01*
X89078845Y-65199500D01*
X89078842Y-65199500D01*
X88921158Y-65199500D01*
X88921155Y-65199500D01*
X88766510Y-65230261D01*
X88766498Y-65230264D01*
X88620827Y-65290602D01*
X88620814Y-65290609D01*
X88489711Y-65378210D01*
X88489707Y-65378213D01*
X88378213Y-65489707D01*
X88378210Y-65489711D01*
X88290609Y-65620814D01*
X88290602Y-65620827D01*
X88230264Y-65766498D01*
X88230261Y-65766510D01*
X88199500Y-65921153D01*
X50500500Y-65921153D01*
X50500500Y-54878711D01*
X53149500Y-54878711D01*
X53149500Y-55121288D01*
X53181161Y-55361785D01*
X53243947Y-55596104D01*
X53336773Y-55820205D01*
X53336776Y-55820212D01*
X53458064Y-56030289D01*
X53458066Y-56030292D01*
X53458067Y-56030293D01*
X53605733Y-56222736D01*
X53605739Y-56222743D01*
X53777256Y-56394260D01*
X53777262Y-56394265D01*
X53969711Y-56541936D01*
X54179788Y-56663224D01*
X54403900Y-56756054D01*
X54638211Y-56818838D01*
X54818586Y-56842584D01*
X54878711Y-56850500D01*
X54878712Y-56850500D01*
X55121289Y-56850500D01*
X55169388Y-56844167D01*
X55361789Y-56818838D01*
X55596100Y-56756054D01*
X55820212Y-56663224D01*
X56030289Y-56541936D01*
X56222738Y-56394265D01*
X56394265Y-56222738D01*
X56541936Y-56030289D01*
X56663224Y-55820212D01*
X56756054Y-55596100D01*
X56818838Y-55361789D01*
X56850500Y-55121288D01*
X56850500Y-54878712D01*
X56850500Y-54878711D01*
X128149500Y-54878711D01*
X128149500Y-55121288D01*
X128181161Y-55361785D01*
X128243947Y-55596104D01*
X128336773Y-55820205D01*
X128336776Y-55820212D01*
X128458064Y-56030289D01*
X128458066Y-56030292D01*
X128458067Y-56030293D01*
X128605733Y-56222736D01*
X128605739Y-56222743D01*
X128777256Y-56394260D01*
X128777262Y-56394265D01*
X128969711Y-56541936D01*
X129179788Y-56663224D01*
X129403900Y-56756054D01*
X129638211Y-56818838D01*
X129818586Y-56842584D01*
X129878711Y-56850500D01*
X129878712Y-56850500D01*
X130121289Y-56850500D01*
X130169388Y-56844167D01*
X130361789Y-56818838D01*
X130596100Y-56756054D01*
X130820212Y-56663224D01*
X131030289Y-56541936D01*
X131222738Y-56394265D01*
X131394265Y-56222738D01*
X131541936Y-56030289D01*
X131663224Y-55820212D01*
X131756054Y-55596100D01*
X131818838Y-55361789D01*
X131850500Y-55121288D01*
X131850500Y-54878712D01*
X131818838Y-54638211D01*
X131756054Y-54403900D01*
X131663224Y-54179788D01*
X131541936Y-53969711D01*
X131394265Y-53777262D01*
X131394260Y-53777256D01*
X131222743Y-53605739D01*
X131222736Y-53605733D01*
X131030293Y-53458067D01*
X131030292Y-53458066D01*
X131030289Y-53458064D01*
X130820212Y-53336776D01*
X130820205Y-53336773D01*
X130596104Y-53243947D01*
X130361785Y-53181161D01*
X130121289Y-53149500D01*
X130121288Y-53149500D01*
X129878712Y-53149500D01*
X129878711Y-53149500D01*
X129638214Y-53181161D01*
X129403895Y-53243947D01*
X129179794Y-53336773D01*
X129179785Y-53336777D01*
X128969706Y-53458067D01*
X128777263Y-53605733D01*
X128777256Y-53605739D01*
X128605739Y-53777256D01*
X128605733Y-53777263D01*
X128458067Y-53969706D01*
X128336777Y-54179785D01*
X128336773Y-54179794D01*
X128243947Y-54403895D01*
X128181161Y-54638214D01*
X128149500Y-54878711D01*
X56850500Y-54878711D01*
X56818838Y-54638211D01*
X56756054Y-54403900D01*
X56663224Y-54179788D01*
X56541936Y-53969711D01*
X56394265Y-53777262D01*
X56394260Y-53777256D01*
X56222743Y-53605739D01*
X56222736Y-53605733D01*
X56030293Y-53458067D01*
X56030292Y-53458066D01*
X56030289Y-53458064D01*
X55820212Y-53336776D01*
X55820205Y-53336773D01*
X55596104Y-53243947D01*
X55361785Y-53181161D01*
X55121289Y-53149500D01*
X55121288Y-53149500D01*
X54878712Y-53149500D01*
X54878711Y-53149500D01*
X54638214Y-53181161D01*
X54403895Y-53243947D01*
X54179794Y-53336773D01*
X54179785Y-53336777D01*
X53969706Y-53458067D01*
X53777263Y-53605733D01*
X53777256Y-53605739D01*
X53605739Y-53777256D01*
X53605733Y-53777263D01*
X53458067Y-53969706D01*
X53336777Y-54179785D01*
X53336773Y-54179794D01*
X53243947Y-54403895D01*
X53181161Y-54638214D01*
X53149500Y-54878711D01*
X50500500Y-54878711D01*
X50500500Y-53003750D01*
X50500726Y-52996263D01*
X50518271Y-52706205D01*
X50520076Y-52691340D01*
X50571780Y-52409202D01*
X50575364Y-52394664D01*
X50660699Y-52120812D01*
X50665997Y-52106842D01*
X50783727Y-51845258D01*
X50790680Y-51832012D01*
X50830959Y-51765381D01*
X50939075Y-51586534D01*
X50947567Y-51574230D01*
X51124481Y-51348417D01*
X51134396Y-51337226D01*
X51337226Y-51134396D01*
X51348417Y-51124481D01*
X51574230Y-50947567D01*
X51586534Y-50939075D01*
X51832012Y-50790680D01*
X51845258Y-50783727D01*
X52106842Y-50665997D01*
X52120812Y-50660699D01*
X52394668Y-50575362D01*
X52409198Y-50571780D01*
X52691344Y-50520075D01*
X52706201Y-50518271D01*
X52996264Y-50500726D01*
X53003751Y-50500500D01*
X53065892Y-50500500D01*
X131934108Y-50500500D01*
X131996249Y-50500500D01*
X132003736Y-50500726D01*
G37*
%TD.AperFunction*%
%TD*%
M02*
