%TF.GenerationSoftware,KiCad,Pcbnew,10.0.4*%
%TF.CreationDate,2026-07-23T21:57:46+03:00*%
%TF.ProjectId,Bench,42656e63-682e-46b6-9963-61645f706362,A*%
%TF.SameCoordinates,Original*%
%TF.FileFunction,Drillmap*%
%TF.FilePolarity,Positive*%
%FSLAX45Y45*%
G04 Gerber Fmt 4.5, Leading zero omitted, Abs format (unit mm)*
G04 Created by KiCad (PCBNEW 10.0.4) date 2026-07-23 21:57:46*
%MOMM*%
%LPD*%
G01*
G04 APERTURE LIST*
%ADD10C,0.050000*%
%ADD11C,0.200000*%
%ADD12C,0.100000*%
%ADD13C,0.320000*%
G04 APERTURE END LIST*
D10*
X5000000Y-5300000D02*
G75*
G02*
X5300000Y-5000000I300000J0D01*
G01*
X5000000Y-9200000D02*
X5000000Y-5300000D01*
X5300000Y-5000000D02*
X13200000Y-5000000D01*
X5300000Y-9500000D02*
G75*
G02*
X5000000Y-9200000I0J300000D01*
G01*
X13200000Y-5000000D02*
G75*
G02*
X13500000Y-5300000I0J-300000D01*
G01*
X13200000Y-9500000D02*
X5300000Y-9500000D01*
X13500000Y-5300000D02*
X13500000Y-9200000D01*
X13500000Y-9200000D02*
G75*
G02*
X13200000Y-9500000I-300000J0D01*
G01*
D11*
D12*
X5627500Y-6928500D02*
X5692500Y-6993500D01*
X5692500Y-6928500D02*
X5627500Y-6993500D01*
X5627500Y-7506500D02*
X5692500Y-7571500D01*
X5692500Y-7506500D02*
X5627500Y-7571500D01*
D13*
X5660000Y-5500000D02*
G75*
G02*
X5340000Y-5500000I-160000J0D01*
G01*
X5340000Y-5500000D02*
G75*
G02*
X5660000Y-5500000I160000J0D01*
G01*
X5660000Y-9000000D02*
G75*
G02*
X5340000Y-9000000I-160000J0D01*
G01*
X5340000Y-9000000D02*
G75*
G02*
X5660000Y-9000000I160000J0D01*
G01*
X13160000Y-5500000D02*
G75*
G02*
X12840000Y-5500000I-160000J0D01*
G01*
X12840000Y-5500000D02*
G75*
G02*
X13160000Y-5500000I160000J0D01*
G01*
X13160000Y-9000000D02*
G75*
G02*
X12840000Y-9000000I-160000J0D01*
G01*
X12840000Y-9000000D02*
G75*
G02*
X13160000Y-9000000I160000J0D01*
G01*
D11*
X5258277Y-9813984D02*
X5258277Y-9613984D01*
X5258277Y-9613984D02*
X5305896Y-9613984D01*
X5305896Y-9613984D02*
X5334467Y-9623508D01*
X5334467Y-9623508D02*
X5353515Y-9642555D01*
X5353515Y-9642555D02*
X5363039Y-9661603D01*
X5363039Y-9661603D02*
X5372563Y-9699698D01*
X5372563Y-9699698D02*
X5372563Y-9728270D01*
X5372563Y-9728270D02*
X5363039Y-9766365D01*
X5363039Y-9766365D02*
X5353515Y-9785412D01*
X5353515Y-9785412D02*
X5334467Y-9804460D01*
X5334467Y-9804460D02*
X5305896Y-9813984D01*
X5305896Y-9813984D02*
X5258277Y-9813984D01*
X5458277Y-9813984D02*
X5458277Y-9680650D01*
X5458277Y-9718746D02*
X5467801Y-9699698D01*
X5467801Y-9699698D02*
X5477324Y-9690174D01*
X5477324Y-9690174D02*
X5496372Y-9680650D01*
X5496372Y-9680650D02*
X5515420Y-9680650D01*
X5582086Y-9813984D02*
X5582086Y-9680650D01*
X5582086Y-9613984D02*
X5572563Y-9623508D01*
X5572563Y-9623508D02*
X5582086Y-9633031D01*
X5582086Y-9633031D02*
X5591610Y-9623508D01*
X5591610Y-9623508D02*
X5582086Y-9613984D01*
X5582086Y-9613984D02*
X5582086Y-9633031D01*
X5705896Y-9813984D02*
X5686848Y-9804460D01*
X5686848Y-9804460D02*
X5677324Y-9785412D01*
X5677324Y-9785412D02*
X5677324Y-9613984D01*
X5810658Y-9813984D02*
X5791610Y-9804460D01*
X5791610Y-9804460D02*
X5782086Y-9785412D01*
X5782086Y-9785412D02*
X5782086Y-9613984D01*
X6039229Y-9813984D02*
X6039229Y-9613984D01*
X6039229Y-9613984D02*
X6105896Y-9756841D01*
X6105896Y-9756841D02*
X6172562Y-9613984D01*
X6172562Y-9613984D02*
X6172562Y-9813984D01*
X6353515Y-9813984D02*
X6353515Y-9709222D01*
X6353515Y-9709222D02*
X6343991Y-9690174D01*
X6343991Y-9690174D02*
X6324943Y-9680650D01*
X6324943Y-9680650D02*
X6286848Y-9680650D01*
X6286848Y-9680650D02*
X6267801Y-9690174D01*
X6353515Y-9804460D02*
X6334467Y-9813984D01*
X6334467Y-9813984D02*
X6286848Y-9813984D01*
X6286848Y-9813984D02*
X6267801Y-9804460D01*
X6267801Y-9804460D02*
X6258277Y-9785412D01*
X6258277Y-9785412D02*
X6258277Y-9766365D01*
X6258277Y-9766365D02*
X6267801Y-9747317D01*
X6267801Y-9747317D02*
X6286848Y-9737793D01*
X6286848Y-9737793D02*
X6334467Y-9737793D01*
X6334467Y-9737793D02*
X6353515Y-9728270D01*
X6448753Y-9680650D02*
X6448753Y-9880650D01*
X6448753Y-9690174D02*
X6467801Y-9680650D01*
X6467801Y-9680650D02*
X6505896Y-9680650D01*
X6505896Y-9680650D02*
X6524943Y-9690174D01*
X6524943Y-9690174D02*
X6534467Y-9699698D01*
X6534467Y-9699698D02*
X6543991Y-9718746D01*
X6543991Y-9718746D02*
X6543991Y-9775889D01*
X6543991Y-9775889D02*
X6534467Y-9794936D01*
X6534467Y-9794936D02*
X6524943Y-9804460D01*
X6524943Y-9804460D02*
X6505896Y-9813984D01*
X6505896Y-9813984D02*
X6467801Y-9813984D01*
X6467801Y-9813984D02*
X6448753Y-9804460D01*
X6629705Y-9794936D02*
X6639229Y-9804460D01*
X6639229Y-9804460D02*
X6629705Y-9813984D01*
X6629705Y-9813984D02*
X6620182Y-9804460D01*
X6620182Y-9804460D02*
X6629705Y-9794936D01*
X6629705Y-9794936D02*
X6629705Y-9813984D01*
X6629705Y-9690174D02*
X6639229Y-9699698D01*
X6639229Y-9699698D02*
X6629705Y-9709222D01*
X6629705Y-9709222D02*
X6620182Y-9699698D01*
X6620182Y-9699698D02*
X6629705Y-9690174D01*
X6629705Y-9690174D02*
X6629705Y-9709222D01*
D12*
X4932500Y-10110000D02*
X4997500Y-10175000D01*
X4997500Y-10110000D02*
X4932500Y-10175000D01*
D11*
X5296372Y-10033984D02*
X5315420Y-10033984D01*
X5315420Y-10033984D02*
X5334467Y-10043508D01*
X5334467Y-10043508D02*
X5343991Y-10053031D01*
X5343991Y-10053031D02*
X5353515Y-10072079D01*
X5353515Y-10072079D02*
X5363039Y-10110174D01*
X5363039Y-10110174D02*
X5363039Y-10157793D01*
X5363039Y-10157793D02*
X5353515Y-10195889D01*
X5353515Y-10195889D02*
X5343991Y-10214936D01*
X5343991Y-10214936D02*
X5334467Y-10224460D01*
X5334467Y-10224460D02*
X5315420Y-10233984D01*
X5315420Y-10233984D02*
X5296372Y-10233984D01*
X5296372Y-10233984D02*
X5277324Y-10224460D01*
X5277324Y-10224460D02*
X5267801Y-10214936D01*
X5267801Y-10214936D02*
X5258277Y-10195889D01*
X5258277Y-10195889D02*
X5248753Y-10157793D01*
X5248753Y-10157793D02*
X5248753Y-10110174D01*
X5248753Y-10110174D02*
X5258277Y-10072079D01*
X5258277Y-10072079D02*
X5267801Y-10053031D01*
X5267801Y-10053031D02*
X5277324Y-10043508D01*
X5277324Y-10043508D02*
X5296372Y-10033984D01*
X5448753Y-10214936D02*
X5458277Y-10224460D01*
X5458277Y-10224460D02*
X5448753Y-10233984D01*
X5448753Y-10233984D02*
X5439229Y-10224460D01*
X5439229Y-10224460D02*
X5448753Y-10214936D01*
X5448753Y-10214936D02*
X5448753Y-10233984D01*
X5629705Y-10033984D02*
X5591610Y-10033984D01*
X5591610Y-10033984D02*
X5572563Y-10043508D01*
X5572563Y-10043508D02*
X5563039Y-10053031D01*
X5563039Y-10053031D02*
X5543991Y-10081603D01*
X5543991Y-10081603D02*
X5534467Y-10119698D01*
X5534467Y-10119698D02*
X5534467Y-10195889D01*
X5534467Y-10195889D02*
X5543991Y-10214936D01*
X5543991Y-10214936D02*
X5553515Y-10224460D01*
X5553515Y-10224460D02*
X5572563Y-10233984D01*
X5572563Y-10233984D02*
X5610658Y-10233984D01*
X5610658Y-10233984D02*
X5629705Y-10224460D01*
X5629705Y-10224460D02*
X5639229Y-10214936D01*
X5639229Y-10214936D02*
X5648753Y-10195889D01*
X5648753Y-10195889D02*
X5648753Y-10148270D01*
X5648753Y-10148270D02*
X5639229Y-10129222D01*
X5639229Y-10129222D02*
X5629705Y-10119698D01*
X5629705Y-10119698D02*
X5610658Y-10110174D01*
X5610658Y-10110174D02*
X5572563Y-10110174D01*
X5572563Y-10110174D02*
X5553515Y-10119698D01*
X5553515Y-10119698D02*
X5543991Y-10129222D01*
X5543991Y-10129222D02*
X5534467Y-10148270D01*
X5829705Y-10033984D02*
X5734467Y-10033984D01*
X5734467Y-10033984D02*
X5724943Y-10129222D01*
X5724943Y-10129222D02*
X5734467Y-10119698D01*
X5734467Y-10119698D02*
X5753515Y-10110174D01*
X5753515Y-10110174D02*
X5801134Y-10110174D01*
X5801134Y-10110174D02*
X5820182Y-10119698D01*
X5820182Y-10119698D02*
X5829705Y-10129222D01*
X5829705Y-10129222D02*
X5839229Y-10148270D01*
X5839229Y-10148270D02*
X5839229Y-10195889D01*
X5839229Y-10195889D02*
X5829705Y-10214936D01*
X5829705Y-10214936D02*
X5820182Y-10224460D01*
X5820182Y-10224460D02*
X5801134Y-10233984D01*
X5801134Y-10233984D02*
X5753515Y-10233984D01*
X5753515Y-10233984D02*
X5734467Y-10224460D01*
X5734467Y-10224460D02*
X5724943Y-10214936D01*
X5963039Y-10033984D02*
X5982086Y-10033984D01*
X5982086Y-10033984D02*
X6001134Y-10043508D01*
X6001134Y-10043508D02*
X6010658Y-10053031D01*
X6010658Y-10053031D02*
X6020182Y-10072079D01*
X6020182Y-10072079D02*
X6029705Y-10110174D01*
X6029705Y-10110174D02*
X6029705Y-10157793D01*
X6029705Y-10157793D02*
X6020182Y-10195889D01*
X6020182Y-10195889D02*
X6010658Y-10214936D01*
X6010658Y-10214936D02*
X6001134Y-10224460D01*
X6001134Y-10224460D02*
X5982086Y-10233984D01*
X5982086Y-10233984D02*
X5963039Y-10233984D01*
X5963039Y-10233984D02*
X5943991Y-10224460D01*
X5943991Y-10224460D02*
X5934467Y-10214936D01*
X5934467Y-10214936D02*
X5924943Y-10195889D01*
X5924943Y-10195889D02*
X5915420Y-10157793D01*
X5915420Y-10157793D02*
X5915420Y-10110174D01*
X5915420Y-10110174D02*
X5924943Y-10072079D01*
X5924943Y-10072079D02*
X5934467Y-10053031D01*
X5934467Y-10053031D02*
X5943991Y-10043508D01*
X5943991Y-10043508D02*
X5963039Y-10033984D01*
X6115420Y-10233984D02*
X6115420Y-10100650D01*
X6115420Y-10119698D02*
X6124943Y-10110174D01*
X6124943Y-10110174D02*
X6143991Y-10100650D01*
X6143991Y-10100650D02*
X6172563Y-10100650D01*
X6172563Y-10100650D02*
X6191610Y-10110174D01*
X6191610Y-10110174D02*
X6201134Y-10129222D01*
X6201134Y-10129222D02*
X6201134Y-10233984D01*
X6201134Y-10129222D02*
X6210658Y-10110174D01*
X6210658Y-10110174D02*
X6229705Y-10100650D01*
X6229705Y-10100650D02*
X6258277Y-10100650D01*
X6258277Y-10100650D02*
X6277324Y-10110174D01*
X6277324Y-10110174D02*
X6286848Y-10129222D01*
X6286848Y-10129222D02*
X6286848Y-10233984D01*
X6382086Y-10233984D02*
X6382086Y-10100650D01*
X6382086Y-10119698D02*
X6391610Y-10110174D01*
X6391610Y-10110174D02*
X6410658Y-10100650D01*
X6410658Y-10100650D02*
X6439229Y-10100650D01*
X6439229Y-10100650D02*
X6458277Y-10110174D01*
X6458277Y-10110174D02*
X6467801Y-10129222D01*
X6467801Y-10129222D02*
X6467801Y-10233984D01*
X6467801Y-10129222D02*
X6477324Y-10110174D01*
X6477324Y-10110174D02*
X6496372Y-10100650D01*
X6496372Y-10100650D02*
X6524943Y-10100650D01*
X6524943Y-10100650D02*
X6543991Y-10110174D01*
X6543991Y-10110174D02*
X6553515Y-10129222D01*
X6553515Y-10129222D02*
X6553515Y-10233984D01*
X6943991Y-10024460D02*
X6772563Y-10281603D01*
X7201134Y-10033984D02*
X7220182Y-10033984D01*
X7220182Y-10033984D02*
X7239229Y-10043508D01*
X7239229Y-10043508D02*
X7248753Y-10053031D01*
X7248753Y-10053031D02*
X7258277Y-10072079D01*
X7258277Y-10072079D02*
X7267801Y-10110174D01*
X7267801Y-10110174D02*
X7267801Y-10157793D01*
X7267801Y-10157793D02*
X7258277Y-10195889D01*
X7258277Y-10195889D02*
X7248753Y-10214936D01*
X7248753Y-10214936D02*
X7239229Y-10224460D01*
X7239229Y-10224460D02*
X7220182Y-10233984D01*
X7220182Y-10233984D02*
X7201134Y-10233984D01*
X7201134Y-10233984D02*
X7182086Y-10224460D01*
X7182086Y-10224460D02*
X7172563Y-10214936D01*
X7172563Y-10214936D02*
X7163039Y-10195889D01*
X7163039Y-10195889D02*
X7153515Y-10157793D01*
X7153515Y-10157793D02*
X7153515Y-10110174D01*
X7153515Y-10110174D02*
X7163039Y-10072079D01*
X7163039Y-10072079D02*
X7172563Y-10053031D01*
X7172563Y-10053031D02*
X7182086Y-10043508D01*
X7182086Y-10043508D02*
X7201134Y-10033984D01*
X7353515Y-10214936D02*
X7363039Y-10224460D01*
X7363039Y-10224460D02*
X7353515Y-10233984D01*
X7353515Y-10233984D02*
X7343991Y-10224460D01*
X7343991Y-10224460D02*
X7353515Y-10214936D01*
X7353515Y-10214936D02*
X7353515Y-10233984D01*
X7486848Y-10033984D02*
X7505896Y-10033984D01*
X7505896Y-10033984D02*
X7524944Y-10043508D01*
X7524944Y-10043508D02*
X7534467Y-10053031D01*
X7534467Y-10053031D02*
X7543991Y-10072079D01*
X7543991Y-10072079D02*
X7553515Y-10110174D01*
X7553515Y-10110174D02*
X7553515Y-10157793D01*
X7553515Y-10157793D02*
X7543991Y-10195889D01*
X7543991Y-10195889D02*
X7534467Y-10214936D01*
X7534467Y-10214936D02*
X7524944Y-10224460D01*
X7524944Y-10224460D02*
X7505896Y-10233984D01*
X7505896Y-10233984D02*
X7486848Y-10233984D01*
X7486848Y-10233984D02*
X7467801Y-10224460D01*
X7467801Y-10224460D02*
X7458277Y-10214936D01*
X7458277Y-10214936D02*
X7448753Y-10195889D01*
X7448753Y-10195889D02*
X7439229Y-10157793D01*
X7439229Y-10157793D02*
X7439229Y-10110174D01*
X7439229Y-10110174D02*
X7448753Y-10072079D01*
X7448753Y-10072079D02*
X7458277Y-10053031D01*
X7458277Y-10053031D02*
X7467801Y-10043508D01*
X7467801Y-10043508D02*
X7486848Y-10033984D01*
X7629706Y-10053031D02*
X7639229Y-10043508D01*
X7639229Y-10043508D02*
X7658277Y-10033984D01*
X7658277Y-10033984D02*
X7705896Y-10033984D01*
X7705896Y-10033984D02*
X7724944Y-10043508D01*
X7724944Y-10043508D02*
X7734467Y-10053031D01*
X7734467Y-10053031D02*
X7743991Y-10072079D01*
X7743991Y-10072079D02*
X7743991Y-10091127D01*
X7743991Y-10091127D02*
X7734467Y-10119698D01*
X7734467Y-10119698D02*
X7620182Y-10233984D01*
X7620182Y-10233984D02*
X7743991Y-10233984D01*
X7924944Y-10033984D02*
X7829706Y-10033984D01*
X7829706Y-10033984D02*
X7820182Y-10129222D01*
X7820182Y-10129222D02*
X7829706Y-10119698D01*
X7829706Y-10119698D02*
X7848753Y-10110174D01*
X7848753Y-10110174D02*
X7896372Y-10110174D01*
X7896372Y-10110174D02*
X7915420Y-10119698D01*
X7915420Y-10119698D02*
X7924944Y-10129222D01*
X7924944Y-10129222D02*
X7934467Y-10148270D01*
X7934467Y-10148270D02*
X7934467Y-10195889D01*
X7934467Y-10195889D02*
X7924944Y-10214936D01*
X7924944Y-10214936D02*
X7915420Y-10224460D01*
X7915420Y-10224460D02*
X7896372Y-10233984D01*
X7896372Y-10233984D02*
X7848753Y-10233984D01*
X7848753Y-10233984D02*
X7829706Y-10224460D01*
X7829706Y-10224460D02*
X7820182Y-10214936D01*
X8105896Y-10033984D02*
X8067801Y-10033984D01*
X8067801Y-10033984D02*
X8048753Y-10043508D01*
X8048753Y-10043508D02*
X8039229Y-10053031D01*
X8039229Y-10053031D02*
X8020182Y-10081603D01*
X8020182Y-10081603D02*
X8010658Y-10119698D01*
X8010658Y-10119698D02*
X8010658Y-10195889D01*
X8010658Y-10195889D02*
X8020182Y-10214936D01*
X8020182Y-10214936D02*
X8029706Y-10224460D01*
X8029706Y-10224460D02*
X8048753Y-10233984D01*
X8048753Y-10233984D02*
X8086848Y-10233984D01*
X8086848Y-10233984D02*
X8105896Y-10224460D01*
X8105896Y-10224460D02*
X8115420Y-10214936D01*
X8115420Y-10214936D02*
X8124944Y-10195889D01*
X8124944Y-10195889D02*
X8124944Y-10148270D01*
X8124944Y-10148270D02*
X8115420Y-10129222D01*
X8115420Y-10129222D02*
X8105896Y-10119698D01*
X8105896Y-10119698D02*
X8086848Y-10110174D01*
X8086848Y-10110174D02*
X8048753Y-10110174D01*
X8048753Y-10110174D02*
X8029706Y-10119698D01*
X8029706Y-10119698D02*
X8020182Y-10129222D01*
X8020182Y-10129222D02*
X8010658Y-10148270D01*
X8201134Y-10033984D02*
X8201134Y-10072079D01*
X8277325Y-10033984D02*
X8277325Y-10072079D01*
X8572563Y-10310174D02*
X8563039Y-10300650D01*
X8563039Y-10300650D02*
X8543991Y-10272079D01*
X8543991Y-10272079D02*
X8534468Y-10253031D01*
X8534468Y-10253031D02*
X8524944Y-10224460D01*
X8524944Y-10224460D02*
X8515420Y-10176841D01*
X8515420Y-10176841D02*
X8515420Y-10138746D01*
X8515420Y-10138746D02*
X8524944Y-10091127D01*
X8524944Y-10091127D02*
X8534468Y-10062555D01*
X8534468Y-10062555D02*
X8543991Y-10043508D01*
X8543991Y-10043508D02*
X8563039Y-10014936D01*
X8563039Y-10014936D02*
X8572563Y-10005412D01*
X8639230Y-10053031D02*
X8648753Y-10043508D01*
X8648753Y-10043508D02*
X8667801Y-10033984D01*
X8667801Y-10033984D02*
X8715420Y-10033984D01*
X8715420Y-10033984D02*
X8734468Y-10043508D01*
X8734468Y-10043508D02*
X8743991Y-10053031D01*
X8743991Y-10053031D02*
X8753515Y-10072079D01*
X8753515Y-10072079D02*
X8753515Y-10091127D01*
X8753515Y-10091127D02*
X8743991Y-10119698D01*
X8743991Y-10119698D02*
X8629706Y-10233984D01*
X8629706Y-10233984D02*
X8753515Y-10233984D01*
X8991611Y-10233984D02*
X8991611Y-10033984D01*
X9077325Y-10233984D02*
X9077325Y-10129222D01*
X9077325Y-10129222D02*
X9067801Y-10110174D01*
X9067801Y-10110174D02*
X9048753Y-10100650D01*
X9048753Y-10100650D02*
X9020182Y-10100650D01*
X9020182Y-10100650D02*
X9001134Y-10110174D01*
X9001134Y-10110174D02*
X8991611Y-10119698D01*
X9201134Y-10233984D02*
X9182087Y-10224460D01*
X9182087Y-10224460D02*
X9172563Y-10214936D01*
X9172563Y-10214936D02*
X9163039Y-10195889D01*
X9163039Y-10195889D02*
X9163039Y-10138746D01*
X9163039Y-10138746D02*
X9172563Y-10119698D01*
X9172563Y-10119698D02*
X9182087Y-10110174D01*
X9182087Y-10110174D02*
X9201134Y-10100650D01*
X9201134Y-10100650D02*
X9229706Y-10100650D01*
X9229706Y-10100650D02*
X9248753Y-10110174D01*
X9248753Y-10110174D02*
X9258277Y-10119698D01*
X9258277Y-10119698D02*
X9267801Y-10138746D01*
X9267801Y-10138746D02*
X9267801Y-10195889D01*
X9267801Y-10195889D02*
X9258277Y-10214936D01*
X9258277Y-10214936D02*
X9248753Y-10224460D01*
X9248753Y-10224460D02*
X9229706Y-10233984D01*
X9229706Y-10233984D02*
X9201134Y-10233984D01*
X9382087Y-10233984D02*
X9363039Y-10224460D01*
X9363039Y-10224460D02*
X9353515Y-10205412D01*
X9353515Y-10205412D02*
X9353515Y-10033984D01*
X9534468Y-10224460D02*
X9515420Y-10233984D01*
X9515420Y-10233984D02*
X9477325Y-10233984D01*
X9477325Y-10233984D02*
X9458277Y-10224460D01*
X9458277Y-10224460D02*
X9448753Y-10205412D01*
X9448753Y-10205412D02*
X9448753Y-10129222D01*
X9448753Y-10129222D02*
X9458277Y-10110174D01*
X9458277Y-10110174D02*
X9477325Y-10100650D01*
X9477325Y-10100650D02*
X9515420Y-10100650D01*
X9515420Y-10100650D02*
X9534468Y-10110174D01*
X9534468Y-10110174D02*
X9543992Y-10129222D01*
X9543992Y-10129222D02*
X9543992Y-10148270D01*
X9543992Y-10148270D02*
X9448753Y-10167317D01*
X9620182Y-10224460D02*
X9639230Y-10233984D01*
X9639230Y-10233984D02*
X9677325Y-10233984D01*
X9677325Y-10233984D02*
X9696373Y-10224460D01*
X9696373Y-10224460D02*
X9705896Y-10205412D01*
X9705896Y-10205412D02*
X9705896Y-10195889D01*
X9705896Y-10195889D02*
X9696373Y-10176841D01*
X9696373Y-10176841D02*
X9677325Y-10167317D01*
X9677325Y-10167317D02*
X9648753Y-10167317D01*
X9648753Y-10167317D02*
X9629706Y-10157793D01*
X9629706Y-10157793D02*
X9620182Y-10138746D01*
X9620182Y-10138746D02*
X9620182Y-10129222D01*
X9620182Y-10129222D02*
X9629706Y-10110174D01*
X9629706Y-10110174D02*
X9648753Y-10100650D01*
X9648753Y-10100650D02*
X9677325Y-10100650D01*
X9677325Y-10100650D02*
X9696373Y-10110174D01*
X9772563Y-10310174D02*
X9782087Y-10300650D01*
X9782087Y-10300650D02*
X9801134Y-10272079D01*
X9801134Y-10272079D02*
X9810658Y-10253031D01*
X9810658Y-10253031D02*
X9820182Y-10224460D01*
X9820182Y-10224460D02*
X9829706Y-10176841D01*
X9829706Y-10176841D02*
X9829706Y-10138746D01*
X9829706Y-10138746D02*
X9820182Y-10091127D01*
X9820182Y-10091127D02*
X9810658Y-10062555D01*
X9810658Y-10062555D02*
X9801134Y-10043508D01*
X9801134Y-10043508D02*
X9782087Y-10014936D01*
X9782087Y-10014936D02*
X9772563Y-10005412D01*
X10134468Y-10310174D02*
X10124944Y-10300650D01*
X10124944Y-10300650D02*
X10105896Y-10272079D01*
X10105896Y-10272079D02*
X10096373Y-10253031D01*
X10096373Y-10253031D02*
X10086849Y-10224460D01*
X10086849Y-10224460D02*
X10077325Y-10176841D01*
X10077325Y-10176841D02*
X10077325Y-10138746D01*
X10077325Y-10138746D02*
X10086849Y-10091127D01*
X10086849Y-10091127D02*
X10096373Y-10062555D01*
X10096373Y-10062555D02*
X10105896Y-10043508D01*
X10105896Y-10043508D02*
X10124944Y-10014936D01*
X10124944Y-10014936D02*
X10134468Y-10005412D01*
X10210658Y-10100650D02*
X10210658Y-10233984D01*
X10210658Y-10119698D02*
X10220182Y-10110174D01*
X10220182Y-10110174D02*
X10239230Y-10100650D01*
X10239230Y-10100650D02*
X10267801Y-10100650D01*
X10267801Y-10100650D02*
X10286849Y-10110174D01*
X10286849Y-10110174D02*
X10296373Y-10129222D01*
X10296373Y-10129222D02*
X10296373Y-10233984D01*
X10420182Y-10233984D02*
X10401134Y-10224460D01*
X10401134Y-10224460D02*
X10391611Y-10214936D01*
X10391611Y-10214936D02*
X10382087Y-10195889D01*
X10382087Y-10195889D02*
X10382087Y-10138746D01*
X10382087Y-10138746D02*
X10391611Y-10119698D01*
X10391611Y-10119698D02*
X10401134Y-10110174D01*
X10401134Y-10110174D02*
X10420182Y-10100650D01*
X10420182Y-10100650D02*
X10448754Y-10100650D01*
X10448754Y-10100650D02*
X10467801Y-10110174D01*
X10467801Y-10110174D02*
X10477325Y-10119698D01*
X10477325Y-10119698D02*
X10486849Y-10138746D01*
X10486849Y-10138746D02*
X10486849Y-10195889D01*
X10486849Y-10195889D02*
X10477325Y-10214936D01*
X10477325Y-10214936D02*
X10467801Y-10224460D01*
X10467801Y-10224460D02*
X10448754Y-10233984D01*
X10448754Y-10233984D02*
X10420182Y-10233984D01*
X10543992Y-10100650D02*
X10620182Y-10100650D01*
X10572563Y-10033984D02*
X10572563Y-10205412D01*
X10572563Y-10205412D02*
X10582087Y-10224460D01*
X10582087Y-10224460D02*
X10601134Y-10233984D01*
X10601134Y-10233984D02*
X10620182Y-10233984D01*
X10839230Y-10100650D02*
X10839230Y-10300650D01*
X10839230Y-10110174D02*
X10858277Y-10100650D01*
X10858277Y-10100650D02*
X10896373Y-10100650D01*
X10896373Y-10100650D02*
X10915420Y-10110174D01*
X10915420Y-10110174D02*
X10924944Y-10119698D01*
X10924944Y-10119698D02*
X10934468Y-10138746D01*
X10934468Y-10138746D02*
X10934468Y-10195889D01*
X10934468Y-10195889D02*
X10924944Y-10214936D01*
X10924944Y-10214936D02*
X10915420Y-10224460D01*
X10915420Y-10224460D02*
X10896373Y-10233984D01*
X10896373Y-10233984D02*
X10858277Y-10233984D01*
X10858277Y-10233984D02*
X10839230Y-10224460D01*
X11048754Y-10233984D02*
X11029706Y-10224460D01*
X11029706Y-10224460D02*
X11020182Y-10205412D01*
X11020182Y-10205412D02*
X11020182Y-10033984D01*
X11210658Y-10233984D02*
X11210658Y-10129222D01*
X11210658Y-10129222D02*
X11201134Y-10110174D01*
X11201134Y-10110174D02*
X11182087Y-10100650D01*
X11182087Y-10100650D02*
X11143992Y-10100650D01*
X11143992Y-10100650D02*
X11124944Y-10110174D01*
X11210658Y-10224460D02*
X11191611Y-10233984D01*
X11191611Y-10233984D02*
X11143992Y-10233984D01*
X11143992Y-10233984D02*
X11124944Y-10224460D01*
X11124944Y-10224460D02*
X11115420Y-10205412D01*
X11115420Y-10205412D02*
X11115420Y-10186365D01*
X11115420Y-10186365D02*
X11124944Y-10167317D01*
X11124944Y-10167317D02*
X11143992Y-10157793D01*
X11143992Y-10157793D02*
X11191611Y-10157793D01*
X11191611Y-10157793D02*
X11210658Y-10148270D01*
X11277325Y-10100650D02*
X11353515Y-10100650D01*
X11305896Y-10033984D02*
X11305896Y-10205412D01*
X11305896Y-10205412D02*
X11315420Y-10224460D01*
X11315420Y-10224460D02*
X11334468Y-10233984D01*
X11334468Y-10233984D02*
X11353515Y-10233984D01*
X11496373Y-10224460D02*
X11477325Y-10233984D01*
X11477325Y-10233984D02*
X11439230Y-10233984D01*
X11439230Y-10233984D02*
X11420182Y-10224460D01*
X11420182Y-10224460D02*
X11410658Y-10205412D01*
X11410658Y-10205412D02*
X11410658Y-10129222D01*
X11410658Y-10129222D02*
X11420182Y-10110174D01*
X11420182Y-10110174D02*
X11439230Y-10100650D01*
X11439230Y-10100650D02*
X11477325Y-10100650D01*
X11477325Y-10100650D02*
X11496373Y-10110174D01*
X11496373Y-10110174D02*
X11505896Y-10129222D01*
X11505896Y-10129222D02*
X11505896Y-10148270D01*
X11505896Y-10148270D02*
X11410658Y-10167317D01*
X11677325Y-10233984D02*
X11677325Y-10033984D01*
X11677325Y-10224460D02*
X11658277Y-10233984D01*
X11658277Y-10233984D02*
X11620182Y-10233984D01*
X11620182Y-10233984D02*
X11601134Y-10224460D01*
X11601134Y-10224460D02*
X11591611Y-10214936D01*
X11591611Y-10214936D02*
X11582087Y-10195889D01*
X11582087Y-10195889D02*
X11582087Y-10138746D01*
X11582087Y-10138746D02*
X11591611Y-10119698D01*
X11591611Y-10119698D02*
X11601134Y-10110174D01*
X11601134Y-10110174D02*
X11620182Y-10100650D01*
X11620182Y-10100650D02*
X11658277Y-10100650D01*
X11658277Y-10100650D02*
X11677325Y-10110174D01*
X11753515Y-10310174D02*
X11763039Y-10300650D01*
X11763039Y-10300650D02*
X11782087Y-10272079D01*
X11782087Y-10272079D02*
X11791611Y-10253031D01*
X11791611Y-10253031D02*
X11801134Y-10224460D01*
X11801134Y-10224460D02*
X11810658Y-10176841D01*
X11810658Y-10176841D02*
X11810658Y-10138746D01*
X11810658Y-10138746D02*
X11801134Y-10091127D01*
X11801134Y-10091127D02*
X11791611Y-10062555D01*
X11791611Y-10062555D02*
X11782087Y-10043508D01*
X11782087Y-10043508D02*
X11763039Y-10014936D01*
X11763039Y-10014936D02*
X11753515Y-10005412D01*
X4997500Y-10406500D02*
G75*
G02*
X4797500Y-10406500I-100000J0D01*
G01*
X4797500Y-10406500D02*
G75*
G02*
X4997500Y-10406500I100000J0D01*
G01*
X5239229Y-10297984D02*
X5363039Y-10297984D01*
X5363039Y-10297984D02*
X5296372Y-10374174D01*
X5296372Y-10374174D02*
X5324944Y-10374174D01*
X5324944Y-10374174D02*
X5343991Y-10383698D01*
X5343991Y-10383698D02*
X5353515Y-10393222D01*
X5353515Y-10393222D02*
X5363039Y-10412270D01*
X5363039Y-10412270D02*
X5363039Y-10459889D01*
X5363039Y-10459889D02*
X5353515Y-10478936D01*
X5353515Y-10478936D02*
X5343991Y-10488460D01*
X5343991Y-10488460D02*
X5324944Y-10497984D01*
X5324944Y-10497984D02*
X5267801Y-10497984D01*
X5267801Y-10497984D02*
X5248753Y-10488460D01*
X5248753Y-10488460D02*
X5239229Y-10478936D01*
X5448753Y-10478936D02*
X5458277Y-10488460D01*
X5458277Y-10488460D02*
X5448753Y-10497984D01*
X5448753Y-10497984D02*
X5439229Y-10488460D01*
X5439229Y-10488460D02*
X5448753Y-10478936D01*
X5448753Y-10478936D02*
X5448753Y-10497984D01*
X5534467Y-10317031D02*
X5543991Y-10307508D01*
X5543991Y-10307508D02*
X5563039Y-10297984D01*
X5563039Y-10297984D02*
X5610658Y-10297984D01*
X5610658Y-10297984D02*
X5629705Y-10307508D01*
X5629705Y-10307508D02*
X5639229Y-10317031D01*
X5639229Y-10317031D02*
X5648753Y-10336079D01*
X5648753Y-10336079D02*
X5648753Y-10355127D01*
X5648753Y-10355127D02*
X5639229Y-10383698D01*
X5639229Y-10383698D02*
X5524944Y-10497984D01*
X5524944Y-10497984D02*
X5648753Y-10497984D01*
X5772562Y-10297984D02*
X5791610Y-10297984D01*
X5791610Y-10297984D02*
X5810658Y-10307508D01*
X5810658Y-10307508D02*
X5820182Y-10317031D01*
X5820182Y-10317031D02*
X5829705Y-10336079D01*
X5829705Y-10336079D02*
X5839229Y-10374174D01*
X5839229Y-10374174D02*
X5839229Y-10421793D01*
X5839229Y-10421793D02*
X5829705Y-10459889D01*
X5829705Y-10459889D02*
X5820182Y-10478936D01*
X5820182Y-10478936D02*
X5810658Y-10488460D01*
X5810658Y-10488460D02*
X5791610Y-10497984D01*
X5791610Y-10497984D02*
X5772562Y-10497984D01*
X5772562Y-10497984D02*
X5753515Y-10488460D01*
X5753515Y-10488460D02*
X5743991Y-10478936D01*
X5743991Y-10478936D02*
X5734467Y-10459889D01*
X5734467Y-10459889D02*
X5724943Y-10421793D01*
X5724943Y-10421793D02*
X5724943Y-10374174D01*
X5724943Y-10374174D02*
X5734467Y-10336079D01*
X5734467Y-10336079D02*
X5743991Y-10317031D01*
X5743991Y-10317031D02*
X5753515Y-10307508D01*
X5753515Y-10307508D02*
X5772562Y-10297984D01*
X5963039Y-10297984D02*
X5982086Y-10297984D01*
X5982086Y-10297984D02*
X6001134Y-10307508D01*
X6001134Y-10307508D02*
X6010658Y-10317031D01*
X6010658Y-10317031D02*
X6020182Y-10336079D01*
X6020182Y-10336079D02*
X6029705Y-10374174D01*
X6029705Y-10374174D02*
X6029705Y-10421793D01*
X6029705Y-10421793D02*
X6020182Y-10459889D01*
X6020182Y-10459889D02*
X6010658Y-10478936D01*
X6010658Y-10478936D02*
X6001134Y-10488460D01*
X6001134Y-10488460D02*
X5982086Y-10497984D01*
X5982086Y-10497984D02*
X5963039Y-10497984D01*
X5963039Y-10497984D02*
X5943991Y-10488460D01*
X5943991Y-10488460D02*
X5934467Y-10478936D01*
X5934467Y-10478936D02*
X5924943Y-10459889D01*
X5924943Y-10459889D02*
X5915420Y-10421793D01*
X5915420Y-10421793D02*
X5915420Y-10374174D01*
X5915420Y-10374174D02*
X5924943Y-10336079D01*
X5924943Y-10336079D02*
X5934467Y-10317031D01*
X5934467Y-10317031D02*
X5943991Y-10307508D01*
X5943991Y-10307508D02*
X5963039Y-10297984D01*
X6115420Y-10497984D02*
X6115420Y-10364650D01*
X6115420Y-10383698D02*
X6124943Y-10374174D01*
X6124943Y-10374174D02*
X6143991Y-10364650D01*
X6143991Y-10364650D02*
X6172563Y-10364650D01*
X6172563Y-10364650D02*
X6191610Y-10374174D01*
X6191610Y-10374174D02*
X6201134Y-10393222D01*
X6201134Y-10393222D02*
X6201134Y-10497984D01*
X6201134Y-10393222D02*
X6210658Y-10374174D01*
X6210658Y-10374174D02*
X6229705Y-10364650D01*
X6229705Y-10364650D02*
X6258277Y-10364650D01*
X6258277Y-10364650D02*
X6277324Y-10374174D01*
X6277324Y-10374174D02*
X6286848Y-10393222D01*
X6286848Y-10393222D02*
X6286848Y-10497984D01*
X6382086Y-10497984D02*
X6382086Y-10364650D01*
X6382086Y-10383698D02*
X6391610Y-10374174D01*
X6391610Y-10374174D02*
X6410658Y-10364650D01*
X6410658Y-10364650D02*
X6439229Y-10364650D01*
X6439229Y-10364650D02*
X6458277Y-10374174D01*
X6458277Y-10374174D02*
X6467801Y-10393222D01*
X6467801Y-10393222D02*
X6467801Y-10497984D01*
X6467801Y-10393222D02*
X6477324Y-10374174D01*
X6477324Y-10374174D02*
X6496372Y-10364650D01*
X6496372Y-10364650D02*
X6524943Y-10364650D01*
X6524943Y-10364650D02*
X6543991Y-10374174D01*
X6543991Y-10374174D02*
X6553515Y-10393222D01*
X6553515Y-10393222D02*
X6553515Y-10497984D01*
X6943991Y-10288460D02*
X6772563Y-10545603D01*
X7201134Y-10297984D02*
X7220182Y-10297984D01*
X7220182Y-10297984D02*
X7239229Y-10307508D01*
X7239229Y-10307508D02*
X7248753Y-10317031D01*
X7248753Y-10317031D02*
X7258277Y-10336079D01*
X7258277Y-10336079D02*
X7267801Y-10374174D01*
X7267801Y-10374174D02*
X7267801Y-10421793D01*
X7267801Y-10421793D02*
X7258277Y-10459889D01*
X7258277Y-10459889D02*
X7248753Y-10478936D01*
X7248753Y-10478936D02*
X7239229Y-10488460D01*
X7239229Y-10488460D02*
X7220182Y-10497984D01*
X7220182Y-10497984D02*
X7201134Y-10497984D01*
X7201134Y-10497984D02*
X7182086Y-10488460D01*
X7182086Y-10488460D02*
X7172563Y-10478936D01*
X7172563Y-10478936D02*
X7163039Y-10459889D01*
X7163039Y-10459889D02*
X7153515Y-10421793D01*
X7153515Y-10421793D02*
X7153515Y-10374174D01*
X7153515Y-10374174D02*
X7163039Y-10336079D01*
X7163039Y-10336079D02*
X7172563Y-10317031D01*
X7172563Y-10317031D02*
X7182086Y-10307508D01*
X7182086Y-10307508D02*
X7201134Y-10297984D01*
X7353515Y-10478936D02*
X7363039Y-10488460D01*
X7363039Y-10488460D02*
X7353515Y-10497984D01*
X7353515Y-10497984D02*
X7343991Y-10488460D01*
X7343991Y-10488460D02*
X7353515Y-10478936D01*
X7353515Y-10478936D02*
X7353515Y-10497984D01*
X7553515Y-10497984D02*
X7439229Y-10497984D01*
X7496372Y-10497984D02*
X7496372Y-10297984D01*
X7496372Y-10297984D02*
X7477325Y-10326555D01*
X7477325Y-10326555D02*
X7458277Y-10345603D01*
X7458277Y-10345603D02*
X7439229Y-10355127D01*
X7629706Y-10317031D02*
X7639229Y-10307508D01*
X7639229Y-10307508D02*
X7658277Y-10297984D01*
X7658277Y-10297984D02*
X7705896Y-10297984D01*
X7705896Y-10297984D02*
X7724944Y-10307508D01*
X7724944Y-10307508D02*
X7734467Y-10317031D01*
X7734467Y-10317031D02*
X7743991Y-10336079D01*
X7743991Y-10336079D02*
X7743991Y-10355127D01*
X7743991Y-10355127D02*
X7734467Y-10383698D01*
X7734467Y-10383698D02*
X7620182Y-10497984D01*
X7620182Y-10497984D02*
X7743991Y-10497984D01*
X7915420Y-10297984D02*
X7877325Y-10297984D01*
X7877325Y-10297984D02*
X7858277Y-10307508D01*
X7858277Y-10307508D02*
X7848753Y-10317031D01*
X7848753Y-10317031D02*
X7829706Y-10345603D01*
X7829706Y-10345603D02*
X7820182Y-10383698D01*
X7820182Y-10383698D02*
X7820182Y-10459889D01*
X7820182Y-10459889D02*
X7829706Y-10478936D01*
X7829706Y-10478936D02*
X7839229Y-10488460D01*
X7839229Y-10488460D02*
X7858277Y-10497984D01*
X7858277Y-10497984D02*
X7896372Y-10497984D01*
X7896372Y-10497984D02*
X7915420Y-10488460D01*
X7915420Y-10488460D02*
X7924944Y-10478936D01*
X7924944Y-10478936D02*
X7934467Y-10459889D01*
X7934467Y-10459889D02*
X7934467Y-10412270D01*
X7934467Y-10412270D02*
X7924944Y-10393222D01*
X7924944Y-10393222D02*
X7915420Y-10383698D01*
X7915420Y-10383698D02*
X7896372Y-10374174D01*
X7896372Y-10374174D02*
X7858277Y-10374174D01*
X7858277Y-10374174D02*
X7839229Y-10383698D01*
X7839229Y-10383698D02*
X7829706Y-10393222D01*
X7829706Y-10393222D02*
X7820182Y-10412270D01*
X8058277Y-10297984D02*
X8077325Y-10297984D01*
X8077325Y-10297984D02*
X8096372Y-10307508D01*
X8096372Y-10307508D02*
X8105896Y-10317031D01*
X8105896Y-10317031D02*
X8115420Y-10336079D01*
X8115420Y-10336079D02*
X8124944Y-10374174D01*
X8124944Y-10374174D02*
X8124944Y-10421793D01*
X8124944Y-10421793D02*
X8115420Y-10459889D01*
X8115420Y-10459889D02*
X8105896Y-10478936D01*
X8105896Y-10478936D02*
X8096372Y-10488460D01*
X8096372Y-10488460D02*
X8077325Y-10497984D01*
X8077325Y-10497984D02*
X8058277Y-10497984D01*
X8058277Y-10497984D02*
X8039229Y-10488460D01*
X8039229Y-10488460D02*
X8029706Y-10478936D01*
X8029706Y-10478936D02*
X8020182Y-10459889D01*
X8020182Y-10459889D02*
X8010658Y-10421793D01*
X8010658Y-10421793D02*
X8010658Y-10374174D01*
X8010658Y-10374174D02*
X8020182Y-10336079D01*
X8020182Y-10336079D02*
X8029706Y-10317031D01*
X8029706Y-10317031D02*
X8039229Y-10307508D01*
X8039229Y-10307508D02*
X8058277Y-10297984D01*
X8201134Y-10297984D02*
X8201134Y-10336079D01*
X8277325Y-10297984D02*
X8277325Y-10336079D01*
X8572563Y-10574174D02*
X8563039Y-10564650D01*
X8563039Y-10564650D02*
X8543991Y-10536079D01*
X8543991Y-10536079D02*
X8534468Y-10517031D01*
X8534468Y-10517031D02*
X8524944Y-10488460D01*
X8524944Y-10488460D02*
X8515420Y-10440841D01*
X8515420Y-10440841D02*
X8515420Y-10402746D01*
X8515420Y-10402746D02*
X8524944Y-10355127D01*
X8524944Y-10355127D02*
X8534468Y-10326555D01*
X8534468Y-10326555D02*
X8543991Y-10307508D01*
X8543991Y-10307508D02*
X8563039Y-10278936D01*
X8563039Y-10278936D02*
X8572563Y-10269412D01*
X8734468Y-10364650D02*
X8734468Y-10497984D01*
X8686849Y-10288460D02*
X8639230Y-10431317D01*
X8639230Y-10431317D02*
X8763039Y-10431317D01*
X8991611Y-10497984D02*
X8991611Y-10297984D01*
X9077325Y-10497984D02*
X9077325Y-10393222D01*
X9077325Y-10393222D02*
X9067801Y-10374174D01*
X9067801Y-10374174D02*
X9048753Y-10364650D01*
X9048753Y-10364650D02*
X9020182Y-10364650D01*
X9020182Y-10364650D02*
X9001134Y-10374174D01*
X9001134Y-10374174D02*
X8991611Y-10383698D01*
X9201134Y-10497984D02*
X9182087Y-10488460D01*
X9182087Y-10488460D02*
X9172563Y-10478936D01*
X9172563Y-10478936D02*
X9163039Y-10459889D01*
X9163039Y-10459889D02*
X9163039Y-10402746D01*
X9163039Y-10402746D02*
X9172563Y-10383698D01*
X9172563Y-10383698D02*
X9182087Y-10374174D01*
X9182087Y-10374174D02*
X9201134Y-10364650D01*
X9201134Y-10364650D02*
X9229706Y-10364650D01*
X9229706Y-10364650D02*
X9248753Y-10374174D01*
X9248753Y-10374174D02*
X9258277Y-10383698D01*
X9258277Y-10383698D02*
X9267801Y-10402746D01*
X9267801Y-10402746D02*
X9267801Y-10459889D01*
X9267801Y-10459889D02*
X9258277Y-10478936D01*
X9258277Y-10478936D02*
X9248753Y-10488460D01*
X9248753Y-10488460D02*
X9229706Y-10497984D01*
X9229706Y-10497984D02*
X9201134Y-10497984D01*
X9382087Y-10497984D02*
X9363039Y-10488460D01*
X9363039Y-10488460D02*
X9353515Y-10469412D01*
X9353515Y-10469412D02*
X9353515Y-10297984D01*
X9534468Y-10488460D02*
X9515420Y-10497984D01*
X9515420Y-10497984D02*
X9477325Y-10497984D01*
X9477325Y-10497984D02*
X9458277Y-10488460D01*
X9458277Y-10488460D02*
X9448753Y-10469412D01*
X9448753Y-10469412D02*
X9448753Y-10393222D01*
X9448753Y-10393222D02*
X9458277Y-10374174D01*
X9458277Y-10374174D02*
X9477325Y-10364650D01*
X9477325Y-10364650D02*
X9515420Y-10364650D01*
X9515420Y-10364650D02*
X9534468Y-10374174D01*
X9534468Y-10374174D02*
X9543992Y-10393222D01*
X9543992Y-10393222D02*
X9543992Y-10412270D01*
X9543992Y-10412270D02*
X9448753Y-10431317D01*
X9620182Y-10488460D02*
X9639230Y-10497984D01*
X9639230Y-10497984D02*
X9677325Y-10497984D01*
X9677325Y-10497984D02*
X9696373Y-10488460D01*
X9696373Y-10488460D02*
X9705896Y-10469412D01*
X9705896Y-10469412D02*
X9705896Y-10459889D01*
X9705896Y-10459889D02*
X9696373Y-10440841D01*
X9696373Y-10440841D02*
X9677325Y-10431317D01*
X9677325Y-10431317D02*
X9648753Y-10431317D01*
X9648753Y-10431317D02*
X9629706Y-10421793D01*
X9629706Y-10421793D02*
X9620182Y-10402746D01*
X9620182Y-10402746D02*
X9620182Y-10393222D01*
X9620182Y-10393222D02*
X9629706Y-10374174D01*
X9629706Y-10374174D02*
X9648753Y-10364650D01*
X9648753Y-10364650D02*
X9677325Y-10364650D01*
X9677325Y-10364650D02*
X9696373Y-10374174D01*
X9772563Y-10574174D02*
X9782087Y-10564650D01*
X9782087Y-10564650D02*
X9801134Y-10536079D01*
X9801134Y-10536079D02*
X9810658Y-10517031D01*
X9810658Y-10517031D02*
X9820182Y-10488460D01*
X9820182Y-10488460D02*
X9829706Y-10440841D01*
X9829706Y-10440841D02*
X9829706Y-10402746D01*
X9829706Y-10402746D02*
X9820182Y-10355127D01*
X9820182Y-10355127D02*
X9810658Y-10326555D01*
X9810658Y-10326555D02*
X9801134Y-10307508D01*
X9801134Y-10307508D02*
X9782087Y-10278936D01*
X9782087Y-10278936D02*
X9772563Y-10269412D01*
X10134468Y-10574174D02*
X10124944Y-10564650D01*
X10124944Y-10564650D02*
X10105896Y-10536079D01*
X10105896Y-10536079D02*
X10096373Y-10517031D01*
X10096373Y-10517031D02*
X10086849Y-10488460D01*
X10086849Y-10488460D02*
X10077325Y-10440841D01*
X10077325Y-10440841D02*
X10077325Y-10402746D01*
X10077325Y-10402746D02*
X10086849Y-10355127D01*
X10086849Y-10355127D02*
X10096373Y-10326555D01*
X10096373Y-10326555D02*
X10105896Y-10307508D01*
X10105896Y-10307508D02*
X10124944Y-10278936D01*
X10124944Y-10278936D02*
X10134468Y-10269412D01*
X10210658Y-10364650D02*
X10210658Y-10497984D01*
X10210658Y-10383698D02*
X10220182Y-10374174D01*
X10220182Y-10374174D02*
X10239230Y-10364650D01*
X10239230Y-10364650D02*
X10267801Y-10364650D01*
X10267801Y-10364650D02*
X10286849Y-10374174D01*
X10286849Y-10374174D02*
X10296373Y-10393222D01*
X10296373Y-10393222D02*
X10296373Y-10497984D01*
X10420182Y-10497984D02*
X10401134Y-10488460D01*
X10401134Y-10488460D02*
X10391611Y-10478936D01*
X10391611Y-10478936D02*
X10382087Y-10459889D01*
X10382087Y-10459889D02*
X10382087Y-10402746D01*
X10382087Y-10402746D02*
X10391611Y-10383698D01*
X10391611Y-10383698D02*
X10401134Y-10374174D01*
X10401134Y-10374174D02*
X10420182Y-10364650D01*
X10420182Y-10364650D02*
X10448754Y-10364650D01*
X10448754Y-10364650D02*
X10467801Y-10374174D01*
X10467801Y-10374174D02*
X10477325Y-10383698D01*
X10477325Y-10383698D02*
X10486849Y-10402746D01*
X10486849Y-10402746D02*
X10486849Y-10459889D01*
X10486849Y-10459889D02*
X10477325Y-10478936D01*
X10477325Y-10478936D02*
X10467801Y-10488460D01*
X10467801Y-10488460D02*
X10448754Y-10497984D01*
X10448754Y-10497984D02*
X10420182Y-10497984D01*
X10543992Y-10364650D02*
X10620182Y-10364650D01*
X10572563Y-10297984D02*
X10572563Y-10469412D01*
X10572563Y-10469412D02*
X10582087Y-10488460D01*
X10582087Y-10488460D02*
X10601134Y-10497984D01*
X10601134Y-10497984D02*
X10620182Y-10497984D01*
X10839230Y-10364650D02*
X10839230Y-10564650D01*
X10839230Y-10374174D02*
X10858277Y-10364650D01*
X10858277Y-10364650D02*
X10896373Y-10364650D01*
X10896373Y-10364650D02*
X10915420Y-10374174D01*
X10915420Y-10374174D02*
X10924944Y-10383698D01*
X10924944Y-10383698D02*
X10934468Y-10402746D01*
X10934468Y-10402746D02*
X10934468Y-10459889D01*
X10934468Y-10459889D02*
X10924944Y-10478936D01*
X10924944Y-10478936D02*
X10915420Y-10488460D01*
X10915420Y-10488460D02*
X10896373Y-10497984D01*
X10896373Y-10497984D02*
X10858277Y-10497984D01*
X10858277Y-10497984D02*
X10839230Y-10488460D01*
X11048754Y-10497984D02*
X11029706Y-10488460D01*
X11029706Y-10488460D02*
X11020182Y-10469412D01*
X11020182Y-10469412D02*
X11020182Y-10297984D01*
X11210658Y-10497984D02*
X11210658Y-10393222D01*
X11210658Y-10393222D02*
X11201134Y-10374174D01*
X11201134Y-10374174D02*
X11182087Y-10364650D01*
X11182087Y-10364650D02*
X11143992Y-10364650D01*
X11143992Y-10364650D02*
X11124944Y-10374174D01*
X11210658Y-10488460D02*
X11191611Y-10497984D01*
X11191611Y-10497984D02*
X11143992Y-10497984D01*
X11143992Y-10497984D02*
X11124944Y-10488460D01*
X11124944Y-10488460D02*
X11115420Y-10469412D01*
X11115420Y-10469412D02*
X11115420Y-10450365D01*
X11115420Y-10450365D02*
X11124944Y-10431317D01*
X11124944Y-10431317D02*
X11143992Y-10421793D01*
X11143992Y-10421793D02*
X11191611Y-10421793D01*
X11191611Y-10421793D02*
X11210658Y-10412270D01*
X11277325Y-10364650D02*
X11353515Y-10364650D01*
X11305896Y-10297984D02*
X11305896Y-10469412D01*
X11305896Y-10469412D02*
X11315420Y-10488460D01*
X11315420Y-10488460D02*
X11334468Y-10497984D01*
X11334468Y-10497984D02*
X11353515Y-10497984D01*
X11496373Y-10488460D02*
X11477325Y-10497984D01*
X11477325Y-10497984D02*
X11439230Y-10497984D01*
X11439230Y-10497984D02*
X11420182Y-10488460D01*
X11420182Y-10488460D02*
X11410658Y-10469412D01*
X11410658Y-10469412D02*
X11410658Y-10393222D01*
X11410658Y-10393222D02*
X11420182Y-10374174D01*
X11420182Y-10374174D02*
X11439230Y-10364650D01*
X11439230Y-10364650D02*
X11477325Y-10364650D01*
X11477325Y-10364650D02*
X11496373Y-10374174D01*
X11496373Y-10374174D02*
X11505896Y-10393222D01*
X11505896Y-10393222D02*
X11505896Y-10412270D01*
X11505896Y-10412270D02*
X11410658Y-10431317D01*
X11677325Y-10497984D02*
X11677325Y-10297984D01*
X11677325Y-10488460D02*
X11658277Y-10497984D01*
X11658277Y-10497984D02*
X11620182Y-10497984D01*
X11620182Y-10497984D02*
X11601134Y-10488460D01*
X11601134Y-10488460D02*
X11591611Y-10478936D01*
X11591611Y-10478936D02*
X11582087Y-10459889D01*
X11582087Y-10459889D02*
X11582087Y-10402746D01*
X11582087Y-10402746D02*
X11591611Y-10383698D01*
X11591611Y-10383698D02*
X11601134Y-10374174D01*
X11601134Y-10374174D02*
X11620182Y-10364650D01*
X11620182Y-10364650D02*
X11658277Y-10364650D01*
X11658277Y-10364650D02*
X11677325Y-10374174D01*
X11753515Y-10574174D02*
X11763039Y-10564650D01*
X11763039Y-10564650D02*
X11782087Y-10536079D01*
X11782087Y-10536079D02*
X11791611Y-10517031D01*
X11791611Y-10517031D02*
X11801134Y-10488460D01*
X11801134Y-10488460D02*
X11810658Y-10440841D01*
X11810658Y-10440841D02*
X11810658Y-10402746D01*
X11810658Y-10402746D02*
X11801134Y-10355127D01*
X11801134Y-10355127D02*
X11791611Y-10326555D01*
X11791611Y-10326555D02*
X11782087Y-10307508D01*
X11782087Y-10307508D02*
X11763039Y-10278936D01*
X11763039Y-10278936D02*
X11753515Y-10269412D01*
M02*
