M48
; DRILL file KiCad 10.0.4 date 2026-07-23T21:57:46
; FORMAT={-:-/ absolute / metric / decimal}
; #@! TF.CreationDate,2026-07-23T21:57:46+03:00
; #@! TF.GenerationSoftware,Kicad,Pcbnew,10.0.4
; #@! TF.FileFunction,Plated,1,2,PTH
FMAT,2
METRIC
; #@! TA.AperFunction,Plated,PTH,ComponentDrill
T1C0.200
; #@! TA.AperFunction,Plated,PTH,ViaDrill
T2C0.300
; #@! TA.AperFunction,Plated,PTH,ViaDrill
T3C0.400
; #@! TA.AperFunction,Plated,PTH,ComponentDrill
T4C0.600
; #@! TA.AperFunction,Plated,PTH,ComponentDrill
T5C0.920
; #@! TA.AperFunction,Plated,PTH,ComponentDrill
T6C1.000
; #@! TA.AperFunction,Plated,PTH,ComponentDrill
T7C1.500
%
G90
G05
T1
X89.6Y-58.67
X89.6Y-60.07
X90.3Y-57.97
X90.3Y-59.37
X90.3Y-60.77
X91.0Y-58.67
X91.0Y-60.07
X91.7Y-57.97
X91.7Y-59.37
X91.7Y-60.77
X92.4Y-58.67
X92.4Y-60.07
T2
X53.0Y-67.0
X53.0Y-78.0
X53.49Y-80.825
X54.0Y-63.0
X56.0Y-80.825
X57.0Y-67.0
X57.0Y-78.0
X58.045Y-69.25
X58.045Y-75.75
X64.0Y-89.0
X69.638Y-78.0
X69.812Y-75.0
X70.0Y-72.0
X72.575Y-78.0
X73.0Y-85.0
X73.45Y-70.0
X75.0Y-70.0
X75.0Y-82.0
X75.0Y-94.0
X75.035Y-85.0
X76.0Y-79.0
X76.475Y-75.0
X77.05Y-67.0
X78.0Y-69.0
X78.662Y-78.0
X78.825Y-75.0
X80.0Y-69.0
X80.475Y-75.0
X81.212Y-93.0
X83.775Y-84.0
X83.775Y-85.0
X83.775Y-86.0
X85.212Y-93.0
X86.0Y-86.0
X87.0Y-80.95
X88.425Y-79.53
X89.0Y-66.0
X89.0Y-73.575
X89.0Y-77.0
X89.0Y-79.0
X89.0Y-84.0
X89.0Y-88.0
X89.212Y-93.0
X90.0Y-64.0
X90.0Y-66.0
X90.0Y-74.0
X90.0Y-77.0
X90.0Y-79.0
X90.0Y-83.0
X90.0Y-85.0
X91.0Y-63.0
X91.0Y-72.0
X91.0Y-74.0
X91.0Y-77.0
X91.97Y-79.03
X92.97Y-80.03
X93.0Y-64.0
X93.0Y-85.0
X93.0Y-88.0
X93.03Y-77.97
X93.212Y-93.0
X94.0Y-64.0
X94.0Y-72.0
X94.0Y-74.0
X94.03Y-78.97
X95.0Y-66.0
X95.0Y-74.0
X96.0Y-66.0
X96.0Y-74.0
X97.0Y-72.0
X97.0Y-74.15
X97.0Y-85.0
X97.0Y-88.0
X97.212Y-93.0
X98.0Y-80.0
X98.0Y-82.0
X98.215Y-69.41
X100.0Y-67.0
X101.0Y-79.0
X102.0Y-80.0
X102.0Y-82.0
X102.0Y-85.0
X102.0Y-87.0
X103.0Y-72.0
X103.0Y-74.0
X103.0Y-82.0
X103.7Y-90.1
X104.0Y-73.0
X106.0Y-69.0
X108.0Y-66.0
X108.862Y-73.05
X110.0Y-90.1
X110.862Y-72.0
X111.35Y-77.49
X113.0Y-73.0
X113.0Y-77.49
X113.0Y-80.0
X113.7Y-90.1
X114.0Y-80.0
X115.0Y-85.0
X116.075Y-80.0
X116.075Y-81.0
X116.775Y-79.0
X118.0Y-70.0
X118.0Y-75.0
X118.862Y-79.0
X120.0Y-90.1
X121.0Y-79.0
X125.0Y-70.0
X125.0Y-75.0
X130.7Y-81.0
T3
X83.0Y-83.0
X86.0Y-83.0
X118.0Y-78.0
X118.0Y-82.0
T5
X116.51Y-72.5
X118.51Y-72.5
X120.51Y-72.5
X122.51Y-72.5
T6
X64.3Y-91.0
X66.84Y-91.0
X69.38Y-91.0
X71.92Y-91.0
X74.46Y-91.0
X77.0Y-91.0
T7
X116.24Y-69.78
X116.24Y-75.22
X123.24Y-69.78
X123.24Y-75.22
T4
G00X53.25Y-68.18
M15
G01X52.65Y-68.18
M16
G05
G00X53.25Y-76.82
M15
G01X52.65Y-76.82
M16
G05
G00X57.68Y-68.18
M15
G01X56.58Y-68.18
M16
G05
G00X57.68Y-76.82
M15
G01X56.58Y-76.82
M16
G05
M30
